  0
SECTION
  2
HEADER
  9
$ACADVER
  1
AC1014
  9
$ACADMAINTVER
 70
     9
  9
$DWGCODEPAGE
  3
ANSI_1250
  9
$INSBASE
 10
0.0
 20
0.0
 30
0.0
  9
$EXTMIN
 10
1.000000000000000E+20
 20
1.000000000000000E+20
 30
1.000000000000000E+20
  9
$EXTMAX
 10
-1.000000000000000E+20
 20
-1.000000000000000E+20
 30
-1.000000000000000E+20
  9
$LIMMIN
 10
0.0
 20
0.0
  9
$LIMMAX
 10
420.0
 20
297.0
  9
$ORTHOMODE
 70
     0
  9
$REGENMODE
 70
     1
  9
$FILLMODE
 70
     1
  9
$QTEXTMODE
 70
     0
  9
$MIRRTEXT
 70
     1
  9
$DRAGMODE
 70
     2
  9
$LTSCALE
 40
1.0
  9
$OSMODE
 70
    37
  9
$ATTMODE
 70
     1
  9
$TEXTSIZE
 40
2.5
  9
$TRACEWID
 40
1.0
  9
$TEXTSTYLE
  7
STANDARD
  9
$CLAYER
  8
0
  9
$CELTYPE
  6
BYLAYER
  9
$CECOLOR
 62
   256
  9
$CELTSCALE
 40
1.0
  9
$DELOBJ
 70
     1
  9
$DISPSILH
 70
     0
  9
$DIMSCALE
 40
1.0
  9
$DIMASZ
 40
3.0
  9
$DIMEXO
 40
0.625
  9
$DIMDLI
 40
3.75
  9
$DIMRND
 40
0.0
  9
$DIMDLE
 40
0.0
  9
$DIMEXE
 40
1.25
  9
$DIMTP
 40
0.0
  9
$DIMTM
 40
0.0
  9
$DIMTXT
 40
1.22550817624347
  9
$DIMCEN
 40
2.5
  9
$DIMTSZ
 40
0.0
  9
$DIMTOL
 70
     0
  9
$DIMLIM
 70
     0
  9
$DIMTIH
 70
     0
  9
$DIMTOH
 70
     0
  9
$DIMSE1
 70
     0
  9
$DIMSE2
 70
     0
  9
$DIMTAD
 70
     1
  9
$DIMZIN
 70
     8
  9
$DIMBLK
  1

  9
$DIMASO
 70
     1
  9
$DIMSHO
 70
     1
  9
$DIMPOST
  1

  9
$DIMAPOST
  1

  9
$DIMALT
 70
     0
  9
$DIMALTD
 70
     3
  9
$DIMALTF
 40
0.03937007874016
  9
$DIMLFAC
 40
1.0
  9
$DIMTOFL
 70
     1
  9
$DIMTVP
 40
0.0
  9
$DIMTIX
 70
     0
  9
$DIMSOXD
 70
     0
  9
$DIMSAH
 70
     0
  9
$DIMBLK1
  1

  9
$DIMBLK2
  1

  9
$DIMSTYLE
  2
ISO-25
  9
$DIMCLRD
 70
     0
  9
$DIMCLRE
 70
     0
  9
$DIMCLRT
 70
     0
  9
$DIMTFAC
 40
1.0
  9
$DIMGAP
 40
0.625
  9
$DIMJUST
 70
     0
  9
$DIMSD1
 70
     0
  9
$DIMSD2
 70
     0
  9
$DIMTOLJ
 70
     0
  9
$DIMTZIN
 70
     8
  9
$DIMALTZ
 70
     0
  9
$DIMALTTZ
 70
     0
  9
$DIMFIT
 70
     3
  9
$DIMUPT
 70
     0
  9
$DIMUNIT
 70
     2
  9
$DIMDEC
 70
     2
  9
$DIMTDEC
 70
     2
  9
$DIMALTU
 70
     2
  9
$DIMALTTD
 70
     3
  9
$DIMTXSTY
  7
STANDARD
  9
$DIMAUNIT
 70
     0
  9
$LUNITS
 70
     2
  9
$LUPREC
 70
     4
  9
$SKETCHINC
 40
1.0
  9
$FILLETRAD
 40
10.0
  9
$AUNITS
 70
     0
  9
$AUPREC
 70
     0
  9
$MENU
  1
.
  9
$ELEVATION
 40
0.0
  9
$PELEVATION
 40
0.0
  9
$THICKNESS
 40
0.0
  9
$LIMCHECK
 70
     0
  9
$CHAMFERA
 40
10.0
  9
$CHAMFERB
 40
10.0
  9
$CHAMFERC
 40
20.0
  9
$CHAMFERD
 40
0.0
  9
$SKPOLY
 70
     0
  9
$TDCREATE
 40
2456310.543584167
  9
$TDUPDATE
 40
2456310.543584178
  9
$TDINDWG
 40
0.0000000116
  9
$TDUSRTIMER
 40
0.0000000116
  9
$USRTIMER
 70
     1
  9
$ANGBASE
 50
0.0
  9
$ANGDIR
 70
     0
  9
$PDMODE
 70
     0
  9
$PDSIZE
 40
0.0
  9
$PLINEWID
 40
0.0
  9
$COORDS
 70
     1
  9
$SPLFRAME
 70
     0
  9
$SPLINETYPE
 70
     6
  9
$SPLINESEGS
 70
     8
  9
$ATTDIA
 70
     0
  9
$ATTREQ
 70
     1
  9
$HANDLING
 70
     1
  9
$HANDSEED
  5
398
  9
$SURFTAB1
 70
     6
  9
$SURFTAB2
 70
     6
  9
$SURFTYPE
 70
     6
  9
$SURFU
 70
     6
  9
$SURFV
 70
     6
  9
$UCSNAME
  2

  9
$UCSORG
 10
0.0
 20
0.0
 30
0.0
  9
$UCSXDIR
 10
1.0
 20
0.0
 30
0.0
  9
$UCSYDIR
 10
0.0
 20
1.0
 30
0.0
  9
$PUCSNAME
  2

  9
$PUCSORG
 10
0.0
 20
0.0
 30
0.0
  9
$PUCSXDIR
 10
1.0
 20
0.0
 30
0.0
  9
$PUCSYDIR
 10
0.0
 20
1.0
 30
0.0
  9
$USERI1
 70
     0
  9
$USERI2
 70
     0
  9
$USERI3
 70
     0
  9
$USERI4
 70
     0
  9
$USERI5
 70
     0
  9
$USERR1
 40
0.0
  9
$USERR2
 40
0.0
  9
$USERR3
 40
0.0
  9
$USERR4
 40
0.0
  9
$USERR5
 40
0.0
  9
$WORLDVIEW
 70
     1
  9
$SHADEDGE
 70
     3
  9
$SHADEDIF
 70
    70
  9
$TILEMODE
 70
     1
  9
$MAXACTVP
 70
    64
  9
$PINSBASE
 10
0.0
 20
0.0
 30
0.0
  9
$PLIMCHECK
 70
     0
  9
$PEXTMIN
 10
1.000000000000000E+20
 20
1.000000000000000E+20
 30
1.000000000000000E+20
  9
$PEXTMAX
 10
-1.000000000000000E+20
 20
-1.000000000000000E+20
 30
-1.000000000000000E+20
  9
$PLIMMIN
 10
0.0
 20
0.0
  9
$PLIMMAX
 10
420.0
 20
297.0
  9
$UNITMODE
 70
     0
  9
$VISRETAIN
 70
     1
  9
$PLINEGEN
 70
     0
  9
$PSLTSCALE
 70
     1
  9
$TREEDEPTH
 70
  3020
  9
$PICKSTYLE
 70
     1
  9
$CMLSTYLE
  2
STANDARD
  9
$CMLJUST
 70
     0
  9
$CMLSCALE
 40
20.0
  9
$PROXYGRAPHICS
 70
     1
  9
$MEASUREMENT
 70
     1
  0
ENDSEC
  0
SECTION
  2
CLASSES
  0
CLASS
  1
ACDBDICTIONARYWDFLT
  2
AcDbDictionaryWithDefault
  3
ObjectDBX Classes
 90
        0
280
     0
281
     0
  0
CLASS
  1
VISUALSTYLE
  2
AcDbVisualStyle
  3
ObjectDBX Classes
 90
     4095
280
     0
281
     0
  0
CLASS
  1
MATERIAL
  2
AcDbMaterial
  3
ObjectDBX Classes
 90
     1153
280
     0
281
     0
  0
CLASS
  1
SCALE
  2
AcDbScale
  3
ObjectDBX Classes
 90
     1153
280
     0
281
     0
  0
CLASS
  1
DICTIONARYVAR
  2
AcDbDictionaryVar
  3
ObjectDBX Classes
 90
        0
280
     0
281
     0
  0
CLASS
  1
XRECORD
  2
AcDbXrecord
  3
AutoCAD 2000
 90
        0
280
     0
281
     0
  0
CLASS
  1
LWPOLYLINE
  2
AcDbPolyline
  3
AutoCAD 2000
 90
        0
280
     0
281
     1
  0
CLASS
  1
HATCH
  2
AcDbHatch
  3
AutoCAD 2000
 90
        0
280
     0
281
     1
  0
CLASS
  1
ACDBPLACEHOLDER
  2
AcDbPlaceHolder
  3
ObjectDBX Classes
 90
        0
280
     0
281
     0
  0
CLASS
  1
LAYOUT
  2
AcDbLayout
  3
ObjectDBX Classes
 90
        0
280
     0
281
     0
  0
ENDSEC
  0
SECTION
  2
TABLES
  0
TABLE
  2
VPORT
  5
8
330
0
100
AcDbSymbolTable
 70
     1
  0
VPORT
  5
29
330
8
100
AcDbSymbolTableRecord
100
AcDbViewportTableRecord
  2
*ACTIVE
 70
     0
 10
0.0
 20
0.0
 11
1.0
 21
1.0
 12
344.1869158878504
 22
148.5
 13
0.0
 23
0.0
 14
10.0
 24
10.0
 15
10.0
 25
10.0
 16
0.0
 26
0.0
 36
1.0
 17
0.0
 27
0.0
 37
0.0
 40
297.0
 41
1.972972972850329
 42
50.0
 43
0.0
 44
0.0
 50
0.0
 51
0.0
 71
     0
 72
   100
 73
     1
 74
     3
 75
     0
 76
     0
 77
     0
 78
     0
  0
ENDTAB
  0
TABLE
  2
LTYPE
  5
5
330
0
100
AcDbSymbolTable
 70
     1
  0
LTYPE
  5
14
330
5
100
AcDbSymbolTableRecord
100
AcDbLinetypeTableRecord
  2
BYBLOCK
 70
     0
  3

 72
    65
 73
     0
 40
0.0
  0
LTYPE
  5
15
330
5
100
AcDbSymbolTableRecord
100
AcDbLinetypeTableRecord
  2
BYLAYER
 70
     0
  3

 72
    65
 73
     0
 40
0.0
  0
LTYPE
  5
16
330
5
100
AcDbSymbolTableRecord
100
AcDbLinetypeTableRecord
  2
CONTINUOUS
 70
     0
  3
Solid line
 72
    65
 73
     0
 40
0.0
  0
ENDTAB
  0
TABLE
  2
LAYER
  5
2
330
0
100
AcDbSymbolTable
 70
     4
  0
LAYER
  5
10
330
2
100
AcDbSymbolTableRecord
100
AcDbLayerTableRecord
  2
0
 70
     0
 62
     7
  6
CONTINUOUS
  0
LAYER
  5
3F
330
2
100
AcDbSymbolTableRecord
100
AcDbLayerTableRecord
  2
WIDOCZNA
 70
     0
 62
     7
  6
CONTINUOUS
  0
LAYER
  5
57
330
2
100
AcDbSymbolTableRecord
100
AcDbLayerTableRecord
  2
WYMIARY
 70
     0
 62
     7
  6
CONTINUOUS
  0
LAYER
  5
DC
330
2
100
AcDbSymbolTableRecord
100
AcDbLayerTableRecord
  2
STYCZNE_KRAWÊDZIE
 70
     0
 62
     7
  6
CONTINUOUS
  0
ENDTAB
  0
TABLE
  2
STYLE
  5
3
330
0
100
AcDbSymbolTable
 70
     1
  0
STYLE
  5
11
330
3
100
AcDbSymbolTableRecord
100
AcDbTextStyleTableRecord
  2
STANDARD
 70
     0
 40
0.0
 41
1.0
 50
0.0
 71
     0
 42
2.5
  3
txt
  4

  0
ENDTAB
  0
TABLE
  2
VIEW
  5
6
330
0
100
AcDbSymbolTable
 70
     0
  0
ENDTAB
  0
TABLE
  2
UCS
  5
7
330
0
100
AcDbSymbolTable
 70
     0
  0
ENDTAB
  0
TABLE
  2
APPID
  5
9
330
0
100
AcDbSymbolTable
 70
     1
  0
APPID
  5
12
330
9
100
AcDbSymbolTableRecord
100
AcDbRegAppTableRecord
  2
ACAD
 70
     0
  0
ENDTAB
  0
TABLE
  2
DIMSTYLE
  5
A
330
0
100
AcDbSymbolTable
 70
     1
  0
DIMSTYLE
105
27
102
{ACAD_REACTORS
330
58
330
88
330
95
330
A2
330
AF
102
}
330
A
100
AcDbSymbolTableRecord
100
AcDbDimStyleTableRecord
  2
ISO-25
 70
     0
  3

  4

  5

  6

  7

 40
1.0
 41
2.5
 42
0.625
 43
3.75
 44
1.25
 45
0.0
 46
0.0
 47
0.0
 48
0.0
140
2.5
141
2.5
142
0.0
143
0.03937007874016
144
1.0
145
0.0
146
1.0
147
0.625
 71
     0
 72
     0
 73
     0
 74
     0
 75
     0
 76
     0
 77
     1
 78
     8
170
     0
171
     3
172
     1
173
     0
174
     0
175
     0
176
     0
177
     0
178
     0
270
     2
271
     2
272
     2
273
     2
274
     3
340
11
275
     0
280
     0
281
     0
282
     0
283
     0
284
     8
285
     0
286
     0
287
     3
288
     0
  0
ENDTAB
  0
TABLE
  2
BLOCK_RECORD
  5
1
330
0
100
AcDbSymbolTable
 70
     6
  0
BLOCK_RECORD
  5
1F
330
1
100
AcDbSymbolTableRecord
100
AcDbBlockTableRecord
  2
*MODEL_SPACE
  0
BLOCK_RECORD
  5
1B
330
1
100
AcDbSymbolTableRecord
100
AcDbBlockTableRecord
  2
*PAPER_SPACE
  0
BLOCK_RECORD
  5
7B
330
1
100
AcDbSymbolTableRecord
100
AcDbBlockTableRecord
  2
D1
  0
BLOCK_RECORD
  5
89
330
1
100
AcDbSymbolTableRecord
100
AcDbBlockTableRecord
  2
D2
  0
BLOCK_RECORD
  5
96
330
1
100
AcDbSymbolTableRecord
100
AcDbBlockTableRecord
  2
D3
  0
BLOCK_RECORD
  5
A3
330
1
100
AcDbSymbolTableRecord
100
AcDbBlockTableRecord
  2
D4
  0
BLOCK_RECORD
  5
B0
330
1
100
AcDbSymbolTableRecord
100
AcDbBlockTableRecord
  2
D5
  0
ENDTAB
  0
ENDSEC
  0
SECTION
  2
BLOCKS
  0
BLOCK
  5
20
330
1F
100
AcDbEntity
  8
0
100
AcDbBlockBegin
  2
*MODEL_SPACE
 70
     0
 10
0.0
 20
0.0
 30
0.0
  3
*MODEL_SPACE
  1

  0
ENDBLK
  5
21
330
1F
100
AcDbEntity
  8
0
100
AcDbBlockEnd
  0
BLOCK
  5
1C
330
1B
100
AcDbEntity
 67
     1
  8
0
100
AcDbBlockBegin
  2
*PAPER_SPACE
 70
     0
 10
0.0
 20
0.0
 30
0.0
  3
*PAPER_SPACE
  1

  0
ENDBLK
  5
1D
330
1B
100
AcDbEntity
 67
     1
  8
0
100
AcDbBlockEnd
  0
BLOCK
  5
7C
330
7B
100
AcDbEntity
  8
0
100
AcDbBlockBegin
  2
D1
 70
     0
 10
0.0
 20
0.0
 30
0.0
  3
D1
  1

  0
MTEXT
  5
7E
330
7B
100
AcDbEntity
  8
WYMIARY
100
AcDbMText
 10
46.5077590942383
 20
142.7092590332032
 30
0.0
 40
2.499554140127389
 41
0.0
 71
     5
 72
     1
  1
{\fCE|b0|i0|c0|p0;12,7}{\fMicrosoft Sans Serif|b0|i0|c0|p0;\H0.9444444x;}
  0
MTEXT
  5
7F
330
7B
100
AcDbEntity
  8
WYMIARY
100
AcDbMText
 10
46.5077590942383
 20
142.7092590332032
 30
0.0
 40
2.499554140127389
 41
0.0
 71
     5
 72
     1
  1
{\fCE|b0|i0|c0|p0;}
  0
MTEXT
  5
80
330
7B
100
AcDbEntity
  8
WYMIARY
100
AcDbMText
 10
46.5077590942383
 20
142.7092590332032
 30
0.0
 40
2.499554140127389
 41
0.0
 71
     5
 72
     1
  1
{\fCE|b0|i0|c0|p0;}
  0
LINE
  5
81
330
7B
100
AcDbEntity
  8
WYMIARY
100
AcDbLine
 10
54.32998158874511
 20
142.7092589378358
 30
0.0
 11
51.32998158874511
 21
142.7092589378358
 31
0.0
  0
LINE
  5
82
330
7B
100
AcDbEntity
  8
WYMIARY
100
AcDbLine
 10
70.65341197204589
 20
163.251870250702
 30
0.0
 11
52.32998158874511
 21
163.251870250702
 31
0.0
  0
LINE
  5
83
330
7B
100
AcDbEntity
  8
WYMIARY
100
AcDbLine
 10
70.65341197204589
 20
150.551870250702
 30
0.0
 11
52.32998158874511
 21
150.551870250702
 31
0.0
  0
LWPOLYLINE
  5
84
330
7B
100
AcDbEntity
  8
WYMIARY
100
AcDbPolyline
 90
        4
 70
     0
 43
0.0
 10
54.32998158874511
 20
163.251870250702
 10
54.82998158874511
 20
160.251870250702
 10
53.82998158874511
 20
160.251870250702
 10
54.32998158874511
 20
163.251870250702
  0
LINE
  5
85
330
7B
100
AcDbEntity
  8
WYMIARY
100
AcDbLine
 10
54.32998158874511
 20
160.251870250702
 30
0.0
 11
54.32998158874511
 21
153.551870250702
 31
0.0
  0
LWPOLYLINE
  5
86
330
7B
100
AcDbEntity
  8
WYMIARY
100
AcDbPolyline
 90
        4
 70
     0
 43
0.0
 10
54.32998158874511
 20
150.551870250702
 10
53.82998158874511
 20
153.551870250702
 10
54.82998158874511
 20
153.551870250702
 10
54.32998158874511
 20
150.551870250702
  0
LINE
  5
87
330
7B
100
AcDbEntity
  8
WYMIARY
100
AcDbLine
 10
54.32998158874511
 20
150.551870250702
 30
0.0
 11
54.32998158874511
 21
142.7092589378358
 31
0.0
  0
ENDBLK
  5
7D
330
7B
100
AcDbEntity
  8
0
100
AcDbBlockEnd
  0
BLOCK
  5
8A
330
89
100
AcDbEntity
  8
0
100
AcDbBlockBegin
  2
D2
 70
     0
 10
0.0
 20
0.0
 30
0.0
  3
D2
  1

  0
MTEXT
  5
8C
330
89
100
AcDbEntity
  8
WYMIARY
100
AcDbMText
 10
99.7352523803711
 20
171.5706787109376
 30
0.0
 40
2.499554140127389
 41
0.0
 71
     5
 72
     1
  1
{\fCE|b0|i0|c0|p0;58,445}{\fMicrosoft Sans Serif|b0|i0|c0|p0;\H0.9444444x;}
  0
MTEXT
  5
8D
330
89
100
AcDbEntity
  8
WYMIARY
100
AcDbMText
 10
99.7352523803711
 20
171.5706787109376
 30
0.0
 40
2.499554140127389
 41
0.0
 71
     5
 72
     1
  1
{\fCE|b0|i0|c0|p0;}
  0
MTEXT
  5
8E
330
89
100
AcDbEntity
  8
WYMIARY
100
AcDbMText
 10
99.7352523803711
 20
171.5706787109376
 30
0.0
 40
2.499554140127389
 41
0.0
 71
     5
 72
     1
  1
{\fCE|b0|i0|c0|p0;}
  0
LINE
  5
8F
330
89
100
AcDbEntity
  8
WYMIARY
100
AcDbLine
 10
69.6562119720459
 20
162.254670250702
 30
0.0
 11
69.6562119720459
 21
173.5706787109376
 31
0.0
  0
LINE
  5
90
330
89
100
AcDbEntity
  8
WYMIARY
100
AcDbLine
 10
128.1016119720459
 20
162.254670250702
 30
0.0
 11
128.1016119720459
 21
173.5706787109376
 31
0.0
  0
LWPOLYLINE
  5
91
330
89
100
AcDbEntity
  8
WYMIARY
100
AcDbPolyline
 90
        4
 70
     0
 43
0.0
 10
69.6562119720459
 20
171.5706787109376
 10
72.6562119720459
 20
172.0706787109376
 10
72.6562119720459
 20
171.0706787109376
 10
69.6562119720459
 20
171.5706787109376
  0
LINE
  5
92
330
89
100
AcDbEntity
  8
WYMIARY
100
AcDbLine
 10
72.6562119720459
 20
171.5706787109376
 30
0.0
 11
93.32552983703613
 21
171.5706786155702
 31
0.0
  0
LWPOLYLINE
  5
93
330
89
100
AcDbEntity
  8
WYMIARY
100
AcDbPolyline
 90
        4
 70
     0
 43
0.0
 10
128.1016119720459
 20
171.5706787109376
 10
125.1016119720459
 20
171.0706787109376
 10
125.1016119720459
 20
172.0706787109376
 10
128.1016119720459
 20
171.5706787109376
  0
LINE
  5
94
330
89
100
AcDbEntity
  8
WYMIARY
100
AcDbLine
 10
125.1016119720459
 20
171.5706787109376
 30
0.0
 11
106.1449764007568
 21
171.5706786155702
 31
0.0
  0
ENDBLK
  5
8B
330
89
100
AcDbEntity
  8
0
100
AcDbBlockEnd
  0
BLOCK
  5
97
330
96
100
AcDbEntity
  8
0
100
AcDbBlockBegin
  2
D3
 70
     0
 10
0.0
 20
0.0
 30
0.0
  3
D3
  1

  0
MTEXT
  5
99
330
96
100
AcDbEntity
  8
WYMIARY
100
AcDbMText
 10
109.5404891967773
 20
165.457260131836
 30
0.0
 40
2.499554140127389
 41
0.0
 71
     5
 72
     1
  1
{\fAlibre Symbols|b0|i0|c0|p0;n}{\fCE|b0|i0|c0|p0;8,5}{\fMicrosoft Sans Serif|b0|i0|c0|p0;\H0.9444444x;}
  0
MTEXT
  5
9A
330
96
100
AcDbEntity
  8
WYMIARY
100
AcDbMText
 10
109.5404891967773
 20
165.457260131836
 30
0.0
 40
2.499554140127389
 41
0.0
 71
     5
 72
     1
  1
{\fCE|b0|i0|c0|p0;}
  0
MTEXT
  5
9B
330
96
100
AcDbEntity
  8
WYMIARY
100
AcDbMText
 10
109.5404891967773
 20
165.457260131836
 30
0.0
 40
2.499554140127389
 41
0.0
 71
     5
 72
     1
  1
{\fCE|b0|i0|c0|p0;}
  0
LINE
  5
9C
330
96
100
AcDbEntity
  8
WYMIARY
100
AcDbLine
 10
105.2241765320459
 20
159.331869390702
 30
0.0
 11
105.2241765320459
 21
167.457260131836
 31
0.0
  0
LINE
  5
9D
330
96
100
AcDbEntity
  8
WYMIARY
100
AcDbLine
 10
113.7241765320459
 20
159.331869390702
 30
0.0
 11
113.7241765320459
 21
167.457260131836
 31
0.0
  0
LWPOLYLINE
  5
9E
330
96
100
AcDbEntity
  8
WYMIARY
100
AcDbPolyline
 90
        4
 70
     0
 43
0.0
 10
105.2241765320459
 20
165.457260131836
 10
108.2241765320459
 20
165.957260131836
 10
108.2241765320459
 20
164.957260131836
 10
105.2241765320459
 20
165.457260131836
  0
LINE
  5
9F
330
96
100
AcDbEntity
  8
WYMIARY
100
AcDbLine
 10
108.2241765320459
 20
165.457260131836
 30
0.0
 11
108.2241765320459
 21
165.457260131836
 31
0.0
  0
LWPOLYLINE
  5
A0
330
96
100
AcDbEntity
  8
WYMIARY
100
AcDbPolyline
 90
        4
 70
     0
 43
0.0
 10
113.7241765320459
 20
165.457260131836
 10
110.7241765320459
 20
164.957260131836
 10
110.7241765320459
 20
165.957260131836
 10
113.7241765320459
 20
165.457260131836
  0
LINE
  5
A1
330
96
100
AcDbEntity
  8
WYMIARY
100
AcDbLine
 10
110.7241765320459
 20
165.457260131836
 30
0.0
 11
110.7241765320459
 21
165.457260131836
 31
0.0
  0
ENDBLK
  5
98
330
96
100
AcDbEntity
  8
0
100
AcDbBlockEnd
  0
BLOCK
  5
A4
330
A3
100
AcDbEntity
  8
0
100
AcDbBlockBegin
  2
D4
 70
     0
 10
0.0
 20
0.0
 30
0.0
  3
D4
  1

  0
MTEXT
  5
A6
330
A3
100
AcDbEntity
  8
WYMIARY
100
AcDbMText
 10
94.34813690185547
 20
144.5443267822266
 30
0.0
 40
2.499554140127389
 41
0.0
 71
     5
 72
     1
  1
{\fAlibre Symbols|b0|i0|c0|p0;n}{\fCE|b0|i0|c0|p0;4}{\fMicrosoft Sans Serif|b0|i0|c0|p0;\H0.9444444x;}
  0
MTEXT
  5
A7
330
A3
100
AcDbEntity
  8
WYMIARY
100
AcDbMText
 10
94.34813690185547
 20
144.5443267822266
 30
0.0
 40
2.499554140127389
 41
0.0
 71
     5
 72
     1
  1
{\fCE|b0|i0|c0|p0;}
  0
MTEXT
  5
A8
330
A3
100
AcDbEntity
  8
WYMIARY
100
AcDbMText
 10
94.34813690185547
 20
144.5443267822266
 30
0.0
 40
2.499554140127389
 41
0.0
 71
     5
 72
     1
  1
{\fCE|b0|i0|c0|p0;}
  0
LINE
  5
A9
330
A3
100
AcDbEntity
  8
WYMIARY
100
AcDbLine
 10
96.37417117204589
 20
152.311869390702
 30
0.0
 11
96.37417117204589
 21
142.5443267822266
 31
0.0
  0
LINE
  5
AA
330
A3
100
AcDbEntity
  8
WYMIARY
100
AcDbLine
 10
92.37417117204589
 20
152.311869390702
 30
0.0
 11
92.37417117204589
 21
142.5443267822266
 31
0.0
  0
LWPOLYLINE
  5
AB
330
A3
100
AcDbEntity
  8
WYMIARY
100
AcDbPolyline
 90
        4
 70
     0
 43
0.0
 10
96.37417117204589
 20
144.5443267822266
 10
99.37417117204589
 20
145.0443267822266
 10
99.37417117204589
 20
144.0443267822266
 10
96.37417117204589
 20
144.5443267822266
  0
LINE
  5
AC
330
A3
100
AcDbEntity
  8
WYMIARY
100
AcDbLine
 10
99.37417117204589
 20
144.5443267822266
 30
0.0
 11
99.97417117204589
 21
144.5443267822266
 31
0.0
  0
LWPOLYLINE
  5
AD
330
A3
100
AcDbEntity
  8
WYMIARY
100
AcDbPolyline
 90
        4
 70
     0
 43
0.0
 10
92.3741711720459
 20
144.5443267822266
 10
89.3741711720459
 20
144.0443267822266
 10
89.3741711720459
 20
145.0443267822266
 10
92.3741711720459
 20
144.5443267822266
  0
LINE
  5
AE
330
A3
100
AcDbEntity
  8
WYMIARY
100
AcDbLine
 10
89.37417117204589
 20
144.5443267822266
 30
0.0
 11
88.7741711720459
 21
144.5443267822266
 31
0.0
  0
ENDBLK
  5
A5
330
A3
100
AcDbEntity
  8
0
100
AcDbBlockEnd
  0
BLOCK
  5
B1
330
B0
100
AcDbEntity
  8
0
100
AcDbBlockBegin
  2
D5
 70
     0
 10
0.0
 20
0.0
 30
0.0
  3
D5
  1

  0
MTEXT
  5
B3
330
B0
100
AcDbEntity
  8
WYMIARY
100
AcDbMText
 10
115.0735092163086
 20
147.4515075683595
 30
0.0
 40
2.499554140127389
 41
0.0
 71
     5
 72
     1
  1
{\fAlibre Symbols|b0|i0|c0|p0;n}{\fCE|b0|i0|c0|p0;1,5}{\fMicrosoft Sans Serif|b0|i0|c0|p0;\H0.9444444x;}
  0
MTEXT
  5
B4
330
B0
100
AcDbEntity
  8
WYMIARY
100
AcDbMText
 10
115.0735092163086
 20
147.4515075683595
 30
0.0
 40
2.499554140127389
 41
0.0
 71
     5
 72
     1
  1
{\fCE|b0|i0|c0|p0;}
  0
MTEXT
  5
B5
330
B0
100
AcDbEntity
  8
WYMIARY
100
AcDbMText
 10
115.0735092163086
 20
147.4515075683595
 30
0.0
 40
2.499554140127389
 41
0.0
 71
     5
 72
     1
  1
{\fCE|b0|i0|c0|p0;}
  0
LINE
  5
B6
330
B0
100
AcDbEntity
  8
WYMIARY
100
AcDbLine
 10
116.0740073520459
 20
150.751869390702
 30
0.0
 11
116.0740073520459
 21
145.4515075683595
 31
0.0
  0
LINE
  5
B7
330
B0
100
AcDbEntity
  8
WYMIARY
100
AcDbLine
 10
114.5740073520459
 20
150.751869390702
 30
0.0
 11
114.5740073520459
 21
145.4515075683595
 31
0.0
  0
LWPOLYLINE
  5
B8
330
B0
100
AcDbEntity
  8
WYMIARY
100
AcDbPolyline
 90
        4
 70
     0
 43
0.0
 10
116.0740073520459
 20
147.4515075683595
 10
119.0740073520459
 20
147.9515075683595
 10
119.0740073520459
 20
146.9515075683595
 10
116.0740073520459
 20
147.4515075683595
  0
LINE
  5
B9
330
B0
100
AcDbEntity
  8
WYMIARY
100
AcDbLine
 10
119.0740073520459
 20
147.4515075683595
 30
0.0
 11
119.6740073520459
 21
147.4515075683595
 31
0.0
  0
LWPOLYLINE
  5
BA
330
B0
100
AcDbEntity
  8
WYMIARY
100
AcDbPolyline
 90
        4
 70
     0
 43
0.0
 10
114.5740073520459
 20
147.4515075683595
 10
111.5740073520459
 20
146.9515075683595
 10
111.5740073520459
 20
147.9515075683595
 10
114.5740073520459
 20
147.4515075683595
  0
LINE
  5
BB
330
B0
100
AcDbEntity
  8
WYMIARY
100
AcDbLine
 10
111.5740073520459
 20
147.4515075683595
 30
0.0
 11
110.9740073520459
 21
147.4515075683595
 31
0.0
  0
ENDBLK
  5
B2
330
B0
100
AcDbEntity
  8
0
100
AcDbBlockEnd
  0
ENDSEC
  0
SECTION
  2
ENTITIES
  0
LINE
  5
40
330
1F
100
AcDbEntity
  8
WIDOCZNA
100
AcDbLine
 10
129.3970119720459
 20
152.304470250702
 30
0.0
 11
127.8309810028979
 21
152.304470250702
 31
0.0
  0
ARC
  5
41
330
1F
100
AcDbEntity
  8
WIDOCZNA
100
AcDbCircle
 10
125.1044119720459
 20
160.254670250702
 30
0.0
 40
2.997199999999978
100
AcDbArc
 50
0.0
 51
90.0
  0
ARC
  5
42
330
1F
100
AcDbEntity
  8
WIDOCZNA
100
AcDbCircle
 10
72.65341197204589
 20
153.549070250702
 30
0.0
 40
2.997199999999992
100
AcDbArc
 50
180.0
 51
270.0
  0
CIRCLE
  5
43
330
1F
100
AcDbEntity
  8
WIDOCZNA
100
AcDbCircle
 10
88.27417829204589
 20
157.331869390702
 30
0.0
 40
4.25
  0
LINE
  5
44
330
1F
100
AcDbEntity
  8
WIDOCZNA
100
AcDbLine
 10
69.9268429411939
 20
152.304470250702
 30
0.0
 11
68.3608119720459
 21
152.304470250702
 31
0.0
  0
LINE
  5
45
330
1F
100
AcDbEntity
  8
WIDOCZNA
100
AcDbLine
 10
72.65341197204589
 20
150.551870250702
 30
0.0
 11
125.1044119720459
 21
150.551870250702
 31
0.0
  0
ARC
  5
46
330
1F
100
AcDbEntity
  8
WIDOCZNA
100
AcDbCircle
 10
125.1044119720459
 20
153.549070250702
 30
0.0
 40
2.997199999999992
100
AcDbArc
 50
270.0
 51
0.0
  0
CIRCLE
  5
47
330
1F
100
AcDbEntity
  8
WIDOCZNA
100
AcDbCircle
 10
98.8741723320459
 20
154.311869390702
 30
0.0
 40
2.0
  0
CIRCLE
  5
48
330
1F
100
AcDbEntity
  8
WIDOCZNA
100
AcDbCircle
 10
94.37417117204589
 20
154.311869390702
 30
0.0
 40
2.0
  0
LINE
  5
49
330
1F
100
AcDbEntity
  8
WIDOCZNA
100
AcDbLine
 10
68.3608119720459
 20
162.312070250702
 30
0.0
 11
70.4738906759809
 21
162.312070250702
 31
0.0
  0
LINE
  5
4A
330
1F
100
AcDbEntity
  8
WIDOCZNA
100
AcDbLine
 10
125.1044119720459
 20
163.251870250702
 30
0.0
 11
72.65341197204589
 21
163.251870250702
 31
0.0
  0
CIRCLE
  5
4B
330
1F
100
AcDbEntity
  8
WIDOCZNA
100
AcDbCircle
 10
109.4741765320459
 20
157.331869390702
 30
0.0
 40
4.25
  0
LINE
  5
4C
330
1F
100
AcDbEntity
  8
WIDOCZNA
100
AcDbLine
 10
127.2839332681109
 20
162.312070250702
 30
0.0
 11
129.3970119720459
 21
162.312070250702
 31
0.0
  0
CIRCLE
  5
4D
330
1F
100
AcDbEntity
  8
WIDOCZNA
100
AcDbCircle
 10
76.57417629204588
 20
157.331869390702
 30
0.0
 40
4.25
  0
LINE
  5
4E
330
1F
100
AcDbEntity
  8
WIDOCZNA
100
AcDbLine
 10
69.6562119720459
 20
160.254670250702
 30
0.0
 11
69.6562119720459
 21
153.549070250702
 31
0.0
  0
CIRCLE
  5
4F
330
1F
100
AcDbEntity
  8
WIDOCZNA
100
AcDbCircle
 10
115.3240073520459
 20
152.751869390702
 30
0.0
 40
0.75
  0
LINE
  5
50
330
1F
100
AcDbEntity
  8
WIDOCZNA
100
AcDbLine
 10
128.1016119720459
 20
153.549070250702
 30
0.0
 11
128.1016119720459
 21
160.254670250702
 31
0.0
  0
ARC
  5
51
330
1F
100
AcDbEntity
  8
WIDOCZNA
100
AcDbCircle
 10
72.65341197204589
 20
160.254670250702
 30
0.0
 40
2.997199999999992
100
AcDbArc
 50
90.0
 51
180.0
  0
CIRCLE
  5
52
330
1F
100
AcDbEntity
  8
WIDOCZNA
100
AcDbCircle
 10
103.3741734920459
 20
154.311869390702
 30
0.0
 40
2.0
  0
CIRCLE
  5
53
330
1F
100
AcDbEntity
  8
WIDOCZNA
100
AcDbCircle
 10
121.1741785320459
 20
157.331869390702
 30
0.0
 40
4.25
  0
LINE
  5
54
330
1F
100
AcDbEntity
  8
WIDOCZNA
100
AcDbLine
 10
129.3970119720459
 20
162.312070250702
 30
0.0
 11
129.3970119720459
 21
152.304470250702
 31
0.0
  0
CIRCLE
  5
55
330
1F
100
AcDbEntity
  8
WIDOCZNA
100
AcDbCircle
 10
82.47400701204589
 20
152.751869390702
 30
0.0
 40
0.75
  0
LINE
  5
56
330
1F
100
AcDbEntity
  8
WIDOCZNA
100
AcDbLine
 10
68.3608119720459
 20
152.304470250702
 30
0.0
 11
68.3608119720459
 21
162.312070250702
 31
0.0
  0
DIMENSION
  5
58
330
1F
100
AcDbEntity
  8
WYMIARY
100
AcDbDimension
  2
D1
 10
0.0
 20
0.0
 30
0.0
 11
114.8685710662842
 21
293.2611292839052
 31
0.0
 70
    32
  1
<>
 53
270.0
  3
ISO-25
100
AcDbAlignedDimension
 13
72.65341197204589
 23
163.251870250702
 33
0.0
 14
72.65341197204589
 24
150.551870250702
 34
0.0
 50
270.0
100
AcDbRotatedDimension
1001
ACAD
1000
DSTYLE
1002
{
1070
    76
1070
     0
1070
    75
1070
     0
1070
   282
1070
     0
1070
   281
1070
     0
1070
    77
1070
     0
1070
    79
1070
     0
1070
    78
1070
     0
1070
   272
1070
     3
1070
   271
1070
     3
1070
   179
1070
     3
1070
   140
1040
2.499554140127389
1070
    71
1070
     0
1070
    72
1070
     0
1070
    48
1040
0.002
1070
    47
1040
0.005
1002
}
  0
DIMENSION
  5
88
330
1F
100
AcDbEntity
  8
WYMIARY
100
AcDbDimension
  2
D2
 10
0.0
 20
0.0
 30
0.0
 11
168.096064352417
 21
322.1225489616396
 31
0.0
 70
    32
  1
<>
  3
ISO-25
100
AcDbAlignedDimension
 13
69.6562119720459
 23
160.254670250702
 33
0.0
 14
128.1016119720459
 24
160.254670250702
 34
0.0
100
AcDbRotatedDimension
1001
ACAD
1000
DSTYLE
1002
{
1070
    76
1070
     0
1070
    75
1070
     0
1070
   282
1070
     0
1070
   281
1070
     0
1070
    77
1070
     0
1070
    79
1070
     0
1070
    78
1070
     0
1070
   272
1070
     3
1070
   271
1070
     3
1070
   179
1070
     3
1070
   140
1040
2.499554140127389
1070
    71
1070
     0
1070
    72
1070
     0
1070
    48
1040
0.002
1070
    47
1040
0.005
1002
}
  0
DIMENSION
  5
95
330
1F
100
AcDbEntity
  8
WYMIARY
100
AcDbDimension
  2
D3
 10
0.0
 20
0.0
 30
0.0
 11
177.9013011688232
 21
316.009130382538
 31
0.0
 70
    32
  1
<>
  3
ISO-25
100
AcDbAlignedDimension
 13
105.2241765320459
 23
157.331869390702
 33
0.0
 14
113.7241765320459
 24
157.331869390702
 34
0.0
100
AcDbRotatedDimension
1001
ACAD
1000
DSTYLE
1002
{
1070
    76
1070
     0
1070
    75
1070
     0
1070
   282
1070
     0
1070
   281
1070
     0
1070
    77
1070
     0
1070
    79
1070
     0
1070
    78
1070
     0
1070
   272
1070
     3
1070
   271
1070
     3
1070
   179
1070
     3
1070
   140
1040
2.499554140127389
1070
    71
1070
     0
1070
    72
1070
     0
1070
    48
1040
0.002
1070
    47
1040
0.005
1002
}
  0
DIMENSION
  5
A2
330
1F
100
AcDbEntity
  8
WYMIARY
100
AcDbDimension
  2
D4
 10
0.0
 20
0.0
 30
0.0
 11
162.7089488739014
 21
295.0961970329287
 31
0.0
 70
    32
  1
<>
  3
ISO-25
100
AcDbAlignedDimension
 13
96.37417117204589
 23
154.311869390702
 33
0.0
 14
92.37417117204589
 24
154.311869390702
 34
0.0
100
AcDbRotatedDimension
1001
ACAD
1000
DSTYLE
1002
{
1070
    76
1070
     0
1070
    75
1070
     0
1070
   282
1070
     0
1070
   281
1070
     0
1070
    77
1070
     0
1070
    79
1070
     0
1070
    78
1070
     0
1070
   272
1070
     3
1070
   271
1070
     3
1070
   179
1070
     3
1070
   140
1040
2.499554140127389
1070
    71
1070
     0
1070
    72
1070
     0
1070
    48
1040
0.002
1070
    47
1040
0.005
1002
}
  0
DIMENSION
  5
AF
330
1F
100
AcDbEntity
  8
WYMIARY
100
AcDbDimension
  2
D5
 10
0.0
 20
0.0
 30
0.0
 11
183.4343211883545
 21
298.0033778190615
 31
0.0
 70
    32
  1
<>
  3
ISO-25
100
AcDbAlignedDimension
 13
116.0740073520459
 23
152.751869390702
 33
0.0
 14
114.5740073520459
 24
152.751869390702
 34
0.0
100
AcDbRotatedDimension
1001
ACAD
1000
DSTYLE
1002
{
1070
    76
1070
     0
1070
    75
1070
     0
1070
   282
1070
     0
1070
   281
1070
     0
1070
    77
1070
     0
1070
    79
1070
     0
1070
    78
1070
     0
1070
   272
1070
     3
1070
   271
1070
     3
1070
   179
1070
     3
1070
   140
1040
2.499554140127389
1070
    71
1070
     0
1070
    72
1070
     0
1070
    48
1040
0.002
1070
    47
1040
0.005
1002
}
  0
LINE
  5
BC
330
1F
100
AcDbEntity
  8
WIDOCZNA
100
AcDbLine
 10
129.3970119720459
 20
204.339662451172
 30
0.0
 11
127.8309810028979
 21
204.339662451172
 31
0.0
  0
LINE
  5
BD
330
1F
100
AcDbEntity
  8
WIDOCZNA
100
AcDbLine
 10
72.65341197204589
 20
205.330262451172
 30
0.0
 11
125.1044119720459
 21
205.330262451172
 31
0.0
  0
LINE
  5
BE
330
1F
100
AcDbEntity
  8
WIDOCZNA
100
AcDbLine
 10
72.8566119720459
 20
205.330262451172
 30
0.0
 11
72.8566119720459
 21
193.341462451172
 31
0.0
  0
LINE
  5
BF
330
1F
100
AcDbEntity
  8
WIDOCZNA
100
AcDbLine
 10
69.6562119720459
 20
207.819462451172
 30
0.0
 11
72.65341197204589
 21
207.819462451172
 31
0.0
  0
CIRCLE
  5
C0
330
1F
100
AcDbEntity
  8
WIDOCZNA
100
AcDbCircle
 10
127.1491119720459
 20
193.341462451172
 30
0.0
 40
1.65100000000001
  0
ARC
  5
C1
330
1F
100
AcDbEntity
  8
WIDOCZNA
100
AcDbCircle
 10
127.1491119720459
 20
193.341462451172
 30
0.0
 40
2.247899999999987
100
AcDbArc
 50
180.0
 51
0.0
  0
LINE
  5
C2
330
1F
100
AcDbEntity
  8
WIDOCZNA
100
AcDbLine
 10
124.9012119720459
 20
193.341462451172
 30
0.0
 11
124.9012119720459
 21
205.330262451172
 31
0.0
  0
LINE
  5
C3
330
1F
100
AcDbEntity
  8
WIDOCZNA
100
AcDbLine
 10
129.3970119720459
 20
204.339662451172
 30
0.0
 11
129.3970119720459
 21
193.341462451172
 31
0.0
  0
LINE
  5
C4
330
1F
100
AcDbEntity
  8
WIDOCZNA
100
AcDbLine
 10
69.6562119720459
 20
206.003362451172
 30
0.0
 11
69.6562119720459
 21
204.339662451172
 31
0.0
  0
LINE
  5
C5
330
1F
100
AcDbEntity
  8
WIDOCZNA
100
AcDbLine
 10
125.1044119720459
 20
206.003362451172
 30
0.0
 11
128.1016119720459
 21
206.003362451172
 31
0.0
  0
LINE
  5
C6
330
1F
100
AcDbEntity
  8
WIDOCZNA
100
AcDbLine
 10
69.9268429411939
 20
204.339662451172
 30
0.0
 11
68.3608119720459
 21
204.339662451172
 31
0.0
  0
ARC
  5
C7
330
1F
100
AcDbEntity
  8
WIDOCZNA
100
AcDbCircle
 10
70.6087119720459
 20
193.341462451172
 30
0.0
 40
2.247900000000001
100
AcDbArc
 50
180.0
 51
0.0
  0
LINE
  5
C8
330
1F
100
AcDbEntity
  8
WIDOCZNA
100
AcDbLine
 10
128.1016119720459
 20
207.146362451172
 30
0.0
 11
128.1016119720459
 21
207.819462451172
 31
0.0
  0
LINE
  5
C9
330
1F
100
AcDbEntity
  8
WIDOCZNA
100
AcDbLine
 10
72.65341197204589
 20
207.819462451172
 30
0.0
 11
125.1044119720459
 21
207.819462451172
 31
0.0
  0
CIRCLE
  5
CA
330
1F
100
AcDbEntity
  8
WIDOCZNA
100
AcDbCircle
 10
70.6087119720459
 20
193.341462451172
 30
0.0
 40
1.650999999999996
  0
LINE
  5
CB
330
1F
100
AcDbEntity
  8
WIDOCZNA
100
AcDbLine
 10
125.1044119720459
 20
207.819462451172
 30
0.0
 11
128.1016119720459
 21
207.819462451172
 31
0.0
  0
LINE
  5
CC
330
1F
100
AcDbEntity
  8
WIDOCZNA
100
AcDbLine
 10
127.8309810028979
 20
204.339662451172
 30
0.0
 11
127.8309810028979
 21
205.330262451172
 31
0.0
  0
LINE
  5
CD
330
1F
100
AcDbEntity
  8
WIDOCZNA
100
AcDbLine
 10
72.65341197204589
 20
207.146362451172
 30
0.0
 11
69.6562119720459
 21
207.146362451172
 31
0.0
  0
LINE
  5
CE
330
1F
100
AcDbEntity
  8
WIDOCZNA
100
AcDbLine
 10
128.1016119720459
 20
204.339662451172
 30
0.0
 11
128.1016119720459
 21
206.003362451172
 31
0.0
  0
LINE
  5
CF
330
1F
100
AcDbEntity
  8
WIDOCZNA
100
AcDbLine
 10
127.3777119720459
 20
206.003362451172
 30
0.0
 11
127.3777119720459
 21
207.146362451172
 31
0.0
  0
LINE
  5
D0
330
1F
100
AcDbEntity
  8
WIDOCZNA
100
AcDbLine
 10
68.3608119720459
 20
193.341462451172
 30
0.0
 11
68.3608119720459
 21
204.339662451172
 31
0.0
  0
LINE
  5
D1
330
1F
100
AcDbEntity
  8
WIDOCZNA
100
AcDbLine
 10
125.1044119720459
 20
205.330262451172
 30
0.0
 11
127.8309810028977
 21
205.330262451172
 31
0.0
  0
LINE
  5
D2
330
1F
100
AcDbEntity
  8
WIDOCZNA
100
AcDbLine
 10
69.9268429411939
 20
205.330262451172
 30
0.0
 11
69.9268429411939
 21
204.339662451172
 31
0.0
  0
LINE
  5
D3
330
1F
100
AcDbEntity
  8
WIDOCZNA
100
AcDbLine
 10
69.6562119720459
 20
206.003362451172
 30
0.0
 11
72.65341197204589
 21
206.003362451172
 31
0.0
  0
LINE
  5
D4
330
1F
100
AcDbEntity
  8
WIDOCZNA
100
AcDbLine
 10
125.1044119720459
 20
206.003362451172
 30
0.0
 11
72.65341197204589
 21
206.003362451172
 31
0.0
  0
LINE
  5
D5
330
1F
100
AcDbEntity
  8
WIDOCZNA
100
AcDbLine
 10
70.3801119720459
 20
206.003362451172
 30
0.0
 11
70.3801119720459
 21
207.146362451172
 31
0.0
  0
LINE
  5
D6
330
1F
100
AcDbEntity
  8
WIDOCZNA
100
AcDbLine
 10
72.65341197204589
 20
207.146362451172
 30
0.0
 11
125.1044119720459
 21
207.146362451172
 31
0.0
  0
LINE
  5
D7
330
1F
100
AcDbEntity
  8
WIDOCZNA
100
AcDbLine
 10
69.6562119720459
 20
207.819462451172
 30
0.0
 11
69.6562119720459
 21
207.146362451172
 31
0.0
  0
CIRCLE
  5
D8
330
1F
100
AcDbEntity
  8
WIDOCZNA
100
AcDbCircle
 10
127.1491119720459
 20
193.341462451172
 30
0.0
 40
1.007110000000011
  0
LINE
  5
D9
330
1F
100
AcDbEntity
  8
WIDOCZNA
100
AcDbLine
 10
69.92684294119408
 20
205.330262451172
 30
0.0
 11
72.65341197204589
 21
205.330262451172
 31
0.0
  0
LINE
  5
DA
330
1F
100
AcDbEntity
  8
WIDOCZNA
100
AcDbLine
 10
128.1016119720459
 20
207.146362451172
 30
0.0
 11
125.1044119720459
 21
207.146362451172
 31
0.0
  0
CIRCLE
  5
DB
330
1F
100
AcDbEntity
  8
WIDOCZNA
100
AcDbCircle
 10
70.6087119720459
 20
193.341462451172
 30
0.0
 40
1.007109999999997
  0
LINE
  5
DD
330
1F
100
AcDbEntity
  8
STYCZNE_KRAWÊDZIE
100
AcDbLine
 10
72.65341197204589
 20
207.146362451172
 30
0.0
 11
72.65341197204589
 21
207.819462451172
 31
0.0
  0
LINE
  5
DE
330
1F
100
AcDbEntity
  8
STYCZNE_KRAWÊDZIE
100
AcDbLine
 10
128.1562219723349
 20
193.341462451172
 30
0.0
 11
128.8001119717569
 21
193.341462451172
 31
0.0
  0
LINE
  5
DF
330
1F
100
AcDbEntity
  8
STYCZNE_KRAWÊDZIE
100
AcDbLine
 10
72.65341197204589
 20
206.003362451172
 30
0.0
 11
72.65341197204589
 21
207.146362451172
 31
0.0
  0
LINE
  5
E0
330
1F
100
AcDbEntity
  8
STYCZNE_KRAWÊDZIE
100
AcDbLine
 10
72.65341197204589
 20
205.330262451172
 30
0.0
 11
72.65341197204589
 21
206.003362451172
 31
0.0
  0
LINE
  5
E1
330
1F
100
AcDbEntity
  8
STYCZNE_KRAWÊDZIE
100
AcDbLine
 10
125.1044119720459
 20
207.819462451172
 30
0.0
 11
125.1044119720459
 21
207.146362451172
 31
0.0
  0
LINE
  5
E2
330
1F
100
AcDbEntity
  8
STYCZNE_KRAWÊDZIE
100
AcDbLine
 10
71.6158219723349
 20
193.341462451172
 30
0.0
 11
72.2597119717569
 21
193.341462451172
 31
0.0
  0
LINE
  5
E3
330
1F
100
AcDbEntity
  8
STYCZNE_KRAWÊDZIE
100
AcDbLine
 10
125.1044119720459
 20
206.003362451172
 30
0.0
 11
125.1044119720459
 21
207.146362451172
 31
0.0
  0
LINE
  5
E4
330
1F
100
AcDbEntity
  8
STYCZNE_KRAWÊDZIE
100
AcDbLine
 10
125.1044119720459
 20
206.003362451172
 30
0.0
 11
125.1044119720459
 21
205.330262451172
 31
0.0
  0
LINE
  5
E5
330
1F
100
AcDbEntity
  8
WIDOCZNA
100
AcDbLine
 10
125.1044119720459
 20
108.473481864929
 30
0.0
 11
72.65341197204589
 21
108.473481864929
 31
0.0
  0
CIRCLE
  5
E6
330
1F
100
AcDbEntity
  8
WIDOCZNA
100
AcDbCircle
 10
70.6087119720459
 20
120.462281864929
 30
0.0
 40
1.007109999999997
  0
LINE
  5
E7
330
1F
100
AcDbEntity
  8
WIDOCZNA
100
AcDbLine
 10
72.65341197204589
 20
107.800381864929
 30
0.0
 11
125.1044119720459
 21
107.800381864929
 31
0.0
  0
LINE
  5
E8
330
1F
100
AcDbEntity
  8
WIDOCZNA
100
AcDbLine
 10
129.3970119720459
 20
120.462281864929
 30
0.0
 11
129.3970119720459
 21
109.464081864929
 31
0.0
  0
LINE
  5
E9
330
1F
100
AcDbEntity
  8
WIDOCZNA
100
AcDbLine
 10
128.1016119720459
 20
105.984281864929
 30
0.0
 11
125.1044119720459
 21
105.984281864929
 31
0.0
  0
LINE
  5
EA
330
1F
100
AcDbEntity
  8
WIDOCZNA
100
AcDbLine
 10
69.6562119720459
 20
109.464081864929
 30
0.0
 11
69.6562119720459
 21
107.800381864929
 31
0.0
  0
LINE
  5
EB
330
1F
100
AcDbEntity
  8
WIDOCZNA
100
AcDbLine
 10
127.3777119720459
 20
107.800381864929
 30
0.0
 11
127.3777119720459
 21
106.657381864929
 31
0.0
  0
ARC
  5
EC
330
1F
100
AcDbEntity
  8
WIDOCZNA
100
AcDbCircle
 10
127.1491119720459
 20
120.462281864929
 30
0.0
 40
2.247900000000016
100
AcDbArc
 50
0.0
 51
180.0
  0
LINE
  5
ED
330
1F
100
AcDbEntity
  8
WIDOCZNA
100
AcDbLine
 10
125.1044119720459
 20
106.657381864929
 30
0.0
 11
128.1016119720459
 21
106.657381864929
 31
0.0
  0
LINE
  5
EE
330
1F
100
AcDbEntity
  8
WIDOCZNA
100
AcDbLine
 10
69.6562119720459
 20
106.657381864929
 30
0.0
 11
72.65341197204589
 21
106.657381864929
 31
0.0
  0
LINE
  5
EF
330
1F
100
AcDbEntity
  8
WIDOCZNA
100
AcDbLine
 10
128.1016119720459
 20
107.800381864929
 30
0.0
 11
125.1044119720459
 21
107.800381864929
 31
0.0
  0
LINE
  5
F0
330
1F
100
AcDbEntity
  8
WIDOCZNA
100
AcDbLine
 10
72.8566119720459
 20
120.462281864929
 30
0.0
 11
72.8566119720459
 21
108.473481864929
 31
0.0
  0
LINE
  5
F1
330
1F
100
AcDbEntity
  8
WIDOCZNA
100
AcDbLine
 10
70.4738906759809
 20
109.464081864929
 30
0.0
 11
70.4738906759809
 21
108.473481864929
 31
0.0
  0
LINE
  5
F2
330
1F
100
AcDbEntity
  8
WIDOCZNA
100
AcDbLine
 10
124.9012119720459
 20
108.473481864929
 30
0.0
 11
124.9012119720459
 21
120.462281864929
 31
0.0
  0
LINE
  5
F3
330
1F
100
AcDbEntity
  8
WIDOCZNA
100
AcDbLine
 10
68.3608119720459
 20
109.464081864929
 30
0.0
 11
68.3608119720459
 21
120.462281864929
 31
0.0
  0
LINE
  5
F4
330
1F
100
AcDbEntity
  8
WIDOCZNA
100
AcDbLine
 10
125.1044119720459
 20
106.657381864929
 30
0.0
 11
72.65341197204589
 21
106.657381864929
 31
0.0
  0
LINE
  5
F5
330
1F
100
AcDbEntity
  8
WIDOCZNA
100
AcDbLine
 10
127.2839332681109
 20
108.473481864929
 30
0.0
 11
127.2839332681109
 21
109.464081864929
 31
0.0
  0
LINE
  5
F6
330
1F
100
AcDbEntity
  8
WIDOCZNA
100
AcDbLine
 10
68.3608119720459
 20
109.464081864929
 30
0.0
 11
70.4738906759809
 21
109.464081864929
 31
0.0
  0
LINE
  5
F7
330
1F
100
AcDbEntity
  8
WIDOCZNA
100
AcDbLine
 10
125.1044119720459
 20
105.984281864929
 30
0.0
 11
72.65341197204589
 21
105.984281864929
 31
0.0
  0
CIRCLE
  5
F8
330
1F
100
AcDbEntity
  8
WIDOCZNA
100
AcDbCircle
 10
70.6087119720459
 20
120.462281864929
 30
0.0
 40
1.650999999999996
  0
LINE
  5
F9
330
1F
100
AcDbEntity
  8
WIDOCZNA
100
AcDbLine
 10
127.2839332681109
 20
109.464081864929
 30
0.0
 11
129.3970119720459
 21
109.464081864929
 31
0.0
  0
LINE
  5
FA
330
1F
100
AcDbEntity
  8
WIDOCZNA
100
AcDbLine
 10
72.65341197204589
 20
107.800381864929
 30
0.0
 11
69.6562119720459
 21
107.800381864929
 31
0.0
  0
LINE
  5
FB
330
1F
100
AcDbEntity
  8
WIDOCZNA
100
AcDbLine
 10
128.1016119720459
 20
107.800381864929
 30
0.0
 11
128.1016119720459
 21
109.464081864929
 31
0.0
  0
LINE
  5
FC
330
1F
100
AcDbEntity
  8
WIDOCZNA
100
AcDbLine
 10
69.6562119720459
 20
106.657381864929
 30
0.0
 11
69.6562119720459
 21
105.984281864929
 31
0.0
  0
LINE
  5
FD
330
1F
100
AcDbEntity
  8
WIDOCZNA
100
AcDbLine
 10
128.1016119720459
 20
105.984281864929
 30
0.0
 11
128.1016119720459
 21
106.657381864929
 31
0.0
  0
CIRCLE
  5
FE
330
1F
100
AcDbEntity
  8
WIDOCZNA
100
AcDbCircle
 10
127.1491119720459
 20
120.462281864929
 30
0.0
 40
1.65100000000001
  0
CIRCLE
  5
FF
330
1F
100
AcDbEntity
  8
WIDOCZNA
100
AcDbCircle
 10
127.1491119720459
 20
120.462281864929
 30
0.0
 40
1.007110000000011
  0
LINE
  5
100
330
1F
100
AcDbEntity
  8
WIDOCZNA
100
AcDbLine
 10
70.3801119720459
 20
107.800381864929
 30
0.0
 11
70.3801119720459
 21
106.657381864929
 31
0.0
  0
LINE
  5
101
330
1F
100
AcDbEntity
  8
WIDOCZNA
100
AcDbLine
 10
127.2839332681108
 20
108.473481864929
 30
0.0
 11
125.1044119720459
 21
108.473481864929
 31
0.0
  0
ARC
  5
102
330
1F
100
AcDbEntity
  8
WIDOCZNA
100
AcDbCircle
 10
70.6087119720459
 20
120.462281864929
 30
0.0
 40
2.247900000000001
100
AcDbArc
 50
0.0
 51
180.0
  0
LINE
  5
103
330
1F
100
AcDbEntity
  8
WIDOCZNA
100
AcDbLine
 10
72.65341197204589
 20
105.984281864929
 30
0.0
 11
69.6562119720459
 21
105.984281864929
 31
0.0
  0
LINE
  5
104
330
1F
100
AcDbEntity
  8
WIDOCZNA
100
AcDbLine
 10
72.65341197204589
 20
108.473481864929
 30
0.0
 11
70.473890675981
 21
108.473481864929
 31
0.0
  0
LINE
  5
105
330
1F
100
AcDbEntity
  8
STYCZNE_KRAWÊDZIE
100
AcDbLine
 10
128.1562219723349
 20
120.462281864929
 30
0.0
 11
128.8001119717569
 21
120.462281864929
 31
0.0
  0
LINE
  5
106
330
1F
100
AcDbEntity
  8
STYCZNE_KRAWÊDZIE
100
AcDbLine
 10
72.65341197204589
 20
105.984281864929
 30
0.0
 11
72.65341197204589
 21
106.657381864929
 31
0.0
  0
LINE
  5
107
330
1F
100
AcDbEntity
  8
STYCZNE_KRAWÊDZIE
100
AcDbLine
 10
72.65341197204589
 20
107.800381864929
 30
0.0
 11
72.65341197204589
 21
108.473481864929
 31
0.0
  0
LINE
  5
108
330
1F
100
AcDbEntity
  8
STYCZNE_KRAWÊDZIE
100
AcDbLine
 10
125.1044119720459
 20
106.657381864929
 30
0.0
 11
125.1044119720459
 21
105.984281864929
 31
0.0
  0
LINE
  5
109
330
1F
100
AcDbEntity
  8
STYCZNE_KRAWÊDZIE
100
AcDbLine
 10
72.65341197204589
 20
107.800381864929
 30
0.0
 11
72.65341197204589
 21
106.657381864929
 31
0.0
  0
LINE
  5
10A
330
1F
100
AcDbEntity
  8
STYCZNE_KRAWÊDZIE
100
AcDbLine
 10
125.1044119720459
 20
107.800381864929
 30
0.0
 11
125.1044119720459
 21
106.657381864929
 31
0.0
  0
LINE
  5
10B
330
1F
100
AcDbEntity
  8
STYCZNE_KRAWÊDZIE
100
AcDbLine
 10
125.1044119720459
 20
108.473481864929
 30
0.0
 11
125.1044119720459
 21
107.800381864929
 31
0.0
  0
LINE
  5
10C
330
1F
100
AcDbEntity
  8
STYCZNE_KRAWÊDZIE
100
AcDbLine
 10
71.6158219723349
 20
120.462281864929
 30
0.0
 11
72.2597119717569
 21
120.462281864929
 31
0.0
  0
LINE
  5
10D
330
1F
100
AcDbEntity
  8
WIDOCZNA
100
AcDbLine
 10
173.291502145386
 20
150.551870250702
 30
0.0
 11
173.964602145386
 21
150.551870250702
 31
0.0
  0
LINE
  5
10E
330
1F
100
AcDbEntity
  8
WIDOCZNA
100
AcDbLine
 10
173.964602145386
 20
153.549070250702
 30
0.0
 11
173.964602145386
 21
150.551870250702
 31
0.0
  0
LINE
  5
10F
330
1F
100
AcDbEntity
  8
WIDOCZNA
100
AcDbLine
 10
173.291502145386
 20
160.254670250702
 30
0.0
 11
173.291502145386
 21
163.251870250702
 31
0.0
  0
LINE
  5
110
330
1F
100
AcDbEntity
  8
WIDOCZNA
100
AcDbLine
 10
172.148502145386
 20
153.549070250702
 30
0.0
 11
172.148502145386
 21
160.254670250702
 31
0.0
  0
LINE
  5
111
330
1F
100
AcDbEntity
  8
WIDOCZNA
100
AcDbLine
 10
172.148502145386
 20
151.275770250702
 30
0.0
 11
173.291502145386
 21
151.275770250702
 31
0.0
  0
LINE
  5
112
330
1F
100
AcDbEntity
  8
WIDOCZNA
100
AcDbLine
 10
170.484802145386
 20
162.312070250702
 30
0.0
 11
171.475402145386
 21
162.312070250702
 31
0.0
  0
LINE
  5
113
330
1F
100
AcDbEntity
  8
WIDOCZNA
100
AcDbLine
 10
159.486602145386
 20
152.304470250702
 30
0.0
 11
157.238702145386
 21
152.304470250702
 31
0.0
  0
LINE
  5
114
330
1F
100
AcDbEntity
  8
WIDOCZNA
100
AcDbLine
 10
173.964602145386
 20
163.251870250702
 30
0.0
 11
173.291502145386
 21
163.251870250702
 31
0.0
  0
LINE
  5
115
330
1F
100
AcDbEntity
  8
WIDOCZNA
100
AcDbLine
 10
171.475402145386
 20
150.551870250702
 30
0.0
 11
172.148502145386
 21
150.551870250702
 31
0.0
  0
LINE
  5
116
330
1F
100
AcDbEntity
  8
WIDOCZNA
100
AcDbLine
 10
173.291502145386
 20
160.254670250702
 30
0.0
 11
173.291502145386
 21
153.549070250702
 31
0.0
  0
LINE
  5
117
330
1F
100
AcDbEntity
  8
WIDOCZNA
100
AcDbLine
 10
170.484802145386
 20
162.312070250702
 30
0.0
 11
159.486602145386
 21
162.312070250702
 31
0.0
  0
LINE
  5
118
330
1F
100
AcDbEntity
  8
WIDOCZNA
100
AcDbLine
 10
172.148502145386
 20
163.251870250702
 30
0.0
 11
171.475402145386
 21
163.251870250702
 31
0.0
  0
LINE
  5
119
330
1F
100
AcDbEntity
  8
WIDOCZNA
100
AcDbLine
 10
173.291502145386
 20
150.551870250702
 30
0.0
 11
173.291502145386
 21
153.549070250702
 31
0.0
  0
LINE
  5
11A
330
1F
100
AcDbEntity
  8
WIDOCZNA
100
AcDbLine
 10
159.486602145386
 20
152.304470250702
 30
0.0
 11
170.484802145386
 21
152.304470250702
 31
0.0
  0
LINE
  5
11B
330
1F
100
AcDbEntity
  8
WIDOCZNA
100
AcDbLine
 10
172.148502145386
 20
162.527970250702
 30
0.0
 11
173.291502145386
 21
162.527970250702
 31
0.0
  0
LINE
  5
11C
330
1F
100
AcDbEntity
  8
WIDOCZNA
100
AcDbLine
 10
172.148502145386
 20
163.251870250702
 30
0.0
 11
172.148502145386
 21
160.254670250702
 31
0.0
  0
LINE
  5
11D
330
1F
100
AcDbEntity
  8
WIDOCZNA
100
AcDbLine
 10
171.475402145386
 20
152.304470250702
 30
0.0
 11
170.484802145386
 21
152.304470250702
 31
0.0
  0
LINE
  5
11E
330
1F
100
AcDbEntity
  8
WIDOCZNA
100
AcDbLine
 10
172.148502145386
 20
153.549070250702
 30
0.0
 11
172.148502145386
 21
150.551870250702
 31
0.0
  0
LINE
  5
11F
330
1F
100
AcDbEntity
  8
WIDOCZNA
100
AcDbLine
 10
173.964602145386
 20
160.254670250702
 30
0.0
 11
173.964602145386
 21
153.549070250702
 31
0.0
  0
LINE
  5
120
330
1F
100
AcDbEntity
  8
WIDOCZNA
100
AcDbLine
 10
157.238702145386
 20
162.312070250702
 30
0.0
 11
159.486602145386
 21
162.312070250702
 31
0.0
  0
LINE
  5
121
330
1F
100
AcDbEntity
  8
WIDOCZNA
100
AcDbLine
 10
173.964602145386
 20
163.251870250702
 30
0.0
 11
173.964602145386
 21
160.254670250702
 31
0.0
  0
LINE
  5
122
330
1F
100
AcDbEntity
  8
WIDOCZNA
100
AcDbLine
 10
171.475402145386
 20
162.3120702507019
 30
0.0
 11
171.475402145386
 21
163.251870250702
 31
0.0
  0
LINE
  5
123
330
1F
100
AcDbEntity
  8
WIDOCZNA
100
AcDbLine
 10
171.475402145386
 20
150.551870250702
 30
0.0
 11
171.475402145386
 21
152.3044702507021
 31
0.0
  0
LINE
  5
124
330
1F
100
AcDbEntity
  8
WIDOCZNA
100
AcDbLine
 10
170.484802145386
 20
152.304470250702
 30
0.0
 11
170.484802145386
 21
162.312070250702
 31
0.0
  0
LINE
  5
125
330
1F
100
AcDbEntity
  8
WIDOCZNA
100
AcDbLine
 10
157.238702145386
 20
152.304470250702
 30
0.0
 11
157.238702145386
 21
162.312070250702
 31
0.0
  0
LINE
  5
126
330
1F
100
AcDbEntity
  8
STYCZNE_KRAWÊDZIE
100
AcDbLine
 10
159.486602145386
 20
152.304470250702
 30
0.0
 11
159.486602145386
 21
162.312070250702
 31
0.0
  0
LINE
  5
127
330
1F
100
AcDbEntity
  8
STYCZNE_KRAWÊDZIE
100
AcDbLine
 10
170.484802145386
 20
160.254670250702
 30
0.0
 11
172.148502145386
 21
160.254670250702
 31
0.0
  0
LINE
  5
128
330
1F
100
AcDbEntity
  8
STYCZNE_KRAWÊDZIE
100
AcDbLine
 10
172.148502145386
 20
153.549070250702
 30
0.0
 11
170.484802145386
 21
153.549070250702
 31
0.0
  0
LINE
  5
129
330
1F
100
AcDbEntity
  8
STYCZNE_KRAWÊDZIE
100
AcDbLine
 10
173.291502145386
 20
160.254670250702
 30
0.0
 11
173.964602145386
 21
160.254670250702
 31
0.0
  0
LINE
  5
12A
330
1F
100
AcDbEntity
  8
STYCZNE_KRAWÊDZIE
100
AcDbLine
 10
172.148502145386
 20
160.254670250702
 30
0.0
 11
173.291502145386
 21
160.254670250702
 31
0.0
  0
LINE
  5
12B
330
1F
100
AcDbEntity
  8
STYCZNE_KRAWÊDZIE
100
AcDbLine
 10
172.148502145386
 20
153.549070250702
 30
0.0
 11
173.291502145386
 21
153.549070250702
 31
0.0
  0
LINE
  5
12C
330
1F
100
AcDbEntity
  8
STYCZNE_KRAWÊDZIE
100
AcDbLine
 10
173.964602145386
 20
153.549070250702
 30
0.0
 11
173.291502145386
 21
153.549070250702
 31
0.0
  0
LINE
  5
12D
330
1F
100
AcDbEntity
  8
WIDOCZNA
100
AcDbLine
 10
38.2712227523804
 20
162.312070250702
 30
0.0
 11
27.2730227523804
 21
162.312070250702
 31
0.0
  0
LINE
  5
12E
330
1F
100
AcDbEntity
  8
WIDOCZNA
100
AcDbLine
 10
23.7932227523804
 20
160.254670250702
 30
0.0
 11
23.7932227523804
 21
163.251870250702
 31
0.0
  0
LINE
  5
12F
330
1F
100
AcDbEntity
  8
WIDOCZNA
100
AcDbLine
 10
40.5191227523804
 20
152.304470250702
 30
0.0
 11
38.2712227523804
 21
152.304470250702
 31
0.0
  0
LINE
  5
130
330
1F
100
AcDbEntity
  8
WIDOCZNA
100
AcDbLine
 10
38.2712227523804
 20
162.312070250702
 30
0.0
 11
40.5191227523804
 21
162.312070250702
 31
0.0
  0
LINE
  5
131
330
1F
100
AcDbEntity
  8
WIDOCZNA
100
AcDbLine
 10
24.4663227523804
 20
163.251870250702
 30
0.0
 11
24.4663227523804
 21
160.254670250702
 31
0.0
  0
LINE
  5
132
330
1F
100
AcDbEntity
  8
WIDOCZNA
100
AcDbLine
 10
27.2730227523804
 20
152.304470250702
 30
0.0
 11
38.2712227523804
 21
152.304470250702
 31
0.0
  0
LINE
  5
133
330
1F
100
AcDbEntity
  8
WIDOCZNA
100
AcDbLine
 10
25.6093227523804
 20
160.254670250702
 30
0.0
 11
25.6093227523804
 21
163.251870250702
 31
0.0
  0
LINE
  5
134
330
1F
100
AcDbEntity
  8
WIDOCZNA
100
AcDbLine
 10
25.6093227523804
 20
150.551870250702
 30
0.0
 11
25.6093227523804
 21
153.549070250702
 31
0.0
  0
LINE
  5
135
330
1F
100
AcDbEntity
  8
WIDOCZNA
100
AcDbLine
 10
23.7932227523804
 20
150.551870250702
 30
0.0
 11
23.7932227523804
 21
153.549070250702
 31
0.0
  0
LINE
  5
136
330
1F
100
AcDbEntity
  8
WIDOCZNA
100
AcDbLine
 10
27.2730227523804
 20
152.304470250702
 30
0.0
 11
26.2824227523804
 21
152.304470250702
 31
0.0
  0
LINE
  5
137
330
1F
100
AcDbEntity
  8
WIDOCZNA
100
AcDbLine
 10
25.6093227523804
 20
160.254670250702
 30
0.0
 11
25.6093227523804
 21
153.549070250702
 31
0.0
  0
LINE
  5
138
330
1F
100
AcDbEntity
  8
WIDOCZNA
100
AcDbLine
 10
26.2824227523804
 20
162.312070250702
 30
0.0
 11
27.2730227523804
 21
162.312070250702
 31
0.0
  0
LINE
  5
139
330
1F
100
AcDbEntity
  8
WIDOCZNA
100
AcDbLine
 10
24.4663227523804
 20
163.251870250702
 30
0.0
 11
23.7932227523804
 21
163.251870250702
 31
0.0
  0
LINE
  5
13A
330
1F
100
AcDbEntity
  8
WIDOCZNA
100
AcDbLine
 10
23.7932227523804
 20
150.551870250702
 30
0.0
 11
24.4663227523804
 21
150.551870250702
 31
0.0
  0
LINE
  5
13B
330
1F
100
AcDbEntity
  8
WIDOCZNA
100
AcDbLine
 10
24.4663227523804
 20
153.549070250702
 30
0.0
 11
24.4663227523804
 21
160.254670250702
 31
0.0
  0
LINE
  5
13C
330
1F
100
AcDbEntity
  8
WIDOCZNA
100
AcDbLine
 10
26.2824227523804
 20
152.3044702507021
 30
0.0
 11
26.2824227523804
 21
150.551870250702
 31
0.0
  0
LINE
  5
13D
330
1F
100
AcDbEntity
  8
WIDOCZNA
100
AcDbLine
 10
25.6093227523804
 20
162.527970250702
 30
0.0
 11
24.4663227523804
 21
162.527970250702
 31
0.0
  0
LINE
  5
13E
330
1F
100
AcDbEntity
  8
WIDOCZNA
100
AcDbLine
 10
26.2824227523804
 20
163.251870250702
 30
0.0
 11
25.6093227523804
 21
163.251870250702
 31
0.0
  0
LINE
  5
13F
330
1F
100
AcDbEntity
  8
WIDOCZNA
100
AcDbLine
 10
26.2824227523804
 20
163.251870250702
 30
0.0
 11
26.2824227523804
 21
162.3120702507019
 31
0.0
  0
LINE
  5
140
330
1F
100
AcDbEntity
  8
WIDOCZNA
100
AcDbLine
 10
23.7932227523804
 20
153.549070250702
 30
0.0
 11
23.7932227523804
 21
160.254670250702
 31
0.0
  0
LINE
  5
141
330
1F
100
AcDbEntity
  8
WIDOCZNA
100
AcDbLine
 10
25.6093227523804
 20
151.275770250702
 30
0.0
 11
24.4663227523804
 21
151.275770250702
 31
0.0
  0
LINE
  5
142
330
1F
100
AcDbEntity
  8
WIDOCZNA
100
AcDbLine
 10
27.2730227523804
 20
162.312070250702
 30
0.0
 11
27.2730227523804
 21
152.304470250702
 31
0.0
  0
LINE
  5
143
330
1F
100
AcDbEntity
  8
WIDOCZNA
100
AcDbLine
 10
25.6093227523804
 20
150.551870250702
 30
0.0
 11
26.2824227523804
 21
150.551870250702
 31
0.0
  0
LINE
  5
144
330
1F
100
AcDbEntity
  8
WIDOCZNA
100
AcDbLine
 10
24.4663227523804
 20
153.549070250702
 30
0.0
 11
24.4663227523804
 21
150.551870250702
 31
0.0
  0
LINE
  5
145
330
1F
100
AcDbEntity
  8
WIDOCZNA
100
AcDbLine
 10
40.5191227523804
 20
152.304470250702
 30
0.0
 11
40.5191227523804
 21
162.312070250702
 31
0.0
  0
LINE
  5
146
330
1F
100
AcDbEntity
  8
STYCZNE_KRAWÊDZIE
100
AcDbLine
 10
25.6093227523804
 20
160.254670250702
 30
0.0
 11
24.4663227523804
 21
160.254670250702
 31
0.0
  0
LINE
  5
147
330
1F
100
AcDbEntity
  8
STYCZNE_KRAWÊDZIE
100
AcDbLine
 10
38.2712227523804
 20
152.304470250702
 30
0.0
 11
38.2712227523804
 21
162.312070250702
 31
0.0
  0
LINE
  5
148
330
1F
100
AcDbEntity
  8
STYCZNE_KRAWÊDZIE
100
AcDbLine
 10
24.4663227523804
 20
153.549070250702
 30
0.0
 11
23.7932227523804
 21
153.549070250702
 31
0.0
  0
LINE
  5
149
330
1F
100
AcDbEntity
  8
STYCZNE_KRAWÊDZIE
100
AcDbLine
 10
27.2730227523804
 20
153.549070250702
 30
0.0
 11
25.6093227523804
 21
153.549070250702
 31
0.0
  0
LINE
  5
14A
330
1F
100
AcDbEntity
  8
STYCZNE_KRAWÊDZIE
100
AcDbLine
 10
25.6093227523804
 20
153.549070250702
 30
0.0
 11
24.4663227523804
 21
153.549070250702
 31
0.0
  0
LINE
  5
14B
330
1F
100
AcDbEntity
  8
STYCZNE_KRAWÊDZIE
100
AcDbLine
 10
25.6093227523804
 20
160.254670250702
 30
0.0
 11
27.2730227523804
 21
160.254670250702
 31
0.0
  0
LINE
  5
14C
330
1F
100
AcDbEntity
  8
STYCZNE_KRAWÊDZIE
100
AcDbLine
 10
23.7932227523804
 20
160.254670250702
 30
0.0
 11
24.4663227523804
 21
160.254670250702
 31
0.0
  0
LINE
  5
14D
330
1F
100
AcDbEntity
  8
WIDOCZNA
100
AcDbLine
 10
262.842496133423
 20
152.304470250702
 30
0.0
 11
262.842496133423
 21
162.312070250702
 31
0.0
  0
CIRCLE
  5
14E
330
1F
100
AcDbEntity
  8
WIDOCZNA
100
AcDbCircle
 10
215.879300753423
 20
152.751869390702
 30
0.0
 40
0.75
  0
LINE
  5
14F
330
1F
100
AcDbEntity
  8
WIDOCZNA
100
AcDbLine
 10
206.098896133423
 20
163.251870250702
 30
0.0
 11
258.549896133423
 21
163.251870250702
 31
0.0
  0
LINE
  5
150
330
1F
100
AcDbEntity
  8
WIDOCZNA
100
AcDbLine
 10
258.3466961334231
 20
152.304470250702
 30
0.0
 11
258.3466961334231
 21
155.2722054553322
 31
0.0
  0
LINE
  5
151
330
1F
100
AcDbEntity
  8
WIDOCZNA
100
AcDbLine
 10
258.549896133423
 20
150.551870250702
 30
0.0
 11
206.098896133423
 21
150.551870250702
 31
0.0
  0
LINE
  5
152
330
1F
100
AcDbEntity
  8
WIDOCZNA
100
AcDbLine
 10
206.302096133423
 20
159.3743487020101
 30
0.0
 11
206.302096133423
 21
162.312070250702
 31
0.0
  0
LINE
  5
153
330
1F
100
AcDbEntity
  8
WIDOCZNA
100
AcDbLine
 10
206.302096133423
 20
152.304470250702
 30
0.0
 11
201.806296133423
 21
152.304470250702
 31
0.0
  0
LINE
  5
154
330
1F
100
AcDbEntity
  8
WIDOCZNA
100
AcDbLine
 10
201.806296133423
 20
162.312070250702
 30
0.0
 11
206.302096133423
 21
162.312070250702
 31
0.0
  0
CIRCLE
  5
155
330
1F
100
AcDbEntity
  8
WIDOCZNA
100
AcDbCircle
 10
248.729301093423
 20
152.751869390702
 30
0.0
 40
0.75
  0
LINE
  5
156
330
1F
100
AcDbEntity
  8
WIDOCZNA
100
AcDbLine
 10
258.3466961334231
 20
159.3915333260718
 30
0.0
 11
258.3466961334231
 21
162.312070250702
 31
0.0
  0
LINE
  5
157
330
1F
100
AcDbEntity
  8
WIDOCZNA
100
AcDbLine
 10
201.806296133423
 20
152.304470250702
 30
0.0
 11
201.806296133423
 21
162.312070250702
 31
0.0
  0
CIRCLE
  5
158
330
1F
100
AcDbEntity
  8
WIDOCZNA
100
AcDbCircle
 10
227.829134613423
 20
154.311869390702
 30
0.0
 40
2.0
  0
LINE
  5
159
330
1F
100
AcDbEntity
  8
WIDOCZNA
100
AcDbLine
 10
262.842496133423
 20
152.304470250702
 30
0.0
 11
258.3466961334231
 21
152.304470250702
 31
0.0
  0
ARC
  5
15A
330
1F
100
AcDbEntity
  8
WIDOCZNA
100
AcDbCircle
 10
210.029129573423
 20
157.331869390702
 30
0.0
 40
4.250000000000014
100
AcDbArc
 50
208.7235095876188
 51
151.2764904123811
  0
ARC
  5
15B
330
1F
100
AcDbEntity
  8
WIDOCZNA
100
AcDbCircle
 10
210.029129573423
 20
157.331869390702
 30
0.0
 40
4.250000000000014
100
AcDbArc
 50
151.2764904123811
 51
208.7235095876188
  0
CIRCLE
  5
15C
330
1F
100
AcDbEntity
  8
WIDOCZNA
100
AcDbCircle
 10
242.929129813423
 20
157.331869390702
 30
0.0
 40
4.25
  0
ARC
  5
15D
330
1F
100
AcDbEntity
  8
WIDOCZNA
100
AcDbCircle
 10
206.098896133423
 20
153.549070250702
 30
0.0
 40
2.997199999999987
100
AcDbArc
 50
204.53532803474
 51
270.0
  0
CIRCLE
  5
15E
330
1F
100
AcDbEntity
  8
WIDOCZNA
100
AcDbCircle
 10
232.329135773423
 20
154.311869390702
 30
0.0
 40
2.0
  0
CIRCLE
  5
15F
330
1F
100
AcDbEntity
  8
WIDOCZNA
100
AcDbCircle
 10
236.829136933423
 20
154.311869390702
 30
0.0
 40
2.0
  0
LINE
  5
160
330
1F
100
AcDbEntity
  8
WIDOCZNA
100
AcDbLine
 10
206.302096133423
 20
152.304470250702
 30
0.0
 11
206.302096133423
 21
155.2893900793939
 31
0.0
  0
ARC
  5
161
330
1F
100
AcDbEntity
  8
WIDOCZNA
100
AcDbCircle
 10
254.629131813423
 20
157.331869390702
 30
0.0
 40
4.250000000000015
100
AcDbArc
 50
28.98802480098671
 51
331.0119751990132
  0
ARC
  5
162
330
1F
100
AcDbEntity
  8
WIDOCZNA
100
AcDbCircle
 10
206.098896133423
 20
160.254670250702
 30
0.0
 40
2.997199999999992
100
AcDbArc
 50
90.0
 51
136.650986101003
  0
LINE
  5
163
330
1F
100
AcDbEntity
  8
WIDOCZNA
100
AcDbLine
 10
258.3466961334231
 20
162.312070250702
 30
0.0
 11
262.842496133423
 21
162.312070250702
 31
0.0
  0
CIRCLE
  5
164
330
1F
100
AcDbEntity
  8
WIDOCZNA
100
AcDbCircle
 10
221.729131573423
 20
157.331869390702
 30
0.0
 40
4.25
  0
ARC
  5
165
330
1F
100
AcDbEntity
  8
WIDOCZNA
100
AcDbCircle
 10
258.549896133423
 20
160.254670250702
 30
0.0
 40
2.997199999999995
100
AcDbArc
 50
43.34901389899705
 51
90.0
  0
ARC
  5
166
330
1F
100
AcDbEntity
  8
WIDOCZNA
100
AcDbCircle
 10
258.549896133423
 20
153.549070250702
 30
0.0
 40
2.997199999999992
100
AcDbArc
 50
270.0
 51
335.46467196526
  0
ARC
  5
167
330
1F
100
AcDbEntity
  8
WIDOCZNA
100
AcDbCircle
 10
254.629131813423
 20
157.331869390702
 30
0.0
 40
4.250000000000015
100
AcDbArc
 50
331.0119751990132
 51
28.98802480098671
  0
LINE
  5
168
330
1F
100
AcDbEntity
  8
WIDOCZNA
100
AcDbLine
 10
50.29037723564158
 20
209.9027621657183
 30
0.0
 11
49.18302611780889
 21
209.2634326997501
 31
0.0
  0
ELLIPSE
  5
169
330
1F
100
AcDbEntity
  8
WIDOCZNA
100
AcDbEllipse
 10
47.25505066672021
 20
214.6416266717647
 30
0.0
 11
1.498599999999989
 21
2.59565134022273
 31
0.0
210
0.0
220
0.0
230
1.0
 40
0.5773502691896251
 41
-0.7853981633974517
 42
-0.0288151433671765
  0
LINE
  5
16A
330
1F
100
AcDbEntity
  8
WIDOCZNA
100
AcDbLine
 10
9.466132909261209
 20
185.7107033197526
 30
0.0
 11
46.55459068927681
 21
207.1237344028726
 31
0.0
  0
LINE
  5
16B
330
1F
100
AcDbEntity
  8
WIDOCZNA
100
AcDbLine
 10
58.06727903648746
 20
213.5839370008309
 30
0.0
 11
50.29037723564158
 21
218.0739333490106
 31
0.0
  0
LINE
  5
16C
330
1F
100
AcDbEntity
  8
WIDOCZNA
100
AcDbLine
 10
10.84909235190586
 20
186.5091553262418
 30
0.0
 11
18.08717878548759
 21
182.3302441753956
 31
0.0
  0
ELLIPSE
  5
16D
330
1F
100
AcDbEntity
  8
WIDOCZNA
100
AcDbEllipse
 10
44.79446048954725
 20
216.0622490729208
 30
0.0
 11
1.498599999999996
 21
2.59565134022273
 31
0.0
210
0.0
220
0.0
230
1.0
 40
0.5773502691896265
 41
0.0
 42
0.7853981633974444
  0
ELLIPSE
  5
16E
330
1F
100
AcDbEntity
  8
WIDOCZNA
100
AcDbEllipse
 10
44.79446048954725
 20
216.0622490729208
 30
0.0
 11
1.498599999999996
 21
2.59565134022273
 31
0.0
210
0.0
220
0.0
230
1.0
 40
0.5773502691896265
 41
-0.785398163397448
 42
0.0
  0
ELLIPSE
  5
16F
330
1F
100
AcDbEntity
  8
WIDOCZNA
100
AcDbEllipse
 10
7.706002709531653
 20
189.1741185167318
 30
0.0
 11
-1.498599999999999
 21
-2.595651340222702
 31
0.0
210
0.0
220
0.0
230
1.0
 40
0.5773502691896264
 41
0.0
 42
0.7853981633974513
  0
ELLIPSE
  5
170
330
1F
100
AcDbEntity
  8
WIDOCZNA
100
AcDbEllipse
 10
7.706002709531653
 20
189.1741185167318
 30
0.0
 11
-1.498599999999999
 21
-2.595651340222702
 31
0.0
210
0.0
220
0.0
230
1.0
 40
0.5773502691896264
 41
-0.7853981633974523
 42
0.0
  0
ELLIPSE
  5
171
330
1F
100
AcDbEntity
  8
WIDOCZNA
100
AcDbEllipse
 10
56.47777370305821
 20
204.4950644854049
 30
0.0
 11
1.651000000000003
 21
0.0
 31
0.0
210
0.0
220
0.0
230
1.0
 40
0.57735026918963
 41
2.356194492337241
 42
7.068583470577032
  0
ELLIPSE
  5
172
330
1F
100
AcDbEntity
  8
WIDOCZNA
100
AcDbEllipse
 10
56.47777370305821
 20
204.4950644854049
 30
0.0
 11
1.651000000000003
 21
0.0
 31
0.0
210
0.0
220
0.0
230
1.0
 40
0.57735026918963
 41
0.7853981633974454
 42
2.356194492337241
  0
ELLIPSE
  5
173
330
1F
100
AcDbEntity
  8
WIDOCZNA
100
AcDbEllipse
 10
56.47777370305822
 20
204.4950644854049
 30
0.0
 11
2.247899999999994
 21
0.0
 31
0.0
210
0.0
220
0.0
230
1.0
 40
0.5773502691896296
 41
0.0
 42
0.7853981633974534
  0
ELLIPSE
  5
174
330
1F
100
AcDbEntity
  8
WIDOCZNA
100
AcDbEllipse
 10
56.47777370305822
 20
204.4950644854049
 30
0.0
 11
2.247899999999994
 21
0.0
 31
0.0
210
0.0
220
0.0
230
1.0
 40
0.5773502691896296
 41
3.926990816987235
 42
6.283185307179586
  0
ELLIPSE
  5
175
330
1F
100
AcDbEntity
  8
WIDOCZNA
100
AcDbEllipse
 10
56.4777737030582
 20
212.6662356686972
 30
0.0
 11
2.247900000000008
 21
0.0
 31
0.0
210
0.0
220
0.0
230
1.0
 40
0.5773502691896133
 41
0.0
 42
0.7853981633974497
  0
ELLIPSE
  5
176
330
1F
100
AcDbEntity
  8
WIDOCZNA
100
AcDbEllipse
 10
45.27041406396392
 20
215.7874571486096
 30
0.0
 11
1.498599999999996
 21
2.595651340222702
 31
0.0
210
0.0
220
0.0
230
1.0
 40
0.5773502691896271
 41
-0.7853981633974405
 42
0.0
  0
LINE
  5
177
330
1F
100
AcDbEntity
  8
WIDOCZNA
100
AcDbLine
 10
54.88826836962897
 20
203.5773631532712
 30
0.0
 11
47.45118559838802
 21
207.8711648932326
 31
0.0
  0
LINE
  5
178
330
1F
100
AcDbEntity
  8
WIDOCZNA
100
AcDbLine
 10
50.29037723564158
 20
209.9027621657183
 30
0.0
 11
58.06727903648746
 21
205.4127658175386
 31
0.0
  0
ELLIPSE
  5
179
330
1F
100
AcDbEntity
  8
WIDOCZNA
100
AcDbEllipse
 10
18.75155250173408
 20
198.6399122267536
 30
0.0
 11
2.125
 21
3.680607966083869
 31
0.0
210
0.0
220
0.0
230
1.0
 40
0.5773502691896278
 41
0.0
 42
2.356194490192346
  0
ELLIPSE
  5
17A
330
1F
100
AcDbEntity
  8
WIDOCZNA
100
AcDbEllipse
 10
18.75155250173408
 20
198.6399122267536
 30
0.0
 11
2.125
 21
3.680607966083869
 31
0.0
210
0.0
220
0.0
230
1.0
 40
0.5773502691896278
 41
3.141592653589796
 42
6.283185307179586
  0
ELLIPSE
  5
17B
330
1F
100
AcDbEntity
  8
WIDOCZNA
100
AcDbEllipse
 10
18.75155250173408
 20
198.6399122267536
 30
0.0
 11
2.125
 21
3.680607966083869
 31
0.0
210
0.0
220
0.0
230
1.0
 40
0.5773502691896278
 41
2.356194490192346
 42
3.141592653589796
  0
ELLIPSE
  5
17C
330
1F
100
AcDbEntity
  8
WIDOCZNA
100
AcDbEllipse
 10
46.07863711486014
 20
215.3208293526094
 30
0.0
 11
1.498600000000003
 21
2.59565134022273
 31
0.0
210
0.0
220
0.0
230
0.9999999999999998
 40
0.5773502691896217
 41
0.0
 42
0.2730392756856563
  0
ELLIPSE
  5
17D
330
1F
100
AcDbEntity
  8
WIDOCZNA
100
AcDbEllipse
 10
46.07863711486014
 20
215.3208293526094
 30
0.0
 11
1.498600000000003
 21
2.59565134022273
 31
0.0
210
0.0
220
0.0
230
0.9999999999999998
 40
0.5773502691896217
 41
-0.7853981633974483
 42
0.0
  0
LINE
  5
17E
330
1F
100
AcDbEntity
  8
WIDOCZNA
100
AcDbLine
 10
18.08717878548759
 20
190.5014153586879
 30
0.0
 11
17.92553417530835
 21
190.5947409178879
 31
0.0
  0
LINE
  5
17F
330
1F
100
AcDbEntity
  8
WIDOCZNA
100
AcDbLine
 10
13.00239237224079
 20
193.4371181631477
 30
0.0
 11
10.60736018237251
 21
194.8198906426859
 31
0.0
  0
ELLIPSE
  5
180
330
1F
100
AcDbEntity
  8
WIDOCZNA
100
AcDbEllipse
 10
46.07863711486015
 20
209.8457298795404
 30
0.0
 11
1.136650000000003
 21
1.968735550423162
 31
0.0
210
0.0
220
0.0
230
1.0
 40
0.5773502691896146
 41
3.926990816987252
 42
5.497787143782135
  0
ELLIPSE
  5
181
330
1F
100
AcDbEntity
  8
WIDOCZNA
100
AcDbEllipse
 10
31.18899170326795
 20
201.3224281341418
 30
0.0
 11
0.9999999999999964
 21
1.732050807568868
 31
0.0
210
0.0
220
0.0
230
0.9999999999999998
 40
0.5773502691896278
 41
1.075999277801508
 42
2.065593375788278
  0
ELLIPSE
  5
182
330
1F
100
AcDbEntity
  8
WIDOCZNA
100
AcDbEllipse
 10
46.07863711486015
 20
209.8457298795404
 30
0.0
 11
1.498599999999996
 21
2.59565134022273
 31
0.0
210
0.0
220
0.0
230
1.0
 40
0.5773502691896203
 41
3.926990816987243
 42
5.497787143782134
  0
LINE
  5
183
330
1F
100
AcDbEntity
  8
WIDOCZNA
100
AcDbLine
 10
8.054203590916979
 20
185.5176959423967
 30
0.0
 11
7.131266317783228
 21
184.9848378593078
 31
0.0
  0
ELLIPSE
  5
184
330
1F
100
AcDbEntity
  8
WIDOCZNA
100
AcDbEllipse
 10
16.49767345205836
 20
181.4125428432619
 30
0.0
 11
2.247899999999994
 21
0.0
 31
0.0
210
0.0
220
0.0
230
1.0
 40
0.5773502691896296
 41
0.0
 42
0.7853981633974546
  0
ELLIPSE
  5
185
330
1F
100
AcDbEntity
  8
WIDOCZNA
100
AcDbEllipse
 10
16.49767345205836
 20
181.4125428432619
 30
0.0
 11
2.247899999999994
 21
0.0
 31
0.0
210
0.0
220
0.0
230
1.0
 40
0.5773502691896296
 41
3.926990816987229
 42
6.283185307179586
  0
ELLIPSE
  5
186
330
1F
100
AcDbEntity
  8
WIDOCZNA
100
AcDbEllipse
 10
46.07863711486014
 20
215.3208293526094
 30
0.0
 11
-1.13665000000001
 21
-1.968735550423162
 31
0.0
210
0.0
220
0.0
230
0.9999999999999998
 40
0.57735026918962
 41
-3.926990816987233
 42
-3.305940471025763
  0
LINE
  5
187
330
1F
100
AcDbEntity
  8
WIDOCZNA
100
AcDbLine
 10
7.706002709531654
 20
186.7269149643752
 30
0.0
 11
44.79446048954726
 21
208.1399460474953
 31
0.0
  0
ELLIPSE
  5
188
330
1F
100
AcDbEntity
  8
WIDOCZNA
100
AcDbEllipse
 10
43.77549597220667
 20
211.0550694363716
 30
0.0
 11
2.124999999999992
 21
3.680607966083868
 31
0.0
210
0.0
220
0.0
230
1.0
 40
0.5773502691896298
 41
0.4270068653718926
 42
2.714585788217893
  0
LINE
  5
189
330
1F
100
AcDbEntity
  8
WIDOCZNA
100
AcDbLine
 10
49.37439111129253
 20
215.865228447943
 30
0.0
 11
49.37439111129252
 21
210.390128974874
 31
0.0
  0
ELLIPSE
  5
18A
330
1F
100
AcDbEntity
  8
WIDOCZNA
100
AcDbEllipse
 10
16.49767345205836
 20
181.4125428432619
 30
0.0
 11
1.651000000000003
 21
0.0
 31
0.0
210
0.0
220
0.0
230
1.0
 40
0.57735026918963
 41
2.356194492337247
 42
7.068583470577032
  0
ELLIPSE
  5
18B
330
1F
100
AcDbEntity
  8
WIDOCZNA
100
AcDbEllipse
 10
16.49767345205836
 20
181.4125428432619
 30
0.0
 11
1.651000000000003
 21
0.0
 31
0.0
210
0.0
220
0.0
230
1.0
 40
0.57735026918963
 41
0.7853981633974454
 42
2.356194492337247
  0
LINE
  5
18C
330
1F
100
AcDbEntity
  8
WIDOCZNA
100
AcDbLine
 10
46.07863711486014
 20
207.9895882021174
 30
0.0
 11
8.990179334844541
 21
186.5765571189974
 31
0.0
  0
ELLIPSE
  5
18D
330
1F
100
AcDbEntity
  8
WIDOCZNA
100
AcDbEllipse
 10
44.79446048954726
 20
210.5871495998519
 30
0.0
 11
1.498600000000003
 21
2.595651340222702
 31
0.0
210
0.0
220
0.0
230
1.0
 40
0.5773502691896243
 41
3.926990816987247
 42
5.497787143782144
  0
ELLIPSE
  5
18E
330
1F
100
AcDbEntity
  8
WIDOCZNA
100
AcDbEllipse
 10
26.24688016795507
 20
200.501521998109
 30
0.0
 11
1.0
 21
1.732050807568868
 31
0.0
210
0.0
220
0.0
230
0.9999999999999998
 40
0.5773502691896257
 41
0.0
 42
2.356194490192344
  0
ELLIPSE
  5
18F
330
1F
100
AcDbEntity
  8
WIDOCZNA
100
AcDbEllipse
 10
26.24688016795507
 20
200.501521998109
 30
0.0
 11
1.0
 21
1.732050807568868
 31
0.0
210
0.0
220
0.0
230
0.9999999999999998
 40
0.5773502691896257
 41
3.141592653589793
 42
6.283185307179586
  0
ELLIPSE
  5
190
330
1F
100
AcDbEntity
  8
WIDOCZNA
100
AcDbEllipse
 10
26.24688016795507
 20
200.501521998109
 30
0.0
 11
1.0
 21
1.732050807568868
 31
0.0
210
0.0
220
0.0
230
0.9999999999999998
 40
0.5773502691896257
 41
2.356194490192344
 42
3.141592653589793
  0
LINE
  5
191
330
1F
100
AcDbEntity
  8
WIDOCZNA
100
AcDbLine
 10
49.18302611780889
 20
209.2634326997501
 30
0.0
 11
48.48256614036548
 21
209.6678434562836
 31
0.0
  0
LINE
  5
192
330
1F
100
AcDbEntity
  8
WIDOCZNA
100
AcDbLine
 10
48.19797755943247
 20
216.5444311287877
 30
0.0
 11
48.19797755943247
 21
211.0693316557187
 31
0.0
  0
ELLIPSE
  5
193
330
1F
100
AcDbEntity
  8
WIDOCZNA
100
AcDbEllipse
 10
8.181956283948317
 20
188.8993265924206
 30
0.0
 11
-1.498599999999998
 21
-2.59565134022273
 31
0.0
210
0.0
220
0.0
230
1.0
 40
0.5773502691896233
 41
0.0
 42
0.7853981633974478
  0
ELLIPSE
  5
194
330
1F
100
AcDbEntity
  8
WIDOCZNA
100
AcDbEllipse
 10
20.51168270146363
 20
197.623700582131
 30
0.0
 11
2.125
 21
3.680607966083869
 31
0.0
210
0.0
220
0.0
230
1.0
 40
0.5773502691896278
 41
2.356194490192346
 42
2.714585788217892
  0
ELLIPSE
  5
195
330
1F
100
AcDbEntity
  8
WIDOCZNA
100
AcDbEllipse
 10
20.51168270146363
 20
197.623700582131
 30
0.0
 11
2.125
 21
3.680607966083869
 31
0.0
210
0.0
220
0.0
230
1.0
 40
0.5773502691896278
 41
0.4270068653718949
 42
2.356194490192346
  0
LINE
  5
196
330
1F
100
AcDbEntity
  8
WIDOCZNA
100
AcDbLine
 10
48.09574497746486
 20
217.615683337047
 30
0.0
 11
48.79620495490826
 21
217.2112725805135
 31
0.0
  0
ELLIPSE
  5
197
330
1F
100
AcDbEntity
  8
WIDOCZNA
100
AcDbEllipse
 10
47.2550506667202
 20
209.1665271986957
 30
0.0
 11
1.498599999999996
 21
2.595651340222702
 31
0.0
210
0.0
220
0.0
230
1.0
 40
0.5773502691896271
 41
-1.213620420660532
 42
-0.7853981633974422
  0
ELLIPSE
  5
198
330
1F
100
AcDbEntity
  8
WIDOCZNA
100
AcDbEllipse
 10
8.990179334844541
 20
188.4326987964203
 30
0.0
 11
1.136650000000001
 21
1.96873555042319
 31
0.0
210
0.0
220
0.0
230
0.9999999999999999
 40
0.5773502691896243
 41
3.305940471025768
 42
3.926990816987237
  0
LINE
  5
199
330
1F
100
AcDbEntity
  8
WIDOCZNA
100
AcDbLine
 10
9.60981700719831
 20
193.0112140499673
 30
0.0
 11
11.93480408330327
 21
191.6688821357157
 31
0.0
  0
LINE
  5
19A
330
1F
100
AcDbEntity
  8
WIDOCZNA
100
AcDbLine
 10
15.86040271119663
 20
189.402436711171
 30
0.0
 11
18.08717878548759
 21
188.1168069452542
 31
0.0
  0
ELLIPSE
  5
19B
330
1F
100
AcDbEntity
  8
WIDOCZNA
100
AcDbEllipse
 10
23.06489883237174
 20
198.6644042174536
 30
0.0
 11
0.9999999999999966
 21
1.732050807568897
 31
0.0
210
0.0
220
0.0
230
0.9999999999999998
 40
0.5773502691896207
 41
0.0
 42
2.356194490192329
  0
ELLIPSE
  5
19C
330
1F
100
AcDbEntity
  8
WIDOCZNA
100
AcDbEllipse
 10
23.06489883237174
 20
198.6644042174536
 30
0.0
 11
0.9999999999999966
 21
1.732050807568897
 31
0.0
210
0.0
220
0.0
230
0.9999999999999998
 40
0.5773502691896207
 41
3.141592653589778
 42
6.283185307179586
  0
ELLIPSE
  5
19D
330
1F
100
AcDbEntity
  8
WIDOCZNA
100
AcDbEllipse
 10
23.06489883237174
 20
198.6644042174536
 30
0.0
 11
0.9999999999999966
 21
1.732050807568897
 31
0.0
210
0.0
220
0.0
230
0.9999999999999998
 40
0.5773502691896207
 41
2.356194490192329
 42
3.141592653589775
  0
LINE
  5
19E
330
1F
100
AcDbEntity
  8
WIDOCZNA
100
AcDbLine
 10
44.79446048954726
 20
218.5094526252774
 30
0.0
 11
7.706002709531649
 21
197.0964215421573
 31
0.0
  0
LINE
  5
19F
330
1F
100
AcDbEntity
  8
WIDOCZNA
100
AcDbLine
 10
14.90816811862912
 20
180.4948415111281
 30
0.0
 11
7.131266317783227
 21
184.9848378593078
 31
0.0
  0
LINE
  5
1A0
330
1F
100
AcDbEntity
  8
WIDOCZNA
100
AcDbLine
 10
47.38975450853624
 20
211.5359594517189
 30
0.0
 11
47.38975450853624
 21
217.0110589247879
 31
0.0
  0
ELLIPSE
  5
1A1
330
1F
100
AcDbEntity
  8
WIDOCZNA
100
AcDbEllipse
 10
33.74221501838095
 20
207.2947752660705
 30
0.0
 11
2.124999999999993
 21
3.680607966083841
 31
0.0
210
0.0
220
0.0
230
1.0
 40
0.577350269189629
 41
0.0
 42
2.356194490192347
  0
ELLIPSE
  5
1A2
330
1F
100
AcDbEntity
  8
WIDOCZNA
100
AcDbEllipse
 10
33.74221501838095
 20
207.2947752660705
 30
0.0
 11
2.124999999999993
 21
3.680607966083841
 31
0.0
210
0.0
220
0.0
230
1.0
 40
0.577350269189629
 41
3.141592653589793
 42
6.283185307179586
  0
ELLIPSE
  5
1A3
330
1F
100
AcDbEntity
  8
WIDOCZNA
100
AcDbEllipse
 10
33.74221501838095
 20
207.2947752660705
 30
0.0
 11
2.124999999999993
 21
3.680607966083841
 31
0.0
210
0.0
220
0.0
230
1.0
 40
0.577350269189629
 41
2.356194490192347
 42
3.141592653589793
  0
ELLIPSE
  5
1A4
330
1F
100
AcDbEntity
  8
WIDOCZNA
100
AcDbEllipse
 10
46.55459068927681
 20
209.5709379552292
 30
0.0
 11
-1.498599999999996
 21
-2.59565134022273
 31
0.0
210
0.0
220
0.0
230
1.0
 40
0.5773502691896203
 41
0.7853981633974503
 42
1.927972232929254
  0
LINE
  5
1A5
330
1F
100
AcDbEntity
  8
WIDOCZNA
100
AcDbLine
 10
48.79620495490826
 20
217.2112725805135
 30
0.0
 11
50.29037723564158
 21
218.0739333490106
 31
0.0
  0
ELLIPSE
  5
1A6
330
1F
100
AcDbEntity
  8
WIDOCZNA
100
AcDbEllipse
 10
28.00701036768461
 20
199.4853103534864
 30
0.0
 11
1.000000000000007
 21
1.732050807568868
 31
0.0
210
0.0
220
0.0
230
0.9999999999999998
 40
0.5773502691896217
 41
1.07599927780151
 42
2.065593375788295
  0
ELLIPSE
  5
1A7
330
1F
100
AcDbEntity
  8
WIDOCZNA
100
AcDbEllipse
 10
10.47840174763791
 20
193.8634064118298
 30
0.0
 11
2.124999999999996
 21
3.680607966083869
 31
0.0
210
0.0
220
0.0
230
1.0
 40
0.5773502691896223
 41
0.0
 42
2.35619449019234
  0
ELLIPSE
  5
1A8
330
1F
100
AcDbEntity
  8
WIDOCZNA
100
AcDbEllipse
 10
10.47840174763791
 20
193.8634064118298
 30
0.0
 11
2.124999999999996
 21
3.680607966083869
 31
0.0
210
0.0
220
0.0
230
1.0
 40
0.5773502691896223
 41
3.141592653589791
 42
6.283185307179586
  0
ELLIPSE
  5
1A9
330
1F
100
AcDbEntity
  8
WIDOCZNA
100
AcDbEllipse
 10
10.47840174763791
 20
193.8634064118298
 30
0.0
 11
2.124999999999996
 21
3.680607966083869
 31
0.0
210
0.0
220
0.0
230
1.0
 40
0.5773502691896223
 41
2.35619449019234
 42
3.141592653589791
  0
ELLIPSE
  5
1AA
330
1F
100
AcDbEntity
  8
WIDOCZNA
100
AcDbEllipse
 10
8.990179334844541
 20
188.4326987964203
 30
0.0
 11
-1.498599999999998
 21
-2.595651340222702
 31
0.0
210
0.0
220
0.0
230
0.9999999999999999
 40
0.5773502691896267
 41
0.0
 42
0.7853981633974497
  0
ELLIPSE
  5
1AB
330
1F
100
AcDbEntity
  8
WIDOCZNA
100
AcDbEllipse
 10
8.990179334844541
 20
188.4326987964203
 30
0.0
 11
-1.498599999999998
 21
-2.595651340222702
 31
0.0
210
0.0
220
0.0
230
0.9999999999999999
 40
0.5773502691896267
 41
-0.2730392756856594
 42
0.0
  0
ELLIPSE
  5
1AC
330
1F
100
AcDbEntity
  8
WIDOCZNA
100
AcDbEllipse
 10
24.82502903210129
 20
197.648192572831
 30
0.0
 11
1.0
 21
1.732050807568896
 31
0.0
210
0.0
220
0.0
230
1.0
 40
0.5773502691896217
 41
1.075999277801504
 42
2.065593375788269
  0
LINE
  5
1AD
330
1F
100
AcDbEntity
  8
WIDOCZNA
100
AcDbLine
 10
18.0871787854876
 20
184.753389823075
 30
0.0
 11
12.94759803986592
 21
187.7207281500815
 31
0.0
  0
LINE
  5
1AE
330
1F
100
AcDbEntity
  8
WIDOCZNA
100
AcDbLine
 10
5.58666226495933
 20
193.4256162136224
 30
0.0
 11
5.586662264959333
 21
187.9505167405535
 31
0.0
  0
ELLIPSE
  5
1AF
330
1F
100
AcDbEntity
  8
WIDOCZNA
100
AcDbEllipse
 10
37.87867005999702
 20
205.9434043571894
 30
0.0
 11
0.3749999999999999
 21
0.6495190528383148
 31
0.0
210
0.0
220
0.0
230
1.0
 40
0.577350269189624
 41
0.0
 42
2.356194490192375
  0
ELLIPSE
  5
1B0
330
1F
100
AcDbEntity
  8
WIDOCZNA
100
AcDbEllipse
 10
37.87867005999702
 20
205.9434043571894
 30
0.0
 11
0.3749999999999999
 21
0.6495190528383148
 31
0.0
210
0.0
220
0.0
230
1.0
 40
0.577350269189624
 41
3.141592653589825
 42
6.283185307179586
  0
ELLIPSE
  5
1B1
330
1F
100
AcDbEntity
  8
WIDOCZNA
100
AcDbEllipse
 10
37.87867005999702
 20
205.9434043571894
 30
0.0
 11
0.3749999999999999
 21
0.6495190528383148
 31
0.0
210
0.0
220
0.0
230
1.0
 40
0.577350269189624
 41
2.356194490192375
 42
3.141592653589825
  0
ELLIPSE
  5
1B2
330
1F
100
AcDbEntity
  8
WIDOCZNA
100
AcDbEllipse
 10
12.23853194736746
 20
192.8471947672072
 30
0.0
 11
2.124999999999996
 21
3.680607966083869
 31
0.0
210
0.0
220
0.0
230
1.0
 40
0.5773502691896226
 41
0.4270068653718987
 42
1.850258013765348
  0
ELLIPSE
  5
1B3
330
1F
100
AcDbEntity
  8
WIDOCZNA
100
AcDbEllipse
 10
46.55459068927681
 20
215.0460374282982
 30
0.0
 11
1.498599999999996
 21
2.59565134022273
 31
0.0
210
0.0
220
0.0
230
1.0
 40
0.5773502691896285
 41
-0.0288151433671759
 42
0.0
  0
LINE
  5
1B4
330
1F
100
AcDbEntity
  8
WIDOCZNA
100
AcDbLine
 10
46.91380093411957
 20
211.8107513760302
 30
0.0
 11
46.91380093411957
 21
217.2858508490991
 31
0.0
  0
ELLIPSE
  5
1B5
330
1F
100
AcDbEntity
  8
WIDOCZNA
100
AcDbEllipse
 10
16.49767345205835
 20
189.5837140265542
 30
0.0
 11
2.247899999999998
 21
0.0
 31
0.0
210
0.0
220
0.0
230
1.0
 40
0.5773502691896287
 41
0.0
 42
0.7853981633974542
  0
LINE
  5
1B6
330
1F
100
AcDbEntity
  8
WIDOCZNA
100
AcDbLine
 10
46.07863711486015
 20
207.3985263271839
 30
0.0
 11
8.990179334844544
 21
185.9854952440638
 31
0.0
  0
ELLIPSE
  5
1B7
330
1F
100
AcDbEntity
  8
WIDOCZNA
100
AcDbEllipse
 10
7.70600270953165
 20
194.6492179898007
 30
0.0
 11
-1.4986
 21
-2.59565134022273
 31
0.0
210
0.0
220
0.0
230
0.9999999999999998
 40
0.5773502691896264
 41
-2.356194490192348
 42
-0.785398163397447
  0
ELLIPSE
  5
1B8
330
1F
100
AcDbEntity
  8
WIDOCZNA
100
AcDbEllipse
 10
35.50234521811051
 20
206.2785636214479
 30
0.0
 11
2.125000000000007
 21
3.680607966083841
 31
0.0
210
0.0
220
0.0
230
0.9999999999999999
 40
0.5773502691896265
 41
2.35619449019235
 42
2.714585788217906
  0
ELLIPSE
  5
1B9
330
1F
100
AcDbEntity
  8
WIDOCZNA
100
AcDbEllipse
 10
35.50234521811051
 20
206.2785636214479
 30
0.0
 11
2.125000000000007
 21
3.680607966083841
 31
0.0
210
0.0
220
0.0
230
0.9999999999999999
 40
0.5773502691896265
 41
0.427006865371907
 42
2.356194490192358
  0
ELLIPSE
  5
1BA
330
1F
100
AcDbEntity
  8
WIDOCZNA
100
AcDbEllipse
 10
29.42886150353839
 20
202.3386397787644
 30
0.0
 11
1.0
 21
1.732050807568868
 31
0.0
210
0.0
220
0.0
230
0.9999999999999998
 40
0.5773502691896273
 41
0.0
 42
2.356194490192346
  0
ELLIPSE
  5
1BB
330
1F
100
AcDbEntity
  8
WIDOCZNA
100
AcDbEllipse
 10
29.42886150353839
 20
202.3386397787644
 30
0.0
 11
1.0
 21
1.732050807568868
 31
0.0
210
0.0
220
0.0
230
0.9999999999999998
 40
0.5773502691896273
 41
3.141592653589798
 42
6.283185307179586
  0
ELLIPSE
  5
1BC
330
1F
100
AcDbEntity
  8
WIDOCZNA
100
AcDbEllipse
 10
29.42886150353839
 20
202.3386397787644
 30
0.0
 11
1.0
 21
1.732050807568868
 31
0.0
210
0.0
220
0.0
230
0.9999999999999998
 40
0.5773502691896273
 41
2.356194490192346
 42
3.141592653589798
  0
LINE
  5
1BD
330
1F
100
AcDbEntity
  8
WIDOCZNA
100
AcDbLine
 10
8.181956283948319
 20
186.452123040064
 30
0.0
 11
45.27041406396393
 21
207.8651541231841
 31
0.0
  0
ELLIPSE
  5
1BE
330
1F
100
AcDbEntity
  8
WIDOCZNA
100
AcDbEllipse
 10
56.47777370305822
 20
205.0207984688984
 30
0.0
 11
1.007109999999997
 21
0.0
 31
0.0
210
0.0
220
0.0
230
1.0
 40
0.5773502691896262
 41
2.639724169860281
 42
3.141592653589793
  0
ELLIPSE
  5
1BF
330
1F
100
AcDbEntity
  8
WIDOCZNA
100
AcDbEllipse
 10
56.47777370305822
 20
205.0207984688984
 30
0.0
 11
1.007109999999997
 21
0.0
 31
0.0
210
0.0
220
0.0
230
1.0
 40
0.5773502691896262
 41
3.141592653589793
 42
6.283185307179586
  0
ELLIPSE
  5
1C0
330
1F
100
AcDbEntity
  8
WIDOCZNA
100
AcDbEllipse
 10
56.47777370305822
 20
205.0207984688984
 30
0.0
 11
1.007109999999997
 21
0.0
 31
0.0
210
0.0
220
0.0
230
1.0
 40
0.5773502691896262
 41
0.0
 42
0.5018684837295477
  0
ELLIPSE
  5
1C1
330
1F
100
AcDbEntity
  8
WIDOCZNA
100
AcDbEllipse
 10
42.01536577247713
 20
212.0712810809943
 30
0.0
 11
2.125
 21
3.680607966083869
 31
0.0
210
0.0
220
0.0
230
1.0
 40
0.5773502691896204
 41
0.0
 42
2.356194490192338
  0
ELLIPSE
  5
1C2
330
1F
100
AcDbEntity
  8
WIDOCZNA
100
AcDbEllipse
 10
42.01536577247713
 20
212.0712810809943
 30
0.0
 11
2.125
 21
3.680607966083869
 31
0.0
210
0.0
220
0.0
230
1.0
 40
0.5773502691896204
 41
3.14159265358979
 42
6.283185307179586
  0
ELLIPSE
  5
1C3
330
1F
100
AcDbEntity
  8
WIDOCZNA
100
AcDbEllipse
 10
42.01536577247713
 20
212.0712810809943
 30
0.0
 11
2.125
 21
3.680607966083869
 31
0.0
210
0.0
220
0.0
230
1.0
 40
0.5773502691896204
 41
2.356194490192339
 42
3.14159265358979
  0
ELLIPSE
  5
1C4
330
1F
100
AcDbEntity
  8
WIDOCZNA
100
AcDbEllipse
 10
9.466132909261207
 20
188.1579068721091
 30
0.0
 11
-1.4986
 21
-2.59565134022273
 31
0.0
210
0.0
220
0.0
230
1.0
 40
0.5773502691896224
 41
0.0
 42
0.7853981633974484
  0
LINE
  5
1C5
330
1F
100
AcDbEntity
  8
WIDOCZNA
100
AcDbLine
 10
50.29037723564158
 20
218.0739333490106
 30
0.0
 11
50.29037723564158
 21
209.9027621657183
 31
0.0
  0
ELLIPSE
  5
1C6
330
1F
100
AcDbEntity
  8
WIDOCZNA
100
AcDbEllipse
 10
45.27041406396392
 20
210.3123576755407
 30
0.0
 11
-1.498599999999996
 21
-2.59565134022273
 31
0.0
210
0.0
220
0.0
230
1.0
 40
0.5773502691896285
 41
0.7853981633974433
 42
2.356194490192336
  0
ELLIPSE
  5
1C7
330
1F
100
AcDbEntity
  8
WIDOCZNA
100
AcDbEllipse
 10
16.49767345205836
 20
181.9382768267554
 30
0.0
 11
1.007109999999997
 21
0.0
 31
0.0
210
0.0
220
0.0
230
1.0
 40
0.5773502691896262
 41
2.639724169860285
 42
3.141592653589793
  0
ELLIPSE
  5
1C8
330
1F
100
AcDbEntity
  8
WIDOCZNA
100
AcDbEllipse
 10
16.49767345205836
 20
181.9382768267554
 30
0.0
 11
1.007109999999997
 21
0.0
 31
0.0
210
0.0
220
0.0
230
1.0
 40
0.5773502691896262
 41
3.141592653589793
 42
6.283185307179586
  0
ELLIPSE
  5
1C9
330
1F
100
AcDbEntity
  8
WIDOCZNA
100
AcDbEllipse
 10
16.49767345205836
 20
181.9382768267554
 30
0.0
 11
1.007109999999997
 21
0.0
 31
0.0
210
0.0
220
0.0
230
1.0
 40
0.5773502691896262
 41
0.0
 42
0.5018684837295116
  0
ELLIPSE
  5
1CA
330
1F
100
AcDbEntity
  8
WIDOCZNA
100
AcDbEllipse
 10
14.65021205760263
 20
192.532447876647
 30
0.0
 11
0.3750000000000036
 21
0.6495190528383148
 31
0.0
210
0.0
220
0.0
230
1.0
 40
0.5773502691896246
 41
0.0
 42
2.356194490192378
  0
ELLIPSE
  5
1CB
330
1F
100
AcDbEntity
  8
WIDOCZNA
100
AcDbEllipse
 10
14.65021205760263
 20
192.532447876647
 30
0.0
 11
0.3750000000000036
 21
0.6495190528383148
 31
0.0
210
0.0
220
0.0
230
1.0
 40
0.5773502691896246
 41
3.141592653589826
 42
6.283185307179586
  0
ELLIPSE
  5
1CC
330
1F
100
AcDbEntity
  8
WIDOCZNA
100
AcDbEllipse
 10
14.65021205760263
 20
192.532447876647
 30
0.0
 11
0.3750000000000036
 21
0.6495190528383148
 31
0.0
210
0.0
220
0.0
230
1.0
 40
0.5773502691896246
 41
2.356194490192378
 42
3.141592653589826
  0
LINE
  5
1CD
330
1F
100
AcDbEntity
  8
WIDOCZNA
100
AcDbLine
 10
7.131266317783228
 20
184.9848378593078
 30
0.0
 11
7.131266317783227
 21
186.1674169045631
 31
0.0
  0
SPLINE
  5
1CE
330
1F
100
AcDbEntity
  8
WIDOCZNA
100
AcDbSpline
210
0.0
220
0.0
230
1.0
 70
     8
 71
     3
 72
    38
 73
    34
 74
     0
 42
0.000000001
 43
0.000001
 40
1.139736280420685
 40
1.139736280420685
 40
1.139736280420685
 40
1.139736280420685
 40
1.399191763206519
 40
1.399191763206519
 40
1.658647245992352
 40
1.658647245992352
 40
1.918102728778185
 40
1.918102728778185
 40
2.177558211564018
 40
2.177558211564018
 40
2.463140489415487
 40
2.463140489415487
 40
2.748722767266956
 40
2.748722767266956
 40
3.312348417207042
 40
3.312348417207042
 40
3.875974067147129
 40
3.875974067147129
 40
4.439599717087214
 40
4.439599717087214
 40
5.003225367027299
 40
5.003225367027299
 40
5.288807644878768
 40
5.288807644878768
 40
5.574389922730238
 40
5.574389922730238
 40
5.833845405516072
 40
5.833845405516072
 40
6.093300888301906
 40
6.093300888301906
 40
6.352756371087739
 40
6.352756371087739
 40
6.612211853873573
 40
6.612211853873573
 40
6.612211853873573
 40
6.612211853873573
 10
18.08717878548759
 20
188.1168069452542
 30
0.0
 10
18.14833302925223
 20
188.0814995261545
 30
0.0
 10
18.20730220174675
 20
188.0358192387826
 30
0.0
 10
18.31590588305436
 20
187.9258115208726
 30
0.0
 10
18.36555166179355
 20
187.861486608778
 30
0.0
 10
18.45307130055528
 20
187.7194036423317
 30
0.0
 10
18.49107103013029
 20
187.641484481381
 30
0.0
 10
18.55543918866305
 20
187.4793028577142
 30
0.0
 10
18.58184744869463
 20
187.3950507975456
 30
0.0
 10
18.62702828324779
 20
187.2208495780043
 30
0.0
 10
18.64768368220809
 20
187.1187762024524
 30
0.0
 10
18.68000944825517
 20
186.9132178598015
 30
0.0
 10
18.69187248241571
 20
186.8097625626849
 30
0.0
 10
18.7174924636407
 20
186.5311127771078
 30
0.0
 10
18.72654535265799
 20
186.3335796086155
 30
0.0
 10
18.73655199323382
 20
185.957097311159
 30
0.0
 10
18.73787941510254
 20
185.7780837602437
 30
0.0
 10
18.73787941510254
 20
185.4712848161775
 30
0.0
 10
18.73655199323382
 20
185.3157150181739
 30
0.0
 10
18.72654535265799
 20
185.0421880721396
 30
0.0
 10
18.7174924636407
 20
184.9243778020998
 30
0.0
 10
18.69187248241571
 20
184.7912050609746
 30
0.0
 10
18.68000944825517
 20
184.7478064145381
 30
0.0
 10
18.64768368220809
 20
184.6768680294452
 30
0.0
 10
18.62702828324779
 20
184.6493894198088
 30
0.0
 10
18.58184744869463
 20
184.614797694802
 30
0.0
 10
18.55543918866305
 20
184.6037683461705
 30
0.0
 10
18.4910710301303
 20
184.5960451654458
 30
0.0
 10
18.45307130055528
 20
184.5993379725148
 30
0.0
 10
18.36555166179355
 20
184.6206058107715
 30
0.0
 10
18.31590588305436
 20
184.6385835109633
 30
0.0
 10
18.20730220174676
 20
184.6873263154041
 30
0.0
 10
18.14833302925223
 20
184.7180824039754
 30
0.0
 10
18.0871787854876
 20
184.753389823075
 30
0.0
  0
LINE
  5
1CF
330
1F
100
AcDbEntity
  8
WIDOCZNA
100
AcDbLine
 10
47.68610296053152
 20
216.2489001913209
 30
0.0
 11
47.68610296053152
 21
210.7738007182519
 31
0.0
  0
LINE
  5
1D0
330
1F
100
AcDbEntity
  8
WIDOCZNA
100
AcDbLine
 10
18.74557345205836
 20
181.4125428432619
 30
0.0
 11
18.74557345205835
 21
189.5837140265542
 31
0.0
  0
LINE
  5
1D1
330
1F
100
AcDbEntity
  8
WIDOCZNA
100
AcDbLine
 10
7.491579334844543
 20
185.8370474561976
 30
0.0
 11
7.967532909261209
 21
185.5622555318864
 31
0.0
  0
LINE
  5
1D2
330
1F
100
AcDbEntity
  8
WIDOCZNA
100
AcDbLine
 10
47.57723711486015
 20
217.9164806928321
 30
0.0
 11
48.05319068927681
 21
217.6416887685209
 31
0.0
  0
LINE
  5
1D3
330
1F
100
AcDbEntity
  8
WIDOCZNA
100
AcDbLine
 10
6.207402709531654
 20
186.5784671765091
 30
0.0
 11
6.683356283948319
 21
186.3036752521978
 31
0.0
  0
LINE
  5
1D4
330
1F
100
AcDbEntity
  8
WIDOCZNA
100
AcDbLine
 10
46.29306048954724
 20
218.6579004131436
 30
0.0
 11
46.76901406396392
 21
218.3831084888323
 31
0.0
  0
LINE
  5
1D5
330
1F
100
AcDbEntity
  8
WIDOCZNA
100
AcDbLine
 10
58.72567370305821
 20
204.4950644854049
 30
0.0
 11
58.72567370305821
 21
212.6662356686972
 31
0.0
  0
LINE
  5
1D6
330
1F
100
AcDbEntity
  8
STYCZNE_KRAWÊDZIE
100
AcDbLine
 10
8.181956283948319
 20
186.452123040064
 30
0.0
 11
7.706002709531654
 21
186.7269149643752
 31
0.0
  0
LINE
  5
1D7
330
1F
100
AcDbEntity
  8
STYCZNE_KRAWÊDZIE
100
AcDbLine
 10
18.08717878548759
 20
182.3302441753956
 30
0.0
 11
18.08717878548759
 21
184.753389823075
 31
0.0
  0
LINE
  5
1D8
330
1F
100
AcDbEntity
  8
STYCZNE_KRAWÊDZIE
100
AcDbLine
 10
47.68610296053152
 20
216.2489001913209
 30
0.0
 11
47.38975450853624
 21
216.4199970498543
 31
0.0
  0
LINE
  5
1D9
330
1F
100
AcDbEntity
  8
STYCZNE_KRAWÊDZIE
100
AcDbLine
 10
18.08717878548759
 20
188.1168069452542
 30
0.0
 11
18.08717878548759
 21
190.5014153586879
 31
0.0
  0
LINE
  5
1DA
330
1F
100
AcDbEntity
  8
STYCZNE_KRAWÊDZIE
100
AcDbLine
 10
58.06727903648746
 20
205.4127658175386
 30
0.0
 11
58.06727903648746
 21
213.5839370008309
 31
0.0
  0
LINE
  5
1DB
330
1F
100
AcDbEntity
  8
STYCZNE_KRAWÊDZIE
100
AcDbLine
 10
8.990179334844543
 20
186.5765571189974
 30
0.0
 11
8.69383088284926
 21
186.7476539775307
 31
0.0
  0
LINE
  5
1DC
330
1F
100
AcDbEntity
  8
STYCZNE_KRAWÊDZIE
100
AcDbLine
 10
47.38975450853624
 20
211.5359594517189
 30
0.0
 11
46.91380093411957
 21
211.8107513760302
 31
0.0
  0
LINE
  5
1DD
330
1F
100
AcDbEntity
  8
STYCZNE_KRAWÊDZIE
100
AcDbLine
 10
9.466132909261209
 20
185.7107033197526
 30
0.0
 11
8.990179334844543
 21
185.9854952440638
 31
0.0
  0
LINE
  5
1DE
330
1F
100
AcDbEntity
  8
STYCZNE_KRAWÊDZIE
100
AcDbLine
 10
49.37439111129252
 20
210.390128974874
 30
0.0
 11
48.19797755943247
 21
211.0693316557187
 31
0.0
  0
LINE
  5
1DF
330
1F
100
AcDbEntity
  8
STYCZNE_KRAWÊDZIE
100
AcDbLine
 10
44.79446048954726
 20
208.1399460474953
 30
0.0
 11
45.27041406396393
 21
207.8651541231841
 31
0.0
  0
LINE
  5
1E0
330
1F
100
AcDbEntity
  8
STYCZNE_KRAWÊDZIE
100
AcDbLine
 10
47.68610296053152
 20
210.7738007182519
 30
0.0
 11
47.3389850589456
 21
210.9742093321731
 31
0.0
  0
LINE
  5
1E1
330
1F
100
AcDbEntity
  8
STYCZNE_KRAWÊDZIE
100
AcDbLine
 10
48.19797755943247
 20
216.5444311287877
 30
0.0
 11
49.37439111129253
 21
215.865228447943
 31
0.0
  0
LINE
  5
1E2
330
1F
100
AcDbEntity
  8
STYCZNE_KRAWÊDZIE
100
AcDbLine
 10
46.91380093411957
 20
217.2858508490991
 30
0.0
 11
47.38975450853624
 21
217.0110589247879
 31
0.0
  0
LINE
  5
1E3
330
1F
100
AcDbEntity
  8
STYCZNE_KRAWÊDZIE
100
AcDbLine
 10
46.07863711486014
 20
207.9895882021174
 30
0.0
 11
45.73151921327423
 21
208.1899968160386
 31
0.0
  0
LINE
  5
1E4
330
1F
100
AcDbEntity
  8
STYCZNE_KRAWÊDZIE
100
AcDbLine
 10
46.07863711486015
 20
207.3985263271839
 30
0.0
 11
46.55459068927681
 21
207.1237344028726
 31
0.0
  0
LINE
  5
1E5
330
1F
100
AcDbEntity
  8
WIDOCZNA
100
AcDbLine
 10
190.6265538116114
 20
184.9848378593074
 30
0.0
 11
189.7036165384777
 21
185.5176959423963
 31
0.0
  0
LINE
  5
1E6
330
1F
100
AcDbEntity
  8
WIDOCZNA
100
AcDbLine
 10
184.7980707253226
 20
187.7277437434765
 30
0.0
 11
179.6706413439071
 21
184.7674210098654
 31
0.0
  0
LINE
  5
1E7
330
1F
100
AcDbEntity
  8
WIDOCZNA
100
AcDbLine
 10
151.2032294401178
 20
207.1237344028722
 30
0.0
 11
188.2916872201334
 21
185.7107033197521
 31
0.0
  0
LINE
  5
1E8
330
1F
100
AcDbEntity
  8
WIDOCZNA
100
AcDbLine
 10
150.3066345310066
 20
207.8711648932322
 30
0.0
 11
142.8695517597656
 21
203.5773631532707
 31
0.0
  0
ELLIPSE
  5
1E9
330
1F
100
AcDbEntity
  8
WIDOCZNA
100
AcDbEllipse
 10
190.051817419863
 20
194.6492179898003
 30
0.0
 11
1.49860000000001
 21
-2.595651340222702
 31
0.0
210
0.0
220
0.0
230
1.0
 40
0.5773502691896216
 41
0.7853981633974522
 42
2.356194490192335
  0
ELLIPSE
  5
1EA
330
1F
100
AcDbEntity
  8
WIDOCZNA
100
AcDbEllipse
 10
152.9633596398474
 20
210.5871495998514
 30
0.0
 11
-1.498599999999982
 21
2.595651340222702
 31
0.0
210
0.0
220
0.0
230
0.9999999999999999
 40
0.5773502691896325
 41
0.785398163397452
 42
2.356194490192353
  0
ELLIPSE
  5
1EB
330
1F
100
AcDbEntity
  8
WIDOCZNA
100
AcDbEllipse
 10
181.2601466773363
 20
181.4125428432614
 30
0.0
 11
1.650999999999982
 21
0.0
 31
0.0
210
0.0
220
0.0
230
1.0
 40
0.5773502691896374
 41
2.356194492337257
 42
5.497787143782168
  0
ELLIPSE
  5
1EC
330
1F
100
AcDbEntity
  8
WIDOCZNA
100
AcDbEllipse
 10
181.2601466773363
 20
181.4125428432614
 30
0.0
 11
1.650999999999982
 21
0.0
 31
0.0
210
0.0
220
0.0
230
1.0
 40
0.5773502691896374
 41
0.7853981612525486
 42
2.356194492337257
  0
ELLIPSE
  5
1ED
330
1F
100
AcDbEntity
  8
WIDOCZNA
100
AcDbEllipse
 10
181.2601466773363
 20
181.4125428432614
 30
0.0
 11
1.650999999999982
 21
0.0
 31
0.0
210
0.0
220
0.0
230
1.0
 40
0.5773502691896374
 41
5.497787143782168
 42
7.068583468432135
  0
ELLIPSE
  5
1EE
330
1F
100
AcDbEntity
  8
WIDOCZNA
100
AcDbEllipse
 10
181.2601466773363
 20
181.4125428432614
 30
0.0
 11
2.247900000000016
 21
-2.842170943040401E-14
 31
0.0
210
0.0
220
0.0
230
1.0
 40
0.5773502691896242
 41
-3.14159265358975
 42
-0.7853981633974367
  0
ELLIPSE
  5
1EF
330
1F
100
AcDbEntity
  8
WIDOCZNA
100
AcDbEllipse
 10
181.2601466773363
 20
181.4125428432614
 30
0.0
 11
2.247900000000016
 21
-2.842170943040401E-14
 31
0.0
210
0.0
220
0.0
230
1.0
 40
0.5773502691896242
 41
-3.926990816987223
 42
-3.14159265358975
  0
ELLIPSE
  5
1F0
330
1F
100
AcDbEntity
  8
WIDOCZNA
100
AcDbEllipse
 10
181.2601466773363
 20
189.5837140265537
 30
0.0
 11
2.247900000000016
 21
0.0
 31
0.0
210
0.0
220
0.0
230
1.0
 40
0.5773502691896115
 41
2.356194490192337
 42
3.141592653589793
  0
ELLIPSE
  5
1F1
330
1F
100
AcDbEntity
  8
WIDOCZNA
100
AcDbEllipse
 10
152.4874060654307
 20
215.7874571486091
 30
0.0
 11
-1.49860000000001
 21
2.595651340222702
 31
0.0
210
0.0
220
0.0
230
1.0
 40
0.5773502691896345
 41
0.0
 42
0.7853981633974411
  0
LINE
  5
1F2
330
1F
100
AcDbEntity
  8
WIDOCZNA
100
AcDbLine
 10
179.6706413439071
 20
182.3302441753951
 30
0.0
 11
186.9087277774888
 21
186.5091553262413
 31
0.0
  0
LINE
  5
1F3
330
1F
100
AcDbEntity
  8
WIDOCZNA
100
AcDbLine
 10
190.6265538116114
 20
184.9848378593074
 30
0.0
 11
182.8496520107655
 21
180.4948415111277
 31
0.0
  0
LINE
  5
1F4
330
1F
100
AcDbEntity
  8
WIDOCZNA
100
AcDbLine
 10
149.5598425699622
 20
211.0693316557183
 30
0.0
 11
149.5598425699622
 21
216.5444311287872
 31
0.0
  0
ELLIPSE
  5
1F5
330
1F
100
AcDbEntity
  8
WIDOCZNA
100
AcDbEllipse
 10
164.0089094320498
 20
207.2986410181223
 30
0.0
 11
2.125
 21
-3.680607966083841
 31
0.0
210
0.0
220
0.0
230
1.0
 40
0.57735026918963
 41
-3.141592653589799
 42
-2.356194490192352
  0
ELLIPSE
  5
1F6
330
1F
100
AcDbEntity
  8
WIDOCZNA
100
AcDbEllipse
 10
164.0089094320498
 20
207.2986410181223
 30
0.0
 11
2.125
 21
-3.680607966083841
 31
0.0
210
0.0
220
0.0
230
1.0
 40
0.57735026918963
 41
0.0
 42
3.141592653589787
  0
ELLIPSE
  5
1F7
330
1F
100
AcDbEntity
  8
WIDOCZNA
100
AcDbEllipse
 10
164.0089094320498
 20
207.2986410181223
 30
0.0
 11
2.125
 21
-3.680607966083841
 31
0.0
210
0.0
220
0.0
230
1.0
 40
0.57735026918963
 41
-2.356194490192352
 42
0.0
  0
ELLIPSE
  5
1F8
330
1F
100
AcDbEntity
  8
WIDOCZNA
100
AcDbEllipse
 10
188.7676407945501
 20
188.4326987964199
 30
0.0
 11
-1.136650000000031
 21
1.968735550423162
 31
0.0
210
0.0
220
0.0
230
1.0
 40
0.5773502691896254
 41
2.35619449019233
 42
2.977244836153771
  0
LINE
  5
1F9
330
1F
100
AcDbEntity
  8
WIDOCZNA
100
AcDbLine
 10
148.9616151744864
 20
217.211272580513
 30
0.0
 11
149.6620751519298
 21
217.6156833370465
 31
0.0
  0
ELLIPSE
  5
1FA
330
1F
100
AcDbEntity
  8
WIDOCZNA
100
AcDbEllipse
 10
172.9260882341246
 20
197.6520624726853
 30
0.0
 11
1.000000000000028
 21
-1.732050807568868
 31
0.0
210
0.0
220
0.0
230
1.0
 40
0.5773502691896304
 41
1.075999277801504
 42
2.065593375788271
  0
ELLIPSE
  5
1FB
330
1F
100
AcDbEntity
  8
WIDOCZNA
100
AcDbEllipse
 10
188.7676407945501
 20
188.4326987964199
 30
0.0
 11
1.498599999999982
 21
-2.595651340222702
 31
0.0
210
0.0
220
0.0
230
0.9999999999999999
 40
0.5773502691896325
 41
0.0
 42
0.2730392756856598
  0
ELLIPSE
  5
1FC
330
1F
100
AcDbEntity
  8
WIDOCZNA
100
AcDbEllipse
 10
188.7676407945501
 20
188.4326987964199
 30
0.0
 11
1.498599999999982
 21
-2.595651340222702
 31
0.0
210
0.0
220
0.0
230
0.9999999999999999
 40
0.5773502691896325
 41
-0.7853981633974397
 42
0.0
  0
LINE
  5
1FD
330
1F
100
AcDbEntity
  8
WIDOCZNA
100
AcDbLine
 10
148.5747940115857
 20
209.2634326997496
 30
0.0
 11
147.4674428937531
 21
209.9027621657178
 31
0.0
  0
ELLIPSE
  5
1FE
330
1F
100
AcDbEntity
  8
WIDOCZNA
100
AcDbEllipse
 10
141.2800464263364
 20
204.4950644854044
 30
0.0
 11
2.247900000000016
 21
0.0
 31
0.0
210
0.0
220
0.0
230
1.0
 40
0.5773502691896242
 41
3.141592653589793
 42
5.497787143782126
  0
ELLIPSE
  5
1FF
330
1F
100
AcDbEntity
  8
WIDOCZNA
100
AcDbEllipse
 10
141.2800464263364
 20
204.4950644854044
 30
0.0
 11
2.247900000000016
 21
0.0
 31
0.0
210
0.0
220
0.0
230
1.0
 40
0.5773502691896242
 41
2.356194490192348
 42
3.141592653589793
  0
ELLIPSE
  5
200
330
1F
100
AcDbEntity
  8
WIDOCZNA
100
AcDbEllipse
 10
150.5027694626744
 20
209.1665271986953
 30
0.0
 11
1.49860000000001
 21
-2.59565134022273
 31
0.0
210
0.0
220
0.0
230
1.0
 40
0.5773502691896251
 41
-2.356194490192339
 42
-1.927972232929259
  0
LINE
  5
201
330
1F
100
AcDbEntity
  8
WIDOCZNA
100
AcDbLine
 10
152.9633596398474
 20
208.1399460474948
 30
0.0
 11
190.051817419863
 21
186.7269149643748
 31
0.0
  0
ELLIPSE
  5
202
330
1F
100
AcDbEntity
  8
WIDOCZNA
100
AcDbEllipse
 10
185.5125925030633
 20
192.8510605192589
 30
0.0
 11
2.125
 21
-3.680607966083841
 31
0.0
210
0.0
220
0.0
230
1.0
 40
0.57735026918963
 41
-4.996467328750026
 42
-3.568599518961693
  0
LINE
  5
203
330
1F
100
AcDbEntity
  8
WIDOCZNA
100
AcDbLine
 10
187.1478286361634
 20
194.8183714546529
 30
0.0
 11
184.7513633890488
 21
193.4347715991277
 31
0.0
  0
LINE
  5
204
330
1F
100
AcDbEntity
  8
WIDOCZNA
100
AcDbLine
 10
179.8322859540863
 20
190.5947409178875
 30
0.0
 11
179.6706413439071
 21
190.5014153586874
 31
0.0
  0
LINE
  5
205
330
1F
100
AcDbEntity
  8
WIDOCZNA
100
AcDbLine
 10
150.3680656208584
 20
217.0110589247874
 30
0.0
 11
150.3680656208584
 21
211.5359594517185
 31
0.0
  0
LINE
  5
206
330
1F
100
AcDbEntity
  8
WIDOCZNA
100
AcDbLine
 10
147.4674428937531
 20
218.0739333490101
 30
0.0
 11
139.6905410929072
 21
213.5839370008304
 31
0.0
  0
ELLIPSE
  5
207
330
1F
100
AcDbEntity
  8
WIDOCZNA
100
AcDbEllipse
 10
141.2800464263364
 20
204.4950644854044
 30
0.0
 11
1.65100000000001
 21
0.0
 31
0.0
210
0.0
220
0.0
230
1.0
 40
0.5773502691896103
 41
2.356194492337234
 42
5.497787143782124
  0
ELLIPSE
  5
208
330
1F
100
AcDbEntity
  8
WIDOCZNA
100
AcDbEllipse
 10
141.2800464263364
 20
204.4950644854044
 30
0.0
 11
1.65100000000001
 21
0.0
 31
0.0
210
0.0
220
0.0
230
1.0
 40
0.5773502691896103
 41
0.7853981612525598
 42
2.356194492337234
  0
ELLIPSE
  5
209
330
1F
100
AcDbEntity
  8
WIDOCZNA
100
AcDbEllipse
 10
141.2800464263364
 20
204.4950644854044
 30
0.0
 11
1.65100000000001
 21
0.0
 31
0.0
210
0.0
220
0.0
230
1.0
 40
0.5773502691896103
 41
5.497787143782124
 42
7.068583468432146
  0
LINE
  5
20A
330
1F
100
AcDbEntity
  8
WIDOCZNA
100
AcDbLine
 10
188.7676407945501
 20
186.5765571189969
 30
0.0
 11
151.6791830145345
 21
207.989588202117
 31
0.0
  0
ELLIPSE
  5
20B
330
1F
100
AcDbEntity
  8
WIDOCZNA
100
AcDbEllipse
 10
190.051817419863
 20
189.1741185167313
 30
0.0
 11
1.498599999999982
 21
-2.595651340222702
 31
0.0
210
0.0
220
0.0
230
0.9999999999999999
 40
0.5773502691896243
 41
0.0
 42
0.7853981633974478
  0
ELLIPSE
  5
20C
330
1F
100
AcDbEntity
  8
WIDOCZNA
100
AcDbEllipse
 10
190.051817419863
 20
189.1741185167313
 30
0.0
 11
1.498599999999982
 21
-2.595651340222702
 31
0.0
210
0.0
220
0.0
230
0.9999999999999999
 40
0.5773502691896243
 41
-0.7853981633974468
 42
0.0
  0
ELLIPSE
  5
20D
330
1F
100
AcDbEntity
  8
WIDOCZNA
100
AcDbEllipse
 10
171.5042370982708
 20
200.5053918979634
 30
0.0
 11
1.0
 21
-1.732050807568868
 31
0.0
210
0.0
220
0.0
230
0.9999999999999998
 40
0.5773502691896273
 41
-3.141592653589793
 42
-2.35619449019235
  0
ELLIPSE
  5
20E
330
1F
100
AcDbEntity
  8
WIDOCZNA
100
AcDbEllipse
 10
171.5042370982708
 20
200.5053918979634
 30
0.0
 11
1.0
 21
-1.732050807568868
 31
0.0
210
0.0
220
0.0
230
0.9999999999999998
 40
0.5773502691896273
 41
0.0
 42
3.141592653589793
  0
ELLIPSE
  5
20F
330
1F
100
AcDbEntity
  8
WIDOCZNA
100
AcDbEllipse
 10
171.5042370982708
 20
200.5053918979634
 30
0.0
 11
1.0
 21
-1.732050807568868
 31
0.0
210
0.0
220
0.0
230
0.9999999999999998
 40
0.5773502691896273
 41
-2.35619449019235
 42
0.0
  0
SPLINE
  5
210
330
1F
100
AcDbEntity
  8
WIDOCZNA
100
AcDbSpline
210
0.0
220
0.0
230
1.0
 70
     8
 71
     3
 72
    38
 73
    34
 74
     0
 42
0.000000001
 43
0.000001
 40
1.143105519141991
 40
1.143105519141991
 40
1.143105519141991
 40
1.143105519141991
 40
1.400318951304098
 40
1.400318951304098
 40
1.657532383466206
 40
1.657532383466206
 40
1.914745815628313
 40
1.914745815628313
 40
2.17195924779042
 40
2.17195924779042
 40
2.455132885969399
 40
2.455132885969399
 40
2.738306524148378
 40
2.738306524148378
 40
3.296794810626289
 40
3.296794810626289
 40
3.855283097104199
 40
3.855283097104199
 40
4.413771383582109
 40
4.413771383582109
 40
4.972259670060019
 40
4.972259670060019
 40
5.255433308238998
 40
5.255433308238998
 40
5.538606946417977
 40
5.538606946417977
 40
5.795820378580084
 40
5.795820378580084
 40
6.053033810742191
 40
6.053033810742191
 40
6.310247242904298
 40
6.310247242904298
 40
6.567460675066406
 40
6.567460675066406
 40
6.567460675066406
 40
6.567460675066406
 10
179.6706413439071
 20
184.7674210098654
 30
0.0
 10
179.6100155565424
 20
184.7324186952106
 30
0.0
 10
179.5515243707509
 20
184.7019628417844
 30
0.0
 10
179.4437277591747
 20
184.6537742440057
 30
0.0
 10
179.3944111126606
 20
184.6360501754735
 30
0.0
 10
179.3073883830154
 20
184.6151990393403
 30
0.0
 10
179.2695574020507
 20
184.6120690801569
 30
0.0
 10
179.2053881743905
 20
184.6199943983394
 30
0.0
 10
179.1790107069419
 20
184.6310624762637
 30
0.0
 10
179.1337968883121
 20
184.6656111984474
 30
0.0
 10
179.113063218849
 20
184.692993798119
 30
0.0
 10
179.0805091557903
 20
184.7635734637637
 30
0.0
 10
179.0684991852518
 20
184.806709794468
 30
0.0
 10
179.0424777707146
 20
184.9389430504289
 30
0.0
 10
179.0331061605317
 20
185.0557945646873
 30
0.0
 10
179.0226532357792
 20
185.3269668946129
 30
0.0
 10
179.0212046792885
 20
185.4811442840464
 30
0.0
 10
179.0212046792885
 20
185.7851468016446
 30
0.0
 10
179.0226532357792
 20
185.9625114226484
 30
0.0
 10
179.0331061605317
 20
186.3354936140437
 30
0.0
 10
179.0424777707146
 20
186.5311735062775
 30
0.0
 10
179.0684991852518
 20
186.807243183081
 30
0.0
 10
179.0805091557903
 20
186.9097862552617
 30
0.0
 10
179.113063218849
 20
187.1135316814207
 30
0.0
 10
179.1337968883121
 20
187.2147044448513
 30
0.0
 10
179.1790107069419
 20
187.3873515819568
 30
0.0
 10
179.2053881743905
 20
187.4708489310858
 30
0.0
 10
179.2695574020507
 20
187.6315905116234
 30
0.0
 10
179.3073883830154
 20
187.7088242866934
 30
0.0
 10
179.3944111126606
 20
187.8496661109237
 30
0.0
 10
179.4437277591747
 20
187.9134331164724
 30
0.0
 10
179.5515243707509
 20
188.0224881486576
 30
0.0
 10
179.6100155565424
 20
188.067773443808
 30
0.0
 10
179.6706413439071
 20
188.1027757584628
 30
0.0
  0
ELLIPSE
  5
211
330
1F
100
AcDbEntity
  8
WIDOCZNA
100
AcDbEllipse
 10
152.4874060654307
 20
210.3123576755402
 30
0.0
 11
1.49860000000001
 21
-2.595651340222702
 31
0.0
210
0.0
220
0.0
230
1.0
 40
0.5773502691896216
 41
-2.356194490192352
 42
-0.7853981633974585
  0
ELLIPSE
  5
212
330
1F
100
AcDbEntity
  8
WIDOCZNA
100
AcDbEllipse
 10
162.2487792323203
 20
206.2824293734996
 30
0.0
 11
2.125
 21
-3.680607966083869
 31
0.0
210
0.0
220
0.0
230
1.0
 40
0.5773502691896266
 41
0.4270068653719054
 42
2.714585788217899
  0
LINE
  5
213
330
1F
100
AcDbEntity
  8
WIDOCZNA
100
AcDbLine
 10
179.6706413439071
 20
188.1027757584628
 30
0.0
 11
181.9095687824042
 21
189.3954211177752
 31
0.0
  0
LINE
  5
214
330
1F
100
AcDbEntity
  8
WIDOCZNA
100
AcDbLine
 10
185.8284717313337
 20
191.6580007902676
 30
0.0
 11
188.1480031221963
 21
192.997182863176
 31
0.0
  0
ELLIPSE
  5
215
330
1F
100
AcDbEntity
  8
WIDOCZNA
100
AcDbEllipse
 10
151.6791830145345
 20
209.84572987954
 30
0.0
 11
1.136650000000003
 21
-1.968735550423162
 31
0.0
210
0.0
220
0.0
230
1.0
 40
0.5773502691896292
 41
-2.356194490192351
 42
-0.7853981633974467
  0
ELLIPSE
  5
216
330
1F
100
AcDbEntity
  8
WIDOCZNA
100
AcDbEllipse
 10
168.3222557626875
 20
202.3425096786188
 30
0.0
 11
1.0
 21
-1.732050807568868
 31
0.0
210
0.0
220
0.0
230
0.9999999999999998
 40
0.5773502691896273
 41
-3.141592653589793
 42
-2.35619449019235
  0
ELLIPSE
  5
217
330
1F
100
AcDbEntity
  8
WIDOCZNA
100
AcDbEllipse
 10
168.3222557626875
 20
202.3425096786188
 30
0.0
 11
1.0
 21
-1.732050807568868
 31
0.0
210
0.0
220
0.0
230
0.9999999999999998
 40
0.5773502691896273
 41
0.0
 42
3.141592653589793
  0
ELLIPSE
  5
218
330
1F
100
AcDbEntity
  8
WIDOCZNA
100
AcDbEllipse
 10
168.3222557626875
 20
202.3425096786188
 30
0.0
 11
1.0
 21
-1.732050807568868
 31
0.0
210
0.0
220
0.0
230
0.9999999999999998
 40
0.5773502691896273
 41
-2.35619449019235
 42
0.0
  0
LINE
  5
219
330
1F
100
AcDbEntity
  8
WIDOCZNA
100
AcDbLine
 10
147.4674428937531
 20
218.0739333490101
 30
0.0
 11
148.9616151744864
 21
217.211272580513
 31
0.0
  0
LINE
  5
21A
330
1F
100
AcDbEntity
  8
WIDOCZNA
100
AcDbLine
 10
190.051817419863
 20
197.0964215421569
 30
0.0
 11
152.9633596398474
 21
218.5094526252769
 31
0.0
  0
LINE
  5
21B
330
1F
100
AcDbEntity
  8
WIDOCZNA
100
AcDbLine
 10
139.6905410929072
 20
205.4127658175381
 30
0.0
 11
147.4674428937531
 21
209.9027621657178
 31
0.0
  0
ELLIPSE
  5
21C
330
1F
100
AcDbEntity
  8
WIDOCZNA
100
AcDbEllipse
 10
178.9995719486967
 20
198.6437779788054
 30
0.0
 11
2.125
 21
-3.680607966083869
 31
0.0
210
0.0
220
0.0
230
1.0
 40
0.5773502691896266
 41
-3.141592653589793
 42
-2.356194490192345
  0
ELLIPSE
  5
21D
330
1F
100
AcDbEntity
  8
WIDOCZNA
100
AcDbEllipse
 10
178.9995719486967
 20
198.6437779788054
 30
0.0
 11
2.125
 21
-3.680607966083869
 31
0.0
210
0.0
220
0.0
230
1.0
 40
0.5773502691896266
 41
0.0
 42
3.141592653589793
  0
ELLIPSE
  5
21E
330
1F
100
AcDbEntity
  8
WIDOCZNA
100
AcDbEllipse
 10
178.9995719486967
 20
198.6437779788054
 30
0.0
 11
2.125
 21
-3.680607966083869
 31
0.0
210
0.0
220
0.0
230
1.0
 40
0.5773502691896266
 41
-2.356194490192345
 42
0.0
  0
ELLIPSE
  5
21F
330
1F
100
AcDbEntity
  8
WIDOCZNA
100
AcDbEllipse
 10
188.2916872201334
 20
188.1579068721087
 30
0.0
 11
1.49860000000001
 21
-2.59565134022273
 31
0.0
210
0.0
220
0.0
230
1.0
 40
0.5773502691896251
 41
-0.7853981633974503
 42
0.0
  0
ELLIPSE
  5
220
330
1F
100
AcDbEntity
  8
WIDOCZNA
100
AcDbEllipse
 10
151.6791830145345
 20
215.3208293526089
 30
0.0
 11
-1.49860000000001
 21
2.59565134022273
 31
0.0
210
0.0
220
0.0
230
1.0
 40
0.5773502691896251
 41
0.0
 42
0.7853981633974431
  0
ELLIPSE
  5
221
330
1F
100
AcDbEntity
  8
WIDOCZNA
100
AcDbEllipse
 10
151.6791830145345
 20
215.3208293526089
 30
0.0
 11
-1.49860000000001
 21
2.59565134022273
 31
0.0
210
0.0
220
0.0
230
1.0
 40
0.5773502691896251
 41
-0.273039275685658
 42
0.0
  0
LINE
  5
222
330
1F
100
AcDbEntity
  8
WIDOCZNA
100
AcDbLine
 10
149.2752539890292
 20
209.6678434562832
 30
0.0
 11
148.5747940115857
 21
209.2634326997496
 31
0.0
  0
ELLIPSE
  5
223
330
1F
100
AcDbEntity
  8
WIDOCZNA
100
AcDbEllipse
 10
151.6791830145345
 20
215.3208293526089
 30
0.0
 11
1.136650000000003
 21
-1.968735550423162
 31
0.0
210
0.0
220
0.0
230
1.0
 40
0.5773502691896292
 41
-2.977244836153812
 42
-2.356194490192351
  0
ELLIPSE
  5
224
330
1F
100
AcDbEntity
  8
WIDOCZNA
100
AcDbEllipse
 10
169.7441068985412
 20
199.4891802533407
 30
0.0
 11
1.0
 21
-1.732050807568868
 31
0.0
210
0.0
220
0.0
230
0.9999999999999998
 40
0.5773502691896273
 41
1.075999277801513
 42
2.065593375788279
  0
ELLIPSE
  5
225
330
1F
100
AcDbEntity
  8
WIDOCZNA
100
AcDbEllipse
 10
155.7357586779536
 20
212.075146833046
 30
0.0
 11
2.125
 21
-3.680607966083869
 31
0.0
210
0.0
220
0.0
230
1.0
 40
0.5773502691896266
 41
-3.141592653589793
 42
-2.356194490192345
  0
ELLIPSE
  5
226
330
1F
100
AcDbEntity
  8
WIDOCZNA
100
AcDbEllipse
 10
155.7357586779536
 20
212.075146833046
 30
0.0
 11
2.125
 21
-3.680607966083869
 31
0.0
210
0.0
220
0.0
230
1.0
 40
0.5773502691896266
 41
0.0
 42
3.141592653589793
  0
ELLIPSE
  5
227
330
1F
100
AcDbEntity
  8
WIDOCZNA
100
AcDbEllipse
 10
155.7357586779536
 20
212.075146833046
 30
0.0
 11
2.125
 21
-3.680607966083869
 31
0.0
210
0.0
220
0.0
230
1.0
 40
0.5773502691896266
 41
-2.356194490192345
 42
0.0
  0
ELLIPSE
  5
228
330
1F
100
AcDbEntity
  8
WIDOCZNA
100
AcDbEllipse
 10
151.6791830145345
 20
209.84572987954
 30
0.0
 11
-1.49860000000001
 21
2.595651340222702
 31
0.0
210
0.0
220
0.0
230
1.0
 40
0.5773502691896345
 41
0.7853981633974411
 42
2.356194490192346
  0
ELLIPSE
  5
229
330
1F
100
AcDbEntity
  8
WIDOCZNA
100
AcDbEllipse
 10
166.5621255629579
 20
201.3262980339962
 30
0.0
 11
1.0
 21
-1.732050807568896
 31
0.0
210
0.0
220
0.0
230
1.0
 40
0.5773502691896202
 41
1.075999277801508
 42
2.065593375788292
  0
LINE
  5
22A
330
1F
100
AcDbEntity
  8
WIDOCZNA
100
AcDbLine
 10
150.8440191952751
 20
217.2858508490987
 30
0.0
 11
150.8440191952751
 21
211.8107513760297
 31
0.0
  0
ELLIPSE
  5
22B
330
1F
100
AcDbEntity
  8
WIDOCZNA
100
AcDbEllipse
 10
183.1360269903128
 20
192.5160402063886
 30
0.0
 11
0.375
 21
-0.6495190528383432
 31
0.0
210
0.0
220
0.0
230
1.0
 40
0.5773502691896132
 41
-3.141592653589761
 42
-2.356194490192292
  0
ELLIPSE
  5
22C
330
1F
100
AcDbEntity
  8
WIDOCZNA
100
AcDbEllipse
 10
183.1360269903128
 20
192.5160402063886
 30
0.0
 11
0.375
 21
-0.6495190528383432
 31
0.0
210
0.0
220
0.0
230
1.0
 40
0.5773502691896132
 41
0.0
 42
3.141592653589826
  0
ELLIPSE
  5
22D
330
1F
100
AcDbEntity
  8
WIDOCZNA
100
AcDbEllipse
 10
183.1360269903128
 20
192.5160402063886
 30
0.0
 11
0.375
 21
-0.6495190528383432
 31
0.0
210
0.0
220
0.0
230
1.0
 40
0.5773502691896132
 41
-2.356194490192292
 42
0.0
  0
ELLIPSE
  5
22E
330
1F
100
AcDbEntity
  8
WIDOCZNA
100
AcDbEllipse
 10
153.9756284782241
 20
211.0589351884234
 30
0.0
 11
2.125
 21
-3.680607966083869
 31
0.0
210
0.0
220
0.0
230
1.0
 40
0.5773502691896266
 41
0.4270068653719054
 42
2.714585788217899
  0
LINE
  5
22F
330
1F
100
AcDbEntity
  8
WIDOCZNA
100
AcDbLine
 10
192.1711578644353
 20
187.950516740553
 30
0.0
 11
192.1711578644353
 21
193.425616213622
 31
0.0
  0
ELLIPSE
  5
230
330
1F
100
AcDbEntity
  8
WIDOCZNA
100
AcDbEllipse
 10
141.2800464263364
 20
212.6662356686967
 30
0.0
 11
2.247899999999987
 21
0.0
 31
0.0
210
0.0
220
0.0
230
1.0
 40
0.5773502691896314
 41
2.356194490192355
 42
3.141592653589793
  0
LINE
  5
231
330
1F
100
AcDbEntity
  8
WIDOCZNA
100
AcDbLine
 10
188.7676407945501
 20
185.9854952440633
 30
0.0
 11
151.6791830145345
 21
207.3985263271834
 31
0.0
  0
ELLIPSE
  5
232
330
1F
100
AcDbEntity
  8
WIDOCZNA
100
AcDbEllipse
 10
152.9633596398474
 20
216.0622490729204
 30
0.0
 11
-1.498599999999982
 21
2.595651340222702
 31
0.0
210
0.0
220
0.0
230
0.9999999999999999
 40
0.5773502691896243
 41
0.0
 42
0.7853981633974478
  0
ELLIPSE
  5
233
330
1F
100
AcDbEntity
  8
WIDOCZNA
100
AcDbEllipse
 10
152.9633596398474
 20
216.0622490729204
 30
0.0
 11
-1.498599999999982
 21
2.595651340222702
 31
0.0
210
0.0
220
0.0
230
0.9999999999999999
 40
0.5773502691896243
 41
-0.7853981633974468
 42
0.0
  0
ELLIPSE
  5
234
330
1F
100
AcDbEntity
  8
WIDOCZNA
100
AcDbEllipse
 10
177.2394417489671
 20
197.6275663341827
 30
0.0
 11
2.125
 21
-3.680607966083869
 31
0.0
210
0.0
220
0.0
230
1.0
 40
0.5773502691896266
 41
0.4270068653719054
 42
2.714585788217888
  0
ELLIPSE
  5
235
330
1F
100
AcDbEntity
  8
WIDOCZNA
100
AcDbEllipse
 10
174.6862184338541
 20
198.668274117308
 30
0.0
 11
1.0
 21
-1.732050807568868
 31
0.0
210
0.0
220
0.0
230
0.9999999999999998
 40
0.5773502691896273
 41
-3.141592653589805
 42
-2.356194490192368
  0
ELLIPSE
  5
236
330
1F
100
AcDbEntity
  8
WIDOCZNA
100
AcDbEllipse
 10
174.6862184338541
 20
198.668274117308
 30
0.0
 11
1.0
 21
-1.732050807568868
 31
0.0
210
0.0
220
0.0
230
0.9999999999999998
 40
0.5773502691896273
 41
0.0
 42
3.141592653589781
  0
ELLIPSE
  5
237
330
1F
100
AcDbEntity
  8
WIDOCZNA
100
AcDbEllipse
 10
174.6862184338541
 20
198.668274117308
 30
0.0
 11
1.0
 21
-1.732050807568868
 31
0.0
210
0.0
220
0.0
230
0.9999999999999998
 40
0.5773502691896273
 41
-2.356194490192368
 42
0.0
  0
ELLIPSE
  5
238
330
1F
100
AcDbEntity
  8
WIDOCZNA
100
AcDbEllipse
 10
151.2032294401178
 20
215.0460374282977
 30
0.0
 11
-1.49860000000001
 21
2.595651340222702
 31
0.0
210
0.0
220
0.0
230
1.0
 40
0.5773502691896345
 41
0.0
 42
0.0288151433671645
  0
LINE
  5
239
330
1F
100
AcDbEntity
  8
WIDOCZNA
100
AcDbLine
 10
152.4874060654307
 20
207.8651541231836
 30
0.0
 11
189.5758638454463
 21
186.4521230400635
 31
0.0
  0
LINE
  5
23A
330
1F
100
AcDbEntity
  8
WIDOCZNA
100
AcDbLine
 10
150.0717171688631
 20
210.7738007182515
 30
0.0
 11
150.0717171688631
 21
216.2489001913204
 31
0.0
  0
ELLIPSE
  5
23B
330
1F
100
AcDbEntity
  8
WIDOCZNA
100
AcDbEllipse
 10
181.2601466773363
 20
181.938276826755
 30
0.0
 11
1.007110000000011
 21
0.0
 31
0.0
210
0.0
220
0.0
230
1.0
 40
0.5773502691896181
 41
5.497787143782114
 42
6.283185307179586
  0
ELLIPSE
  5
23C
330
1F
100
AcDbEntity
  8
WIDOCZNA
100
AcDbEllipse
 10
181.2601466773363
 20
181.938276826755
 30
0.0
 11
1.007110000000011
 21
0.0
 31
0.0
210
0.0
220
0.0
230
1.0
 40
0.5773502691896181
 41
0.0
 42
0.5018684837295074
  0
ELLIPSE
  5
23D
330
1F
100
AcDbEntity
  8
WIDOCZNA
100
AcDbEllipse
 10
181.2601466773363
 20
181.938276826755
 30
0.0
 11
1.007110000000011
 21
0.0
 31
0.0
210
0.0
220
0.0
230
1.0
 40
0.5773502691896181
 41
2.639724169860272
 42
3.141592653589793
  0
ELLIPSE
  5
23E
330
1F
100
AcDbEntity
  8
WIDOCZNA
100
AcDbEllipse
 10
181.2601466773363
 20
181.938276826755
 30
0.0
 11
1.007110000000011
 21
0.0
 31
0.0
210
0.0
220
0.0
230
1.0
 40
0.5773502691896181
 41
3.141592653589793
 42
5.497787143782114
  0
ELLIPSE
  5
23F
330
1F
100
AcDbEntity
  8
WIDOCZNA
100
AcDbEllipse
 10
187.2727227027929
 20
193.8672721638816
 30
0.0
 11
2.125
 21
-3.680607966083869
 31
0.0
210
0.0
220
0.0
230
1.0
 40
0.5773502691896266
 41
-3.141592653589793
 42
-2.356194490192345
  0
ELLIPSE
  5
240
330
1F
100
AcDbEntity
  8
WIDOCZNA
100
AcDbEllipse
 10
187.2727227027929
 20
193.8672721638816
 30
0.0
 11
2.125
 21
-3.680607966083869
 31
0.0
210
0.0
220
0.0
230
1.0
 40
0.5773502691896266
 41
0.0
 42
3.141592653589793
  0
ELLIPSE
  5
241
330
1F
100
AcDbEntity
  8
WIDOCZNA
100
AcDbEllipse
 10
187.2727227027929
 20
193.8672721638816
 30
0.0
 11
2.125
 21
-3.680607966083869
 31
0.0
210
0.0
220
0.0
230
1.0
 40
0.5773502691896266
 41
-2.356194490192345
 42
0.0
  0
ELLIPSE
  5
242
330
1F
100
AcDbEntity
  8
WIDOCZNA
100
AcDbEllipse
 10
151.2032294401178
 20
209.5709379552287
 30
0.0
 11
1.498599999999982
 21
-2.595651340222702
 31
0.0
210
0.0
220
0.0
230
0.9999999999999999
 40
0.5773502691896325
 41
-1.927972232929271
 42
-0.7853981633974398
  0
LINE
  5
243
330
1F
100
AcDbEntity
  8
WIDOCZNA
100
AcDbLine
 10
190.6265538116114
 20
186.1674169045626
 30
0.0
 11
190.6265538116114
 21
184.9848378593074
 31
0.0
  0
ELLIPSE
  5
244
330
1F
100
AcDbEntity
  8
WIDOCZNA
100
AcDbEllipse
 10
189.5758638454463
 20
188.8993265924201
 30
0.0
 11
1.49860000000001
 21
-2.595651340222702
 31
0.0
210
0.0
220
0.0
230
1.0
 40
0.5773502691896345
 41
-0.7853981633974473
 42
0.0
  0
ELLIPSE
  5
245
330
1F
100
AcDbEntity
  8
WIDOCZNA
100
AcDbEllipse
 10
141.2800464263364
 20
205.020798468898
 30
0.0
 11
1.007110000000011
 21
0.0
 31
0.0
210
0.0
220
0.0
230
1.0
 40
0.5773502691896181
 41
5.497787143782114
 42
6.283185307179586
  0
ELLIPSE
  5
246
330
1F
100
AcDbEntity
  8
WIDOCZNA
100
AcDbEllipse
 10
141.2800464263364
 20
205.020798468898
 30
0.0
 11
1.007110000000011
 21
0.0
 31
0.0
210
0.0
220
0.0
230
1.0
 40
0.5773502691896181
 41
0.0
 42
0.501868483729521
  0
ELLIPSE
  5
247
330
1F
100
AcDbEntity
  8
WIDOCZNA
100
AcDbEllipse
 10
141.2800464263364
 20
205.020798468898
 30
0.0
 11
1.007110000000011
 21
0.0
 31
0.0
210
0.0
220
0.0
230
1.0
 40
0.5773502691896181
 41
2.639724169860272
 42
3.141592653589793
  0
ELLIPSE
  5
248
330
1F
100
AcDbEntity
  8
WIDOCZNA
100
AcDbEllipse
 10
141.2800464263364
 20
205.020798468898
 30
0.0
 11
1.007110000000011
 21
0.0
 31
0.0
210
0.0
220
0.0
230
1.0
 40
0.5773502691896181
 41
3.141592653589793
 42
5.497787143782114
  0
ELLIPSE
  5
249
330
1F
100
AcDbEntity
  8
WIDOCZNA
100
AcDbEllipse
 10
159.9075689879184
 20
205.9269966869309
 30
0.0
 11
0.3749999999999999
 21
-0.6495190528383148
 31
0.0
210
0.0
220
0.0
230
1.0
 40
0.5773502691896322
 41
-3.141592653589825
 42
-2.356194490192375
  0
ELLIPSE
  5
24A
330
1F
100
AcDbEntity
  8
WIDOCZNA
100
AcDbEllipse
 10
159.9075689879184
 20
205.9269966869309
 30
0.0
 11
0.3749999999999999
 21
-0.6495190528383148
 31
0.0
210
0.0
220
0.0
230
1.0
 40
0.5773502691896322
 41
0.0
 42
3.141592653589761
  0
ELLIPSE
  5
24B
330
1F
100
AcDbEntity
  8
WIDOCZNA
100
AcDbEllipse
 10
159.9075689879184
 20
205.9269966869309
 30
0.0
 11
0.3749999999999999
 21
-0.6495190528383148
 31
0.0
210
0.0
220
0.0
230
1.0
 40
0.5773502691896322
 41
-2.356194490192375
 42
0.0
  0
LINE
  5
24C
330
1F
100
AcDbEntity
  8
WIDOCZNA
100
AcDbLine
 10
147.4674428937531
 20
209.9027621657178
 30
0.0
 11
147.4674428937531
 21
218.0739333490101
 31
0.0
  0
LINE
  5
24D
330
1F
100
AcDbEntity
  8
WIDOCZNA
100
AcDbLine
 10
148.3834290181021
 20
210.3901289748735
 30
0.0
 11
148.3834290181021
 21
215.8652284479425
 31
0.0
  0
ELLIPSE
  5
24E
330
1F
100
AcDbEntity
  8
WIDOCZNA
100
AcDbEllipse
 10
150.5027694626744
 20
214.6416266717642
 30
0.0
 11
-1.498599999999982
 21
2.595651340222702
 31
0.0
210
0.0
220
0.0
230
0.9999999999999999
 40
0.5773502691896243
 41
0.0288151433671788
 42
0.7853981633974478
  0
LINE
  5
24F
330
1F
100
AcDbEntity
  8
WIDOCZNA
100
AcDbLine
 10
189.7902872201335
 20
185.562255531886
 30
0.0
 11
190.2662407945501
 21
185.8370474561972
 31
0.0
  0
LINE
  5
250
330
1F
100
AcDbEntity
  8
WIDOCZNA
100
AcDbLine
 10
179.0122466773363
 20
181.4125428432614
 30
0.0
 11
179.0122466773363
 21
189.5837140265537
 31
0.0
  0
LINE
  5
251
330
1F
100
AcDbEntity
  8
WIDOCZNA
100
AcDbLine
 10
150.9888060654307
 20
218.3831084888319
 30
0.0
 11
151.4647596398474
 21
218.6579004131431
 31
0.0
  0
LINE
  5
252
330
1F
100
AcDbEntity
  8
WIDOCZNA
100
AcDbLine
 10
139.0321464263364
 20
204.4950644854044
 30
0.0
 11
139.0321464263364
 21
212.6662356686967
 31
0.0
  0
LINE
  5
253
330
1F
100
AcDbEntity
  8
WIDOCZNA
100
AcDbLine
 10
191.0744638454463
 20
186.3036752521974
 30
0.0
 11
191.550417419863
 21
186.5784671765086
 31
0.0
  0
LINE
  5
254
330
1F
100
AcDbEntity
  8
WIDOCZNA
100
AcDbLine
 10
149.7046294401178
 20
217.6416887685204
 30
0.0
 11
150.1805830145345
 21
217.9164806928317
 31
0.0
  0
LINE
  5
255
330
1F
100
AcDbEntity
  8
STYCZNE_KRAWÊDZIE
100
AcDbLine
 10
139.6905410929072
 20
205.4127658175381
 30
0.0
 11
139.6905410929072
 21
213.5839370008304
 31
0.0
  0
LINE
  5
256
330
1F
100
AcDbEntity
  8
STYCZNE_KRAWÊDZIE
100
AcDbLine
 10
141.9921807367372
 20
205.3550384625204
 30
0.0
 11
141.9921807367372
 21
204.6096475330889
 31
0.0
  0
LINE
  5
257
330
1F
100
AcDbEntity
  8
STYCZNE_KRAWÊDZIE
100
AcDbLine
 10
152.4874060654307
 20
207.8651541231836
 30
0.0
 11
152.9633596398474
 21
208.1399460474948
 31
0.0
  0
LINE
  5
258
330
1F
100
AcDbEntity
  8
STYCZNE_KRAWÊDZIE
100
AcDbLine
 10
179.6706413439071
 20
188.1027757584628
 30
0.0
 11
179.6706413439071
 21
190.5014153586874
 31
0.0
  0
LINE
  5
259
330
1F
100
AcDbEntity
  8
STYCZNE_KRAWÊDZIE
100
AcDbLine
 10
148.3834290181021
 20
215.8652284479425
 30
0.0
 11
149.5598425699622
 21
216.5444311287872
 31
0.0
  0
LINE
  5
25A
330
1F
100
AcDbEntity
  8
STYCZNE_KRAWÊDZIE
100
AcDbLine
 10
181.9722809879414
 20
181.5271258910639
 30
0.0
 11
182.4275799728709
 21
180.7385249155876
 31
0.0
  0
LINE
  5
25B
330
1F
100
AcDbEntity
  8
STYCZNE_KRAWÊDZIE
100
AcDbLine
 10
149.5598425699622
 20
211.0693316557183
 30
0.0
 11
148.3834290181021
 21
210.3901289748735
 31
0.0
  0
LINE
  5
25C
330
1F
100
AcDbEntity
  8
STYCZNE_KRAWÊDZIE
100
AcDbLine
 10
151.6791830145345
 20
207.989588202117
 30
0.0
 11
152.0263009161204
 21
208.1899968160382
 31
0.0
  0
LINE
  5
25D
330
1F
100
AcDbEntity
  8
STYCZNE_KRAWÊDZIE
100
AcDbLine
 10
151.2032294401178
 20
207.1237344028722
 30
0.0
 11
151.6791830145345
 21
207.3985263271834
 31
0.0
  0
LINE
  5
25E
330
1F
100
AcDbEntity
  8
STYCZNE_KRAWÊDZIE
100
AcDbLine
 10
190.051817419863
 20
186.7269149643748
 30
0.0
 11
189.5758638454463
 21
186.4521230400635
 31
0.0
  0
LINE
  5
25F
330
1F
100
AcDbEntity
  8
STYCZNE_KRAWÊDZIE
100
AcDbLine
 10
141.9921807369415
 20
204.6096475332069
 30
0.0
 11
142.447479721871
 21
203.8210465577306
 31
0.0
  0
LINE
  5
260
330
1F
100
AcDbEntity
  8
STYCZNE_KRAWÊDZIE
100
AcDbLine
 10
150.3680656208584
 20
217.0110589247874
 30
0.0
 11
150.8440191952751
 21
217.2858508490987
 31
0.0
  0
LINE
  5
261
330
1F
100
AcDbEntity
  8
STYCZNE_KRAWÊDZIE
100
AcDbLine
 10
179.6706413439071
 20
182.3302441753951
 30
0.0
 11
179.6706413439071
 21
184.7674210098654
 31
0.0
  0
LINE
  5
262
330
1F
100
AcDbEntity
  8
STYCZNE_KRAWÊDZIE
100
AcDbLine
 10
150.0717171688631
 20
216.2489001913204
 30
0.0
 11
150.3680656208584
 21
216.4199970498538
 31
0.0
  0
LINE
  5
263
330
1F
100
AcDbEntity
  8
STYCZNE_KRAWÊDZIE
100
AcDbLine
 10
188.7676407945501
 20
186.5765571189969
 30
0.0
 11
189.0639892465454
 21
186.7476539775303
 31
0.0
  0
LINE
  5
264
330
1F
100
AcDbEntity
  8
STYCZNE_KRAWÊDZIE
100
AcDbLine
 10
150.0717171688631
 20
210.7738007182515
 30
0.0
 11
150.418835070449
 21
210.9742093321726
 31
0.0
  0
LINE
  5
265
330
1F
100
AcDbEntity
  8
STYCZNE_KRAWÊDZIE
100
AcDbLine
 10
150.8440191952751
 20
211.8107513760297
 30
0.0
 11
150.3680656208584
 21
211.5359594517185
 31
0.0
  0
LINE
  5
266
330
1F
100
AcDbEntity
  8
STYCZNE_KRAWÊDZIE
100
AcDbLine
 10
188.7676407945501
 20
185.9854952440633
 30
0.0
 11
188.2916872201334
 21
185.7107033197521
 31
0.0
  0
LINE
  5
267
330
1F
100
AcDbEntity
  8
STYCZNE_KRAWÊDZIE
100
AcDbLine
 10
181.9722809877371
 20
182.2725168203774
 30
0.0
 11
181.9722809877371
 21
181.5271258909459
 31
0.0
  0
LINE
  5
268
330
1F
100
AcDbEntity
  8
WIDOCZNA
100
AcDbLine
 10
8.990179334844548
 20
126.8953591719178
 30
0.0
 11
46.07863711486015
 21
105.4823280887977
 31
0.0
  0
LINE
  5
269
330
1F
100
AcDbEntity
  8
WIDOCZNA
100
AcDbLine
 10
50.29037723564158
 20
96.06163136288262
 30
0.0
 11
49.18302611780888
 21
96.70096082885077
 31
0.0
  0
LINE
  5
26A
330
1F
100
AcDbEntity
  8
WIDOCZNA
100
AcDbLine
 10
46.55459068927681
 20
106.3481818880425
 30
0.0
 11
9.466132909261209
 21
127.7612129711626
 31
0.0
  0
ELLIPSE
  5
26B
330
1F
100
AcDbEntity
  8
WIDOCZNA
100
AcDbEllipse
 10
47.25505066672021
 20
104.3053890922194
 30
0.0
 11
-1.498599999999996
 21
2.595651340222716
 31
0.0
210
0.0
220
0.0
230
1.0
 40
0.5773502691896312
 41
3.926990816987234
 42
4.683573837017512
  0
ELLIPSE
  5
26C
330
1F
100
AcDbEntity
  8
WIDOCZNA
100
AcDbEllipse
 10
16.49767345205836
 20
132.1972878851378
 30
0.0
 11
1.007110000000001
 21
0.0
 31
0.0
210
0.0
220
0.0
230
1.0
 40
0.5773502691896242
 41
5.781316823450073
 42
6.283185307179586
  0
ELLIPSE
  5
26D
330
1F
100
AcDbEntity
  8
WIDOCZNA
100
AcDbEllipse
 10
16.49767345205836
 20
132.1972878851378
 30
0.0
 11
1.007110000000001
 21
0.0
 31
0.0
210
0.0
220
0.0
230
1.0
 40
0.5773502691896242
 41
0.0
 42
3.141592653589793
  0
ELLIPSE
  5
26E
330
1F
100
AcDbEntity
  8
WIDOCZNA
100
AcDbEllipse
 10
16.49767345205836
 20
132.1972878851378
 30
0.0
 11
1.007110000000001
 21
0.0
 31
0.0
210
0.0
220
0.0
230
1.0
 40
0.5773502691896242
 41
3.141592653589793
 42
3.643461137319304
  0
LINE
  5
26F
330
1F
100
AcDbEntity
  8
WIDOCZNA
100
AcDbLine
 10
8.990179334844548
 20
127.4864210468514
 30
0.0
 11
46.07863711486015
 21
106.0733899637313
 31
0.0
  0
LINE
  5
270
330
1F
100
AcDbEntity
  8
WIDOCZNA
100
AcDbLine
 10
58.06727903648747
 20
108.7227988943546
 30
0.0
 11
50.29037723564158
 21
104.2328025461749
 31
0.0
  0
LINE
  5
271
330
1F
100
AcDbEntity
  8
WIDOCZNA
100
AcDbLine
 10
10.62770308227899
 20
119.3274190479443
 30
0.0
 11
13.01542369618265
 21
120.7059701871312
 31
0.0
  0
LINE
  5
272
330
1F
100
AcDbEntity
  8
WIDOCZNA
100
AcDbLine
 10
17.35079778355993
 20
123.2089995835162
 30
0.0
 11
18.0871787854876
 21
123.6341493532053
 31
0.0
  0
ELLIPSE
  5
273
330
1F
100
AcDbEntity
  8
WIDOCZNA
100
AcDbEllipse
 10
44.79446048954726
 20
102.8847666910633
 30
0.0
 11
1.498600000000003
 21
-2.595651340222716
 31
0.0
210
0.0
220
0.0
230
1.0
 40
0.577350269189624
 41
0.7853981633974533
 42
2.356194490192342
  0
ELLIPSE
  5
274
330
1F
100
AcDbEntity
  8
WIDOCZNA
100
AcDbEllipse
 10
7.706002709531655
 20
118.8226983011144
 30
0.0
 11
-1.498599999999999
 21
2.595651340222716
 31
0.0
210
0.0
220
0.0
230
0.9999999999999999
 40
0.5773502691896248
 41
0.785398163397451
 42
2.356194490192344
  0
ELLIPSE
  5
275
330
1F
100
AcDbEntity
  8
WIDOCZNA
100
AcDbEllipse
 10
56.47777370305821
 20
101.469329043196
 30
0.0
 11
2.247900000000008
 21
-1.421085471520200E-14
 31
0.0
210
0.0
220
0.0
230
1.0
 40
0.5773502691896196
 41
-0.7853981633974427
 42
0.0
  0
ELLIPSE
  5
276
330
1F
100
AcDbEntity
  8
WIDOCZNA
100
AcDbEllipse
 10
56.47777370305823
 20
109.6405002264883
 30
0.0
 11
2.247900000000008
 21
0.0
 31
0.0
210
0.0
220
0.0
230
1.0
 40
0.5773502691896196
 41
0.0
 42
2.356194490192331
  0
ELLIPSE
  5
277
330
1F
100
AcDbEntity
  8
WIDOCZNA
100
AcDbEllipse
 10
56.47777370305823
 20
109.6405002264883
 30
0.0
 11
2.247900000000008
 21
0.0
 31
0.0
210
0.0
220
0.0
230
1.0
 40
0.5773502691896196
 41
5.497787143782134
 42
6.283185307179586
  0
ELLIPSE
  5
278
330
1F
100
AcDbEntity
  8
WIDOCZNA
100
AcDbEllipse
 10
45.27041406396393
 20
103.1595586153745
 30
0.0
 11
1.49860000000001
 21
-2.59565134022273
 31
0.0
210
0.0
220
0.0
230
1.0
 40
0.5773502691896254
 41
0.785398163397446
 42
2.356194490192344
  0
ELLIPSE
  5
279
330
1F
100
AcDbEntity
  8
WIDOCZNA
100
AcDbEllipse
 10
8.181956283948322
 20
124.5725896984946
 30
0.0
 11
-1.498599999999999
 21
2.595651340222715
 31
0.0
210
0.0
220
0.0
230
1.0
 40
0.5773502691896246
 41
-0.7853981633974496
 42
0.0
  0
LINE
  5
27A
330
1F
100
AcDbEntity
  8
WIDOCZNA
100
AcDbLine
 10
50.29037723564158
 20
96.06163136288262
 30
0.0
 11
58.06727903648746
 21
100.5516277110623
 31
0.0
  0
ELLIPSE
  5
27B
330
1F
100
AcDbEntity
  8
WIDOCZNA
100
AcDbEllipse
 10
18.75155250173409
 20
115.5341897193853
 30
0.0
 11
2.124999999999992
 21
-3.680607966083868
 31
0.0
210
0.0
220
0.0
230
1.0
 40
0.5773502691896255
 41
-3.141592653589787
 42
-2.356194490192342
  0
ELLIPSE
  5
27C
330
1F
100
AcDbEntity
  8
WIDOCZNA
100
AcDbEllipse
 10
18.75155250173409
 20
115.5341897193853
 30
0.0
 11
2.124999999999992
 21
-3.680607966083868
 31
0.0
210
0.0
220
0.0
230
1.0
 40
0.5773502691896255
 41
0.0
 42
3.141592653589799
  0
ELLIPSE
  5
27D
330
1F
100
AcDbEntity
  8
WIDOCZNA
100
AcDbEllipse
 10
18.75155250173409
 20
115.5341897193853
 30
0.0
 11
2.124999999999992
 21
-3.680607966083868
 31
0.0
210
0.0
220
0.0
230
1.0
 40
0.5773502691896255
 41
-2.356194490192342
 42
0.0
  0
ELLIPSE
  5
27E
330
1F
100
AcDbEntity
  8
WIDOCZNA
100
AcDbEllipse
 10
46.07863711486016
 20
103.6261864113747
 30
0.0
 11
1.498599999999989
 21
-2.595651340222716
 31
0.0
210
0.0
220
0.0
230
1.0
 40
0.5773502691896295
 41
0.7853981633974505
 42
2.356194490192351
  0
LINE
  5
27F
330
1F
100
AcDbEntity
  8
WIDOCZNA
100
AcDbLine
 10
18.0871787854876
 20
131.8053205364976
 30
0.0
 11
10.27435596015744
 21
127.2945851751624
 31
0.0
  0
ELLIPSE
  5
280
330
1F
100
AcDbEntity
  8
WIDOCZNA
100
AcDbEllipse
 10
46.07863711486015
 20
98.15108693830574
 30
0.0
 11
-1.136650000000003
 21
1.968735550423162
 31
0.0
210
0.0
220
0.0
230
1.0
 40
0.5773502691896204
 41
3.30594047102577
 42
3.926990816987238
  0
LINE
  5
281
330
1F
100
AcDbEntity
  8
WIDOCZNA
100
AcDbLine
 10
8.625438598516553
 20
128.2880660840883
 30
0.0
 11
8.011331417645522
 21
127.9335111379012
 31
0.0
  0
ELLIPSE
  5
282
330
1F
100
AcDbEntity
  8
WIDOCZNA
100
AcDbEllipse
 10
31.18899170326795
 20
107.9200344631936
 30
0.0
 11
1.000000000000004
 21
-1.732050807568868
 31
0.0
210
0.0
220
0.0
230
1.0
 40
0.577350269189632
 41
-2.065593375788293
 42
-1.075999277801511
  0
ELLIPSE
  5
283
330
1F
100
AcDbEntity
  8
WIDOCZNA
100
AcDbEllipse
 10
46.07863711486015
 20
98.15108693830572
 30
0.0
 11
1.498599999999996
 21
-2.595651340222716
 31
0.0
210
0.0
220
0.0
230
1.0
 40
0.5773502691896267
 41
0.0
 42
0.7853981633974529
  0
ELLIPSE
  5
284
330
1F
100
AcDbEntity
  8
WIDOCZNA
100
AcDbEllipse
 10
46.07863711486015
 20
98.15108693830572
 30
0.0
 11
1.498599999999996
 21
-2.595651340222716
 31
0.0
210
0.0
220
0.0
230
1.0
 40
0.5773502691896267
 41
-0.2730392756856624
 42
0.0
  0
ELLIPSE
  5
285
330
1F
100
AcDbEntity
  8
WIDOCZNA
100
AcDbEllipse
 10
16.49767345205836
 20
124.551850685339
 30
0.0
 11
2.247900000000001
 21
0.0
 31
0.0
210
0.0
220
0.0
230
1.0
 40
0.5773502691896215
 41
5.497787143782134
 42
6.283185307179586
  0
ELLIPSE
  5
286
330
1F
100
AcDbEntity
  8
WIDOCZNA
100
AcDbEllipse
 10
46.07863711486016
 20
103.6261864113747
 30
0.0
 11
-1.13665000000001
 21
1.968735550423162
 31
0.0
210
0.0
220
0.0
230
0.9999999999999999
 40
0.5773502691896195
 41
3.926990816987243
 42
5.497787143782127
  0
LINE
  5
287
330
1F
100
AcDbEntity
  8
WIDOCZNA
100
AcDbLine
 10
7.706002709531654
 20
116.3754947487578
 30
0.0
 11
44.79446048954726
 21
94.96246366563773
 31
0.0
  0
ELLIPSE
  5
288
330
1F
100
AcDbEntity
  8
WIDOCZNA
100
AcDbEllipse
 10
43.77549597220668
 20
103.1190325097672
 30
0.0
 11
2.125000000000007
 21
-3.680607966083869
 31
0.0
210
0.0
220
0.0
230
1.0
 40
0.5773502691896261
 41
-2.714585788217896
 42
-0.4270068653718986
  0
LINE
  5
289
330
1F
100
AcDbEntity
  8
WIDOCZNA
100
AcDbLine
 10
49.37439111129253
 20
103.0817873160411
 30
0.0
 11
49.37439111129253
 21
97.60668784297216
 31
0.0
  0
LINE
  5
28A
330
1F
100
AcDbEntity
  8
WIDOCZNA
100
AcDbLine
 10
47.02302802568618
 20
106.0172029288055
 30
0.0
 11
54.88826836962898
 21
110.558201558622
 31
0.0
  0
LINE
  5
28B
330
1F
100
AcDbEntity
  8
WIDOCZNA
100
AcDbLine
 10
7.131266317783233
 20
129.1507268525854
 30
0.0
 11
14.90816811862912
 21
133.6407232007651
 31
0.0
  0
ELLIPSE
  5
28C
330
1F
100
AcDbEntity
  8
WIDOCZNA
100
AcDbEllipse
 10
44.79446048954726
 20
97.40966721799431
 30
0.0
 11
1.498599999999989
 21
-2.595651340222716
 31
0.0
210
0.0
220
0.0
230
1.0
 40
0.5773502691896295
 41
0.0
 42
0.7853981633974413
  0
ELLIPSE
  5
28D
330
1F
100
AcDbEntity
  8
WIDOCZNA
100
AcDbEllipse
 10
44.79446048954726
 20
97.40966721799431
 30
0.0
 11
1.498599999999989
 21
-2.595651340222716
 31
0.0
210
0.0
220
0.0
230
1.0
 40
0.5773502691896295
 41
-0.7853981633974424
 42
0.0
  0
ELLIPSE
  5
28E
330
1F
100
AcDbEntity
  8
WIDOCZNA
100
AcDbEllipse
 10
26.24688016795507
 20
108.7409405992264
 30
0.0
 11
1.0
 21
-1.732050807568882
 31
0.0
210
0.0
220
0.0
230
0.9999999999999999
 40
0.5773502691896237
 41
-3.141592653589793
 42
-2.356194490192338
  0
ELLIPSE
  5
28F
330
1F
100
AcDbEntity
  8
WIDOCZNA
100
AcDbEllipse
 10
26.24688016795507
 20
108.7409405992264
 30
0.0
 11
1.0
 21
-1.732050807568882
 31
0.0
210
0.0
220
0.0
230
0.9999999999999999
 40
0.5773502691896237
 41
0.0
 42
3.141592653589793
  0
ELLIPSE
  5
290
330
1F
100
AcDbEntity
  8
WIDOCZNA
100
AcDbEllipse
 10
26.24688016795507
 20
108.7409405992264
 30
0.0
 11
1.0
 21
-1.732050807568882
 31
0.0
210
0.0
220
0.0
230
0.9999999999999999
 40
0.5773502691896237
 41
-2.356194490192338
 42
0.0
  0
LINE
  5
291
330
1F
100
AcDbEntity
  8
WIDOCZNA
100
AcDbLine
 10
49.18302611780888
 20
96.70096082885077
 30
0.0
 11
48.48256614036549
 21
96.29655007231726
 31
0.0
  0
LINE
  5
292
330
1F
100
AcDbEntity
  8
WIDOCZNA
100
AcDbLine
 10
48.19797755943247
 20
102.4025846351964
 30
0.0
 11
48.19797755943247
 21
96.92748516212744
 31
0.0
  0
LINE
  5
293
330
1F
100
AcDbEntity
  8
WIDOCZNA
100
AcDbLine
 10
45.27041406396393
 20
105.6067621677311
 30
0.0
 11
8.181956283948324
 21
127.0197932508512
 31
0.0
  0
ELLIPSE
  5
294
330
1F
100
AcDbEntity
  8
WIDOCZNA
100
AcDbEllipse
 10
20.51168270146364
 20
116.5504013640079
 30
0.0
 11
2.124999999999996
 21
-3.680607966083869
 31
0.0
210
0.0
220
0.0
230
1.0
 40
0.5773502691896251
 41
-2.356194490192342
 42
-0.4270068653718995
  0
ELLIPSE
  5
295
330
1F
100
AcDbEntity
  8
WIDOCZNA
100
AcDbEllipse
 10
20.51168270146364
 20
116.5504013640079
 30
0.0
 11
2.124999999999996
 21
-3.680607966083869
 31
0.0
210
0.0
220
0.0
230
1.0
 40
0.5773502691896251
 41
-2.71458578821789
 42
-2.356194490192342
  0
LINE
  5
296
330
1F
100
AcDbEntity
  8
WIDOCZNA
100
AcDbLine
 10
48.09574497746487
 20
104.6910525581385
 30
0.0
 11
48.79620495490826
 21
105.095463314672
 31
0.0
  0
ELLIPSE
  5
297
330
1F
100
AcDbEntity
  8
WIDOCZNA
100
AcDbEllipse
 10
47.25505066672021
 20
98.83028961915045
 30
0.0
 11
1.498600000000003
 21
-2.595651340222716
 31
0.0
210
0.0
220
0.0
230
1.0
 40
0.5773502691896285
 41
0.3571759061343593
 42
0.7853981633974474
  0
LINE
  5
298
330
1F
100
AcDbEntity
  8
WIDOCZNA
100
AcDbLine
 10
12.33948742426916
 20
126.1022809684455
 30
0.0
 11
18.0871787854876
 21
129.4207121230639
 31
0.0
  0
ELLIPSE
  5
299
330
1F
100
AcDbEntity
  8
WIDOCZNA
100
AcDbEllipse
 10
23.06489883237174
 20
110.5780583798818
 30
0.0
 11
0.9999999999999964
 21
-1.732050807568882
 31
0.0
210
0.0
220
0.0
230
1.0
 40
0.5773502691896243
 41
-3.141592653589785
 42
-2.356194490192338
  0
ELLIPSE
  5
29A
330
1F
100
AcDbEntity
  8
WIDOCZNA
100
AcDbEllipse
 10
23.06489883237174
 20
110.5780583798818
 30
0.0
 11
0.9999999999999964
 21
-1.732050807568882
 31
0.0
210
0.0
220
0.0
230
1.0
 40
0.5773502691896243
 41
0.0
 42
3.141592653589795
  0
ELLIPSE
  5
29B
330
1F
100
AcDbEntity
  8
WIDOCZNA
100
AcDbEllipse
 10
23.06489883237174
 20
110.5780583798818
 30
0.0
 11
0.9999999999999964
 21
-1.732050807568882
 31
0.0
210
0.0
220
0.0
230
1.0
 40
0.5773502691896243
 41
-2.356194490192336
 42
0.0
  0
LINE
  5
29C
330
1F
100
AcDbEntity
  8
WIDOCZNA
100
AcDbLine
 10
7.131266317783233
 20
129.1507268525854
 30
0.0
 11
8.625438598516551
 21
128.2880660840883
 31
0.0
  0
LINE
  5
29D
330
1F
100
AcDbEntity
  8
WIDOCZNA
100
AcDbLine
 10
44.79446048954726
 20
105.3319702434198
 30
0.0
 11
7.706002709531657
 21
126.7450013265399
 31
0.0
  0
ELLIPSE
  5
29E
330
1F
100
AcDbEntity
  8
WIDOCZNA
100
AcDbEllipse
 10
16.49767345205836
 20
132.7230218686313
 30
0.0
 11
1.651
 21
0.0
 31
0.0
210
0.0
220
0.0
230
1.0
 40
0.5773502691896312
 41
3.926990814842338
 42
5.497787143782142
  0
ELLIPSE
  5
29F
330
1F
100
AcDbEntity
  8
WIDOCZNA
100
AcDbEllipse
 10
16.49767345205836
 20
132.7230218686313
 30
0.0
 11
1.651
 21
0.0
 31
0.0
210
0.0
220
0.0
230
1.0
 40
0.5773502691896312
 41
5.497787143782142
 42
10.21017612202192
  0
LINE
  5
2A0
330
1F
100
AcDbEntity
  8
WIDOCZNA
100
AcDbLine
 10
47.38975450853624
 20
96.46085736612724
 30
0.0
 11
47.38975450853624
 21
101.9359568391962
 31
0.0
  0
ELLIPSE
  5
2A1
330
1F
100
AcDbEntity
  8
WIDOCZNA
100
AcDbEllipse
 10
33.74221501838096
 20
106.8793266800683
 30
0.0
 11
2.124999999999992
 21
-3.680607966083868
 31
0.0
210
0.0
220
0.0
230
1.0
 40
0.5773502691896282
 41
-3.141592653589784
 42
-2.356194490192343
  0
ELLIPSE
  5
2A2
330
1F
100
AcDbEntity
  8
WIDOCZNA
100
AcDbEllipse
 10
33.74221501838096
 20
106.8793266800683
 30
0.0
 11
2.124999999999992
 21
-3.680607966083868
 31
0.0
210
0.0
220
0.0
230
1.0
 40
0.5773502691896282
 41
0.0
 42
3.141592653589802
  0
ELLIPSE
  5
2A3
330
1F
100
AcDbEntity
  8
WIDOCZNA
100
AcDbEllipse
 10
33.74221501838096
 20
106.8793266800683
 30
0.0
 11
2.124999999999992
 21
-3.680607966083868
 31
0.0
210
0.0
220
0.0
230
1.0
 40
0.5773502691896282
 41
-2.356194490192339
 42
0.0
  0
ELLIPSE
  5
2A4
330
1F
100
AcDbEntity
  8
WIDOCZNA
100
AcDbEllipse
 10
46.55459068927681
 20
98.42587886261695
 30
0.0
 11
1.498600000000003
 21
-2.595651340222716
 31
0.0
210
0.0
220
0.0
230
1.0
 40
0.5773502691896285
 41
0.0
 42
0.3571759061343593
  0
LINE
  5
2A5
330
1F
100
AcDbEntity
  8
WIDOCZNA
100
AcDbLine
 10
48.79620495490826
 20
105.095463314672
 30
0.0
 11
50.29037723564158
 21
104.232802546175
 31
0.0
  0
ELLIPSE
  5
2A6
330
1F
100
AcDbEntity
  8
WIDOCZNA
100
AcDbEllipse
 10
8.990179334844544
 20
125.0392174944948
 30
0.0
 11
-1.498599999999998
 21
2.59565134022273
 31
0.0
210
0.0
220
0.0
230
1.0
 40
0.5773502691896233
 41
0.0
 42
0.2730392756856647
  0
ELLIPSE
  5
2A7
330
1F
100
AcDbEntity
  8
WIDOCZNA
100
AcDbEllipse
 10
8.990179334844544
 20
125.0392174944948
 30
0.0
 11
-1.498599999999998
 21
2.59565134022273
 31
0.0
210
0.0
220
0.0
230
1.0
 40
0.5773502691896233
 41
-0.7853981633974478
 42
0.0
  0
ELLIPSE
  5
2A8
330
1F
100
AcDbEntity
  8
WIDOCZNA
100
AcDbEllipse
 10
8.990179334844546
 20
125.0392174944948
 30
0.0
 11
1.136649999999998
 21
-1.968735550423162
 31
0.0
210
0.0
220
0.0
230
0.9999999999999998
 40
0.5773502691896304
 41
-3.926990816987237
 42
-3.305940471025781
  0
ELLIPSE
  5
2A9
330
1F
100
AcDbEntity
  8
WIDOCZNA
100
AcDbEllipse
 10
28.00701036768462
 20
109.757152243849
 30
0.0
 11
0.9999999999999964
 21
-1.732050807568868
 31
0.0
210
0.0
220
0.0
230
0.9999999999999998
 40
0.5773502691896263
 41
-2.065593375788286
 42
-1.07599927780151
  0
ELLIPSE
  5
2AA
330
1F
100
AcDbEntity
  8
WIDOCZNA
100
AcDbEllipse
 10
10.47840174763791
 20
120.310695534309
 30
0.0
 11
2.124999999999998
 21
-3.680607966083854
 31
0.0
210
0.0
220
0.0
230
1.0
 40
0.5773502691896261
 41
-3.141592653589796
 42
-2.356194490192346
  0
ELLIPSE
  5
2AB
330
1F
100
AcDbEntity
  8
WIDOCZNA
100
AcDbEllipse
 10
10.47840174763791
 20
120.310695534309
 30
0.0
 11
2.124999999999998
 21
-3.680607966083854
 31
0.0
210
0.0
220
0.0
230
1.0
 40
0.5773502691896261
 41
0.0
 42
3.14159265358979
  0
ELLIPSE
  5
2AC
330
1F
100
AcDbEntity
  8
WIDOCZNA
100
AcDbEllipse
 10
10.47840174763791
 20
120.310695534309
 30
0.0
 11
2.124999999999998
 21
-3.680607966083854
 31
0.0
210
0.0
220
0.0
230
1.0
 40
0.5773502691896261
 41
-2.356194490192346
 42
0.0
  0
ELLIPSE
  5
2AD
330
1F
100
AcDbEntity
  8
WIDOCZNA
100
AcDbEllipse
 10
24.82502903210128
 20
111.5942700245044
 30
0.0
 11
1.000000000000007
 21
-1.732050807568882
 31
0.0
210
0.0
220
0.0
230
1.0
 40
0.5773502691896295
 41
-2.06559337578829
 42
-1.075999277801504
  0
LINE
  5
2AE
330
1F
100
AcDbEntity
  8
WIDOCZNA
100
AcDbLine
 10
18.0871787854876
 20
126.0572950008847
 30
0.0
 11
15.25229209559987
 21
124.4205724073559
 31
0.0
  0
LINE
  5
2AF
330
1F
100
AcDbEntity
  8
WIDOCZNA
100
AcDbLine
 10
11.93480408330327
 20
122.5052198104231
 30
0.0
 11
9.609817007198313
 21
121.1628878961715
 31
0.0
  0
ELLIPSE
  5
2B0
330
1F
100
AcDbEntity
  8
WIDOCZNA
100
AcDbEllipse
 10
56.47777370305822
 20
109.6405002264883
 30
0.0
 11
1.651000000000003
 21
0.0
 31
0.0
210
0.0
220
0.0
230
1.0
 40
0.5773502691896214
 41
3.926990814842343
 42
5.497787143782134
  0
ELLIPSE
  5
2B1
330
1F
100
AcDbEntity
  8
WIDOCZNA
100
AcDbEllipse
 10
56.47777370305822
 20
109.6405002264883
 30
0.0
 11
1.651000000000003
 21
0.0
 31
0.0
210
0.0
220
0.0
230
1.0
 40
0.5773502691896214
 41
5.497787143782134
 42
10.21017612202193
  0
ELLIPSE
  5
2B2
330
1F
100
AcDbEntity
  8
WIDOCZNA
100
AcDbEllipse
 10
56.47777370305822
 20
109.1147662429948
 30
0.0
 11
1.007109999999997
 21
0.0
 31
0.0
210
0.0
220
0.0
230
1.0
 40
0.5773502691896262
 41
5.781316823450078
 42
6.283185307179586
  0
ELLIPSE
  5
2B3
330
1F
100
AcDbEntity
  8
WIDOCZNA
100
AcDbEllipse
 10
56.47777370305822
 20
109.1147662429948
 30
0.0
 11
1.007109999999997
 21
0.0
 31
0.0
210
0.0
220
0.0
230
1.0
 40
0.5773502691896262
 41
0.0
 42
3.141592653589793
  0
ELLIPSE
  5
2B4
330
1F
100
AcDbEntity
  8
WIDOCZNA
100
AcDbEllipse
 10
56.47777370305822
 20
109.1147662429948
 30
0.0
 11
1.007109999999997
 21
0.0
 31
0.0
210
0.0
220
0.0
230
1.0
 40
0.5773502691896262
 41
3.141592653589793
 42
3.643461137319305
  0
LINE
  5
2B5
330
1F
100
AcDbEntity
  8
WIDOCZNA
100
AcDbLine
 10
5.586662264959337
 20
125.5213995503617
 30
0.0
 11
5.586662264959335
 21
120.0463000772927
 31
0.0
  0
ELLIPSE
  5
2B6
330
1F
100
AcDbEntity
  8
WIDOCZNA
100
AcDbEllipse
 10
37.87867005999701
 20
100.7515889076515
 30
0.0
 11
0.3750000000000071
 21
-0.649519052838329
 31
0.0
210
0.0
220
0.0
230
1.0
 40
0.5773502691896116
 41
-3.141592653589821
 42
-2.35619449019234
  0
ELLIPSE
  5
2B7
330
1F
100
AcDbEntity
  8
WIDOCZNA
100
AcDbEllipse
 10
37.87867005999701
 20
100.7515889076515
 30
0.0
 11
0.3750000000000071
 21
-0.649519052838329
 31
0.0
210
0.0
220
0.0
230
1.0
 40
0.5773502691896116
 41
0.0
 42
3.141592653589765
  0
ELLIPSE
  5
2B8
330
1F
100
AcDbEntity
  8
WIDOCZNA
100
AcDbEllipse
 10
37.87867005999701
 20
100.7515889076515
 30
0.0
 11
0.3750000000000071
 21
-0.649519052838329
 31
0.0
210
0.0
220
0.0
230
1.0
 40
0.5773502691896116
 41
-2.35619449019234
 42
0.0
  0
ELLIPSE
  5
2B9
330
1F
100
AcDbEntity
  8
WIDOCZNA
100
AcDbEllipse
 10
12.23853194736746
 20
121.3269071789317
 30
0.0
 11
2.125
 21
-3.680607966083855
 31
0.0
210
0.0
220
0.0
230
1.0
 40
0.5773502691896266
 41
-1.850258013765351
 42
-0.4270068653719012
  0
ELLIPSE
  5
2BA
330
1F
100
AcDbEntity
  8
WIDOCZNA
100
AcDbEllipse
 10
46.55459068927681
 20
103.9009783356859
 30
0.0
 11
1.49860000000001
 21
-2.59565134022273
 31
0.0
210
0.0
220
0.0
230
1.0
 40
0.577350269189621
 41
-4.741204123751864
 42
-3.926990816987247
  0
LINE
  5
2BB
330
1F
100
AcDbEntity
  8
WIDOCZNA
100
AcDbLine
 10
46.91380093411958
 20
96.18606544181603
 30
0.0
 11
46.91380093411959
 21
101.661164914885
 31
0.0
  0
ELLIPSE
  5
2BC
330
1F
100
AcDbEntity
  8
WIDOCZNA
100
AcDbEllipse
 10
16.49767345205836
 20
132.7230218686313
 30
0.0
 11
2.247900000000001
 21
0.0
 31
0.0
210
0.0
220
0.0
230
1.0
 40
0.5773502691896277
 41
0.0
 42
2.356194490192338
  0
ELLIPSE
  5
2BD
330
1F
100
AcDbEntity
  8
WIDOCZNA
100
AcDbEllipse
 10
16.49767345205836
 20
132.7230218686313
 30
0.0
 11
2.247900000000001
 21
0.0
 31
0.0
210
0.0
220
0.0
230
1.0
 40
0.5773502691896277
 41
5.497787143782147
 42
6.283185307179586
  0
ELLIPSE
  5
2BE
330
1F
100
AcDbEntity
  8
WIDOCZNA
100
AcDbEllipse
 10
7.706002709531656
 20
124.2977977741834
 30
0.0
 11
-1.498599999999999
 21
2.59565134022273
 31
0.0
210
0.0
220
0.0
230
1.0
 40
0.5773502691896234
 41
0.0
 42
0.7853981633974493
  0
ELLIPSE
  5
2BF
330
1F
100
AcDbEntity
  8
WIDOCZNA
100
AcDbEllipse
 10
7.706002709531656
 20
124.2977977741834
 30
0.0
 11
-1.498599999999999
 21
2.59565134022273
 31
0.0
210
0.0
220
0.0
230
1.0
 40
0.5773502691896234
 41
-0.7853981633974477
 42
0.0
  0
ELLIPSE
  5
2C0
330
1F
100
AcDbEntity
  8
WIDOCZNA
100
AcDbEllipse
 10
35.50234521811051
 20
107.895538324691
 30
0.0
 11
2.125000000000007
 21
-3.680607966083869
 31
0.0
210
0.0
220
0.0
230
1.0
 40
0.5773502691896275
 41
-2.356194490192348
 42
-0.4270068653719006
  0
ELLIPSE
  5
2C1
330
1F
100
AcDbEntity
  8
WIDOCZNA
100
AcDbEllipse
 10
35.50234521811051
 20
107.895538324691
 30
0.0
 11
2.125000000000007
 21
-3.680607966083869
 31
0.0
210
0.0
220
0.0
230
1.0
 40
0.5773502691896275
 41
-2.714585788217896
 42
-2.356194490192348
  0
ELLIPSE
  5
2C2
330
1F
100
AcDbEntity
  8
WIDOCZNA
100
AcDbEllipse
 10
29.42886150353839
 20
106.903822818571
 30
0.0
 11
1.0
 21
-1.732050807568868
 31
0.0
210
0.0
220
0.0
230
0.9999999999999998
 40
0.5773502691896243
 41
-3.141592653589801
 42
-2.356194490192352
  0
ELLIPSE
  5
2C3
330
1F
100
AcDbEntity
  8
WIDOCZNA
100
AcDbEllipse
 10
29.42886150353839
 20
106.903822818571
 30
0.0
 11
1.0
 21
-1.732050807568868
 31
0.0
210
0.0
220
0.0
230
0.9999999999999998
 40
0.5773502691896243
 41
0.0
 42
3.141592653589785
  0
ELLIPSE
  5
2C4
330
1F
100
AcDbEntity
  8
WIDOCZNA
100
AcDbEllipse
 10
29.42886150353839
 20
106.903822818571
 30
0.0
 11
1.0
 21
-1.732050807568868
 31
0.0
210
0.0
220
0.0
230
0.9999999999999998
 40
0.5773502691896243
 41
-2.356194490192352
 42
0.0
  0
ELLIPSE
  5
2C5
330
1F
100
AcDbEntity
  8
WIDOCZNA
100
AcDbEllipse
 10
9.46613290926121
 20
125.314009418806
 30
0.0
 11
-1.498599999999998
 21
2.595651340222716
 31
0.0
210
0.0
220
0.0
230
0.9999999999999999
 40
0.577350269189629
 41
-0.7853981633974458
 42
0.0
  0
ELLIPSE
  5
2C6
330
1F
100
AcDbEntity
  8
WIDOCZNA
100
AcDbEllipse
 10
42.01536577247712
 20
102.1028208651446
 30
0.0
 11
2.125000000000014
 21
-3.680607966083868
 31
0.0
210
0.0
220
0.0
230
1.0
 40
0.5773502691896225
 41
-3.141592653589794
 42
-2.356194490192346
  0
ELLIPSE
  5
2C7
330
1F
100
AcDbEntity
  8
WIDOCZNA
100
AcDbEllipse
 10
42.01536577247712
 20
102.1028208651446
 30
0.0
 11
2.125000000000014
 21
-3.680607966083868
 31
0.0
210
0.0
220
0.0
230
1.0
 40
0.5773502691896225
 41
0.0
 42
3.141592653589789
  0
ELLIPSE
  5
2C8
330
1F
100
AcDbEntity
  8
WIDOCZNA
100
AcDbEllipse
 10
42.01536577247712
 20
102.1028208651446
 30
0.0
 11
2.125000000000014
 21
-3.680607966083868
 31
0.0
210
0.0
220
0.0
230
1.0
 40
0.5773502691896225
 41
-2.356194490192346
 42
0.0
  0
LINE
  5
2C9
330
1F
100
AcDbEntity
  8
WIDOCZNA
100
AcDbLine
 10
50.29037723564158
 20
104.232802546175
 30
0.0
 11
50.29037723564158
 21
96.06163136288262
 31
0.0
  0
ELLIPSE
  5
2CA
330
1F
100
AcDbEntity
  8
WIDOCZNA
100
AcDbEllipse
 10
45.27041406396391
 20
97.68445914230554
 30
0.0
 11
1.49860000000001
 21
-2.59565134022273
 31
0.0
210
0.0
220
0.0
230
1.0
 40
0.5773502691896234
 41
0.0
 42
0.7853981633974477
  0
ELLIPSE
  5
2CB
330
1F
100
AcDbEntity
  8
WIDOCZNA
100
AcDbEllipse
 10
14.65021205760263
 20
114.1625453881939
 30
0.0
 11
0.3749999999999964
 21
-0.649519052838329
 31
0.0
210
0.0
220
0.0
230
1.0
 40
0.577350269189626
 41
-3.141592653589779
 42
-2.356194490192332
  0
ELLIPSE
  5
2CC
330
1F
100
AcDbEntity
  8
WIDOCZNA
100
AcDbEllipse
 10
14.65021205760263
 20
114.1625453881939
 30
0.0
 11
0.3749999999999964
 21
-0.649519052838329
 31
0.0
210
0.0
220
0.0
230
1.0
 40
0.577350269189626
 41
0.0
 42
3.141592653589807
  0
ELLIPSE
  5
2CD
330
1F
100
AcDbEntity
  8
WIDOCZNA
100
AcDbEllipse
 10
14.65021205760263
 20
114.1625453881939
 30
0.0
 11
0.3749999999999964
 21
-0.649519052838329
 31
0.0
210
0.0
220
0.0
230
1.0
 40
0.577350269189626
 41
-2.356194490192332
 42
0.0
  0
LINE
  5
2CE
330
1F
100
AcDbEntity
  8
WIDOCZNA
100
AcDbLine
 10
7.131266317783231
 20
127.3044993863521
 30
0.0
 11
7.131266317783233
 21
129.1507268525854
 31
0.0
  0
SPLINE
  5
2CF
330
1F
100
AcDbEntity
  8
WIDOCZNA
100
AcDbSpline
210
0.0
220
0.0
230
1.0
 70
     8
 71
     3
 72
    38
 73
    34
 74
     0
 42
0.000000001
 43
0.000001
 40
1.139736280420685
 40
1.139736280420685
 40
1.139736280420685
 40
1.139736280420685
 40
1.399191763206519
 40
1.399191763206519
 40
1.658647245992352
 40
1.658647245992352
 40
1.918102728778185
 40
1.918102728778185
 40
2.177558211564018
 40
2.177558211564018
 40
2.463140489415487
 40
2.463140489415487
 40
2.748722767266956
 40
2.748722767266956
 40
3.312348417207042
 40
3.312348417207042
 40
3.875974067147129
 40
3.875974067147129
 40
4.439599717087214
 40
4.439599717087214
 40
5.003225367027299
 40
5.003225367027299
 40
5.288807644878768
 40
5.288807644878768
 40
5.574389922730238
 40
5.574389922730238
 40
5.833845405516072
 40
5.833845405516072
 40
6.093300888301906
 40
6.093300888301906
 40
6.352756371087739
 40
6.352756371087739
 40
6.612211853873573
 40
6.612211853873573
 40
6.612211853873573
 40
6.612211853873573
 10
18.0871787854876
 20
129.4207121230639
 30
0.0
 10
18.14833302925223
 20
129.4560195421635
 30
0.0
 10
18.20730220174676
 20
129.4867756307348
 30
0.0
 10
18.31590588305436
 20
129.5355184351756
 30
0.0
 10
18.36555166179356
 20
129.5534961353673
 30
0.0
 10
18.45307130055528
 20
129.574763973624
 30
0.0
 10
18.4910710301303
 20
129.5780567806931
 30
0.0
 10
18.55543918866305
 20
129.5703335999684
 30
0.0
 10
18.58184744869464
 20
129.5593042513368
 30
0.0
 10
18.62702828324779
 20
129.52471252633
 30
0.0
 10
18.64768368220809
 20
129.4972339166936
 30
0.0
 10
18.68000944825518
 20
129.4262955316008
 30
0.0
 10
18.69187248241571
 20
129.3828968851642
 30
0.0
 10
18.71749246364071
 20
129.249724144039
 30
0.0
 10
18.72654535265799
 20
129.1319138739993
 30
0.0
 10
18.73655199323383
 20
128.8583869279649
 30
0.0
 10
18.73787941510255
 20
128.7028171299614
 30
0.0
 10
18.73787941510255
 20
128.3960181858952
 30
0.0
 10
18.73655199323383
 20
128.2170046349799
 30
0.0
 10
18.72654535265799
 20
127.8405223375233
 30
0.0
 10
18.71749246364071
 20
127.6429891690311
 30
0.0
 10
18.69187248241572
 20
127.364339383454
 30
0.0
 10
18.68000944825518
 20
127.2608840863373
 30
0.0
 10
18.6476836822081
 20
127.0553257436865
 30
0.0
 10
18.62702828324779
 20
126.9532523681346
 30
0.0
 10
18.58184744869464
 20
126.7790511485933
 30
0.0
 10
18.55543918866305
 20
126.6947990884247
 30
0.0
 10
18.4910710301303
 20
126.5326174647579
 30
0.0
 10
18.45307130055528
 20
126.4546983038071
 30
0.0
 10
18.36555166179356
 20
126.3126153373609
 30
0.0
 10
18.31590588305436
 20
126.2482904252662
 30
0.0
 10
18.20730220174676
 20
126.1382827073563
 30
0.0
 10
18.14833302925223
 20
126.0926024199843
 30
0.0
 10
18.0871787854876
 20
126.0572950008847
 30
0.0
  0
LINE
  5
2D0
330
1F
100
AcDbEntity
  8
WIDOCZNA
100
AcDbLine
 10
47.68610296053153
 20
102.6981155726632
 30
0.0
 11
47.68610296053152
 21
97.22301609959423
 31
0.0
  0
LINE
  5
2D1
330
1F
100
AcDbEntity
  8
WIDOCZNA
100
AcDbLine
 10
18.74557345205836
 20
124.551850685339
 30
0.0
 11
18.74557345205836
 21
132.7230218686313
 31
0.0
  0
LINE
  5
2D2
330
1F
100
AcDbEntity
  8
WIDOCZNA
100
AcDbLine
 10
58.72567370305822
 20
101.469329043196
 30
0.0
 11
58.72567370305822
 21
109.6405002264883
 31
0.0
  0
LINE
  5
2D3
330
1F
100
AcDbEntity
  8
WIDOCZNA
100
AcDbLine
 10
7.967532909261212
 20
127.9096607590287
 30
0.0
 11
7.491579334844547
 21
127.6348688347175
 31
0.0
  0
LINE
  5
2D4
330
1F
100
AcDbEntity
  8
WIDOCZNA
100
AcDbLine
 10
46.76901406396392
 20
95.08880780208281
 30
0.0
 11
46.29306048954725
 21
94.8140158777716
 31
0.0
  0
LINE
  5
2D5
330
1F
100
AcDbEntity
  8
WIDOCZNA
100
AcDbLine
 10
48.05319068927682
 20
95.83022752239424
 30
0.0
 11
47.57723711486015
 21
95.55543559808301
 31
0.0
  0
LINE
  5
2D6
330
1F
100
AcDbEntity
  8
WIDOCZNA
100
AcDbLine
 10
6.683356283948322
 20
127.1682410387173
 30
0.0
 11
6.207402709531658
 21
126.8934491144061
 31
0.0
  0
LINE
  5
2D7
330
1F
100
AcDbEntity
  8
STYCZNE_KRAWÊDZIE
100
AcDbLine
 10
18.0871787854876
 20
123.6341493532053
 30
0.0
 11
18.0871787854876
 21
126.0572950008847
 31
0.0
  0
LINE
  5
2D8
330
1F
100
AcDbEntity
  8
STYCZNE_KRAWÊDZIE
100
AcDbLine
 10
47.68610296053153
 20
102.6981155726632
 30
0.0
 11
47.3389850589456
 21
102.497706958742
 31
0.0
  0
LINE
  5
2D9
330
1F
100
AcDbEntity
  8
STYCZNE_KRAWÊDZIE
100
AcDbLine
 10
18.0871787854876
 20
129.4207121230639
 30
0.0
 11
18.0871787854876
 21
131.8053205364976
 31
0.0
  0
LINE
  5
2DA
330
1F
100
AcDbEntity
  8
STYCZNE_KRAWÊDZIE
100
AcDbLine
 10
58.06727903648746
 20
100.5516277110623
 30
0.0
 11
58.06727903648747
 21
108.7227988943546
 31
0.0
  0
LINE
  5
2DB
330
1F
100
AcDbEntity
  8
STYCZNE_KRAWÊDZIE
100
AcDbLine
 10
47.38975450853624
 20
96.46085736612724
 30
0.0
 11
46.91380093411958
 21
96.18606544181603
 31
0.0
  0
LINE
  5
2DC
330
1F
100
AcDbEntity
  8
STYCZNE_KRAWÊDZIE
100
AcDbLine
 10
7.706002709531657
 20
126.7450013265399
 30
0.0
 11
8.181956283948322
 21
127.0197932508512
 31
0.0
  0
LINE
  5
2DD
330
1F
100
AcDbEntity
  8
STYCZNE_KRAWÊDZIE
100
AcDbLine
 10
8.990179334844548
 20
127.4864210468514
 30
0.0
 11
9.466132909261212
 21
127.7612129711626
 31
0.0
  0
LINE
  5
2DE
330
1F
100
AcDbEntity
  8
STYCZNE_KRAWÊDZIE
100
AcDbLine
 10
49.37439111129253
 20
97.60668784297216
 30
0.0
 11
48.19797755943247
 21
96.92748516212744
 31
0.0
  0
LINE
  5
2DF
330
1F
100
AcDbEntity
  8
STYCZNE_KRAWÊDZIE
100
AcDbLine
 10
45.27041406396393
 20
105.6067621677311
 30
0.0
 11
44.79446048954726
 21
105.3319702434198
 31
0.0
  0
LINE
  5
2E0
330
1F
100
AcDbEntity
  8
STYCZNE_KRAWÊDZIE
100
AcDbLine
 10
47.68610296053152
 20
97.22301609959423
 30
0.0
 11
47.38975450853624
 21
97.05191924106083
 31
0.0
  0
LINE
  5
2E1
330
1F
100
AcDbEntity
  8
STYCZNE_KRAWÊDZIE
100
AcDbLine
 10
8.990179334844548
 20
126.8953591719178
 30
0.0
 11
8.693830882849264
 21
126.7242623133844
 31
0.0
  0
LINE
  5
2E2
330
1F
100
AcDbEntity
  8
STYCZNE_KRAWÊDZIE
100
AcDbLine
 10
48.19797755943247
 20
102.4025846351964
 30
0.0
 11
49.37439111129253
 21
103.0817873160411
 31
0.0
  0
LINE
  5
2E3
330
1F
100
AcDbEntity
  8
STYCZNE_KRAWÊDZIE
100
AcDbLine
 10
46.07863711486015
 20
105.4823280887977
 30
0.0
 11
45.73151921327424
 21
105.2819194748765
 31
0.0
  0
LINE
  5
2E4
330
1F
100
AcDbEntity
  8
STYCZNE_KRAWÊDZIE
100
AcDbLine
 10
46.91380093411959
 20
101.661164914885
 30
0.0
 11
47.38975450853624
 21
101.9359568391962
 31
0.0
  0
LINE
  5
2E5
330
1F
100
AcDbEntity
  8
STYCZNE_KRAWÊDZIE
100
AcDbLine
 10
46.55459068927681
 20
106.3481818880425
 30
0.0
 11
46.07863711486015
 21
106.0733899637313
 31
0.0
  0
LINE
  5
2E6
330
1F
100
AcDbEntity
  8
WIDOCZNA
100
AcDbLine
 10
151.6791830145345
 20
105.4823280887975
 30
0.0
 11
188.7676407945501
 21
126.8953591719176
 31
0.0
  0
LINE
  5
2E7
330
1F
100
AcDbEntity
  8
WIDOCZNA
100
AcDbLine
 10
188.2916872201334
 20
127.7612129711624
 30
0.0
 11
151.2032294401178
 21
106.3481818880423
 31
0.0
  0
ELLIPSE
  5
2E8
330
1F
100
AcDbEntity
  8
WIDOCZNA
100
AcDbEllipse
 10
141.2800464263364
 20
109.1147662429946
 30
0.0
 11
1.007110000000011
 21
0.0
 31
0.0
210
0.0
220
0.0
230
1.0
 40
0.5773502691896181
 41
0.7853981633974547
 42
3.141592653589793
  0
ELLIPSE
  5
2E9
330
1F
100
AcDbEntity
  8
WIDOCZNA
100
AcDbEllipse
 10
141.2800464263364
 20
109.1147662429946
 30
0.0
 11
1.007110000000011
 21
0.0
 31
0.0
210
0.0
220
0.0
230
1.0
 40
0.5773502691896181
 41
3.141592653589793
 42
3.643461137319314
  0
ELLIPSE
  5
2EA
330
1F
100
AcDbEntity
  8
WIDOCZNA
100
AcDbEllipse
 10
141.2800464263364
 20
109.1147662429946
 30
0.0
 11
1.007110000000011
 21
0.0
 31
0.0
210
0.0
220
0.0
230
1.0
 40
0.5773502691896181
 41
5.781316823450065
 42
6.283185307179586
  0
ELLIPSE
  5
2EB
330
1F
100
AcDbEntity
  8
WIDOCZNA
100
AcDbEllipse
 10
141.2800464263364
 20
109.1147662429946
 30
0.0
 11
1.007110000000011
 21
0.0
 31
0.0
210
0.0
220
0.0
230
1.0
 40
0.5773502691896181
 41
0.0
 42
0.7853981633974547
  0
LINE
  5
2EC
330
1F
100
AcDbEntity
  8
WIDOCZNA
100
AcDbLine
 10
151.6791830145345
 20
106.0733899637311
 30
0.0
 11
188.7676407945501
 21
127.4864210468512
 31
0.0
  0
LINE
  5
2ED
330
1F
100
AcDbEntity
  8
WIDOCZNA
100
AcDbLine
 10
188.1480031221963
 20
121.1769190829622
 30
0.0
 11
185.8284717313337
 21
122.5161011558706
 31
0.0
  0
LINE
  5
2EE
330
1F
100
AcDbEntity
  8
WIDOCZNA
100
AcDbLine
 10
182.5176793980009
 20
124.4275880007512
 30
0.0
 11
179.6706413439071
 21
126.0713261876754
 31
0.0
  0
LINE
  5
2EF
330
1F
100
AcDbEntity
  8
WIDOCZNA
100
AcDbLine
 10
182.8496520107655
 20
133.6407232007649
 30
0.0
 11
190.6265538116114
 21
129.1507268525852
 31
0.0
  0
ELLIPSE
  5
2F0
330
1F
100
AcDbEntity
  8
WIDOCZNA
100
AcDbEllipse
 10
190.051817419863
 20
124.2977977741832
 30
0.0
 11
1.498599999999982
 21
2.59565134022273
 31
0.0
210
0.0
220
0.0
230
1.0
 40
0.5773502691896278
 41
0.0
 42
0.7853981633974384
  0
ELLIPSE
  5
2F1
330
1F
100
AcDbEntity
  8
WIDOCZNA
100
AcDbEllipse
 10
190.051817419863
 20
124.2977977741832
 30
0.0
 11
1.498599999999982
 21
2.59565134022273
 31
0.0
210
0.0
220
0.0
230
1.0
 40
0.5773502691896278
 41
-0.7853981633974558
 42
0.0
  0
ELLIPSE
  5
2F2
330
1F
100
AcDbEntity
  8
WIDOCZNA
100
AcDbEllipse
 10
152.9633596398474
 20
97.40966721799415
 30
0.0
 11
-1.498599999999982
 21
-2.595651340222716
 31
0.0
210
0.0
220
0.0
230
0.9999999999999998
 40
0.5773502691896302
 41
0.0
 42
0.7853981633974397
  0
ELLIPSE
  5
2F3
330
1F
100
AcDbEntity
  8
WIDOCZNA
100
AcDbEllipse
 10
152.9633596398474
 20
97.40966721799415
 30
0.0
 11
-1.498599999999982
 21
-2.595651340222716
 31
0.0
210
0.0
220
0.0
230
0.9999999999999998
 40
0.5773502691896302
 41
-0.7853981633974504
 42
0.0
  0
ELLIPSE
  5
2F4
330
1F
100
AcDbEntity
  8
WIDOCZNA
100
AcDbEllipse
 10
181.2601466773363
 20
124.5518506853388
 30
0.0
 11
2.247899999999987
 21
0.0
 31
0.0
210
0.0
220
0.0
230
1.0
 40
0.5773502691896314
 41
3.141592653589793
 42
3.926990816987238
  0
ELLIPSE
  5
2F5
330
1F
100
AcDbEntity
  8
WIDOCZNA
100
AcDbEllipse
 10
181.2601466773363
 20
132.7230218686312
 30
0.0
 11
2.247899999999987
 21
0.0
 31
0.0
210
0.0
220
0.0
230
1.0
 40
0.5773502691896314
 41
3.141592653589793
 42
3.926990816987222
  0
ELLIPSE
  5
2F6
330
1F
100
AcDbEntity
  8
WIDOCZNA
100
AcDbEllipse
 10
181.2601466773363
 20
132.7230218686312
 30
0.0
 11
2.247899999999987
 21
0.0
 31
0.0
210
0.0
220
0.0
230
1.0
 40
0.5773502691896314
 41
0.7853981633974386
 42
3.141592653589793
  0
ELLIPSE
  5
2F7
330
1F
100
AcDbEntity
  8
WIDOCZNA
100
AcDbEllipse
 10
189.5758638454463
 20
124.5725896984944
 30
0.0
 11
1.49860000000001
 21
2.59565134022273
 31
0.0
210
0.0
220
0.0
230
1.0
 40
0.5773502691896168
 41
0.0
 42
0.7853981633974574
  0
ELLIPSE
  5
2F8
330
1F
100
AcDbEntity
  8
WIDOCZNA
100
AcDbEllipse
 10
152.4874060654307
 20
103.1595586153744
 30
0.0
 11
1.49860000000001
 21
2.595651340222716
 31
0.0
210
0.0
220
0.0
230
1.0
 40
0.5773502691896297
 41
0.7853981633974491
 42
2.356194490192357
  0
LINE
  5
2F9
330
1F
100
AcDbEntity
  8
WIDOCZNA
100
AcDbLine
 10
179.6706413439071
 20
123.6341493532051
 30
0.0
 11
180.4070223458347
 21
123.2089995835161
 31
0.0
  0
LINE
  5
2FA
330
1F
100
AcDbEntity
  8
WIDOCZNA
100
AcDbLine
 10
184.7383038747717
 20
120.7083330268482
 30
0.0
 11
187.127513926592
 21
119.3289219602792
 31
0.0
  0
LINE
  5
2FB
330
1F
100
AcDbEntity
  8
WIDOCZNA
100
AcDbLine
 10
149.5598425699622
 20
96.9274851621273
 30
0.0
 11
149.5598425699622
 21
102.4025846351962
 31
0.0
  0
ELLIPSE
  5
2FC
330
1F
100
AcDbEntity
  8
WIDOCZNA
100
AcDbEllipse
 10
164.0089094320498
 20
106.875460928016
 30
0.0
 11
2.125
 21
3.680607966083869
 31
0.0
210
0.0
220
0.0
230
1.0
 40
0.5773502691896248
 41
0.0
 42
2.35619449019234
  0
ELLIPSE
  5
2FD
330
1F
100
AcDbEntity
  8
WIDOCZNA
100
AcDbEllipse
 10
164.0089094320498
 20
106.875460928016
 30
0.0
 11
2.125
 21
3.680607966083869
 31
0.0
210
0.0
220
0.0
230
1.0
 40
0.5773502691896248
 41
3.14159265358979
 42
6.283185307179586
  0
ELLIPSE
  5
2FE
330
1F
100
AcDbEntity
  8
WIDOCZNA
100
AcDbEllipse
 10
164.0089094320498
 20
106.875460928016
 30
0.0
 11
2.125
 21
3.680607966083869
 31
0.0
210
0.0
220
0.0
230
1.0
 40
0.5773502691896248
 41
2.35619449019234
 42
3.14159265358979
  0
ELLIPSE
  5
2FF
330
1F
100
AcDbEntity
  8
WIDOCZNA
100
AcDbEllipse
 10
188.7676407945501
 20
125.0392174944946
 30
0.0
 11
1.498599999999982
 21
2.595651340222702
 31
0.0
210
0.0
220
0.0
230
0.9999999999999999
 40
0.5773502691896325
 41
0.0
 42
0.7853981633974397
  0
ELLIPSE
  5
300
330
1F
100
AcDbEntity
  8
WIDOCZNA
100
AcDbEllipse
 10
188.7676407945501
 20
125.0392174944946
 30
0.0
 11
1.498599999999982
 21
2.595651340222702
 31
0.0
210
0.0
220
0.0
230
0.9999999999999999
 40
0.5773502691896325
 41
-0.2730392756856604
 42
0.0
  0
LINE
  5
301
330
1F
100
AcDbEntity
  8
WIDOCZNA
100
AcDbLine
 10
142.8695517597657
 20
110.5582015586219
 30
0.0
 11
150.7347921037085
 21
106.0172029288054
 31
0.0
  0
LINE
  5
302
330
1F
100
AcDbEntity
  8
WIDOCZNA
100
AcDbLine
 10
148.9616151744864
 20
105.0954633146719
 30
0.0
 11
149.6620751519298
 21
104.6910525581384
 31
0.0
  0
ELLIPSE
  5
303
330
1F
100
AcDbEntity
  8
WIDOCZNA
100
AcDbEllipse
 10
172.9260882341246
 20
111.5904001246494
 30
0.0
 11
1.0
 21
1.732050807568882
 31
0.0
210
0.0
220
0.0
230
0.9999999999999999
 40
0.5773502691896237
 41
4.21759193139129
 42
5.207186029378076
  0
LINE
  5
304
330
1F
100
AcDbEntity
  8
WIDOCZNA
100
AcDbLine
 10
148.5747940115857
 20
96.70096082885063
 30
0.0
 11
147.4674428937531
 21
96.06163136288248
 31
0.0
  0
ELLIPSE
  5
305
330
1F
100
AcDbEntity
  8
WIDOCZNA
100
AcDbEllipse
 10
141.2800464263364
 20
101.4693290431959
 30
0.0
 11
2.247900000000016
 21
0.0
 31
0.0
210
0.0
220
0.0
230
1.0
 40
0.5773502691896178
 41
3.141592653589793
 42
3.926990816987251
  0
ELLIPSE
  5
306
330
1F
100
AcDbEntity
  8
WIDOCZNA
100
AcDbEllipse
 10
150.5027694626744
 20
98.8302896191503
 30
0.0
 11
-1.498599999999982
 21
-2.595651340222716
 31
0.0
210
0.0
220
0.0
230
0.9999999999999998
 40
0.5773502691896302
 41
-0.7853981633974504
 42
-0.3571759061343668
  0
ELLIPSE
  5
307
330
1F
100
AcDbEntity
  8
WIDOCZNA
100
AcDbEllipse
 10
188.7676407945501
 20
125.0392174944946
 30
0.0
 11
-1.136650000000003
 21
-1.968735550423162
 31
0.0
210
0.0
220
0.0
230
1.0
 40
0.5773502691896292
 41
-2.977244836153797
 42
-2.356194490192346
  0
LINE
  5
308
330
1F
100
AcDbEntity
  8
WIDOCZNA
100
AcDbLine
 10
152.9633596398474
 20
94.96246366563759
 30
0.0
 11
190.051817419863
 21
116.3754947487576
 31
0.0
  0
ELLIPSE
  5
309
330
1F
100
AcDbEntity
  8
WIDOCZNA
100
AcDbEllipse
 10
185.5125925030633
 20
121.3230414268793
 30
0.0
 11
2.125
 21
3.680607966083869
 31
0.0
210
0.0
220
0.0
230
1.0
 40
0.5773502691896174
 41
3.568599518961705
 42
4.996467328750022
  0
LINE
  5
30A
330
1F
100
AcDbEntity
  8
WIDOCZNA
100
AcDbLine
 10
187.4834641692372
 20
127.2945851751622
 30
0.0
 11
179.6706413439071
 21
131.8053205364974
 31
0.0
  0
LINE
  5
30B
330
1F
100
AcDbEntity
  8
WIDOCZNA
100
AcDbLine
 10
150.3680656208584
 20
101.9359568391961
 30
0.0
 11
150.3680656208584
 21
96.4608573661271
 31
0.0
  0
LINE
  5
30C
330
1F
100
AcDbEntity
  8
WIDOCZNA
100
AcDbLine
 10
147.4674428937531
 20
104.2328025461748
 30
0.0
 11
139.6905410929072
 21
108.7227988943545
 31
0.0
  0
ELLIPSE
  5
30D
330
1F
100
AcDbEntity
  8
WIDOCZNA
100
AcDbEllipse
 10
190.051817419863
 20
118.8226983011142
 30
0.0
 11
1.49860000000001
 21
2.595651340222716
 31
0.0
210
0.0
220
0.0
230
1.0
 40
0.5773502691896192
 41
3.926990816987251
 42
5.497787143782135
  0
ELLIPSE
  5
30E
330
1F
100
AcDbEntity
  8
WIDOCZNA
100
AcDbEllipse
 10
171.5042370982708
 20
108.7370706993714
 30
0.0
 11
1.0
 21
1.732050807568882
 31
0.0
210
0.0
220
0.0
230
0.9999999999999999
 40
0.5773502691896237
 41
0.0
 42
2.356194490192344
  0
ELLIPSE
  5
30F
330
1F
100
AcDbEntity
  8
WIDOCZNA
100
AcDbEllipse
 10
171.5042370982708
 20
108.7370706993714
 30
0.0
 11
1.0
 21
1.732050807568882
 31
0.0
210
0.0
220
0.0
230
0.9999999999999999
 40
0.5773502691896237
 41
3.141592653589793
 42
6.283185307179586
  0
ELLIPSE
  5
310
330
1F
100
AcDbEntity
  8
WIDOCZNA
100
AcDbEllipse
 10
171.5042370982708
 20
108.7370706993714
 30
0.0
 11
1.0
 21
1.732050807568882
 31
0.0
210
0.0
220
0.0
230
0.9999999999999999
 40
0.5773502691896237
 41
2.356194490192344
 42
3.141592653589793
  0
SPLINE
  5
311
330
1F
100
AcDbEntity
  8
WIDOCZNA
100
AcDbSpline
210
0.0
220
0.0
230
1.0
 70
     8
 71
     3
 72
    38
 73
    34
 74
     0
 42
0.000000001
 43
0.000001
 40
1.143105519141991
 40
1.143105519141991
 40
1.143105519141991
 40
1.143105519141991
 40
1.400318951304098
 40
1.400318951304098
 40
1.657532383466206
 40
1.657532383466206
 40
1.914745815628313
 40
1.914745815628313
 40
2.17195924779042
 40
2.17195924779042
 40
2.455132885969399
 40
2.455132885969399
 40
2.738306524148378
 40
2.738306524148378
 40
3.296794810626289
 40
3.296794810626289
 40
3.855283097104199
 40
3.855283097104199
 40
4.413771383582109
 40
4.413771383582109
 40
4.972259670060019
 40
4.972259670060019
 40
5.255433308238998
 40
5.255433308238998
 40
5.538606946417977
 40
5.538606946417977
 40
5.795820378580084
 40
5.795820378580084
 40
6.053033810742191
 40
6.053033810742191
 40
6.310247242904298
 40
6.310247242904298
 40
6.567460675066406
 40
6.567460675066406
 40
6.567460675066406
 40
6.567460675066406
 10
179.6706413439071
 20
126.0713261876754
 30
0.0
 10
179.6100155565424
 20
126.1063285023303
 30
0.0
 10
179.5515243707509
 20
126.1516137974806
 30
0.0
 10
179.4437277591747
 20
126.2606688296658
 30
0.0
 10
179.3944111126606
 20
126.3244358352145
 30
0.0
 10
179.3073883830154
 20
126.4652776594449
 30
0.0
 10
179.2695574020507
 20
126.5425114345149
 30
0.0
 10
179.2053881743905
 20
126.7032530150524
 30
0.0
 10
179.1790107069419
 20
126.7867503641815
 30
0.0
 10
179.1337968883121
 20
126.9593975012869
 30
0.0
 10
179.113063218849
 20
127.0605702647175
 30
0.0
 10
179.0805091557903
 20
127.2643156908766
 30
0.0
 10
179.0684991852518
 20
127.3668587630573
 30
0.0
 10
179.0424777707146
 20
127.6429284398608
 30
0.0
 10
179.0331061605317
 20
127.8386083320946
 30
0.0
 10
179.0226532357792
 20
128.2115905234899
 30
0.0
 10
179.0212046792885
 20
128.3889551444937
 30
0.0
 10
179.0212046792885
 20
128.6929576620919
 30
0.0
 10
179.0226532357792
 20
128.8471350515253
 30
0.0
 10
179.0331061605317
 20
129.1183073814509
 30
0.0
 10
179.0424777707147
 20
129.2351588957094
 30
0.0
 10
179.0684991852518
 20
129.3673921516703
 30
0.0
 10
179.0805091557903
 20
129.4105284823745
 30
0.0
 10
179.113063218849
 20
129.4811081480192
 30
0.0
 10
179.1337968883121
 20
129.5084907476909
 30
0.0
 10
179.1790107069419
 20
129.5430394698745
 30
0.0
 10
179.2053881743905
 20
129.5541075477988
 30
0.0
 10
179.2695574020507
 20
129.5620328659814
 30
0.0
 10
179.3073883830154
 20
129.558902906798
 30
0.0
 10
179.3944111126606
 20
129.5380517706648
 30
0.0
 10
179.4437277591747
 20
129.5203277021326
 30
0.0
 10
179.5515243707509
 20
129.4721391043539
 30
0.0
 10
179.6100155565424
 20
129.4416832509277
 30
0.0
 10
179.6706413439071
 20
129.4066809362728
 30
0.0
  0
ELLIPSE
  5
312
330
1F
100
AcDbEntity
  8
WIDOCZNA
100
AcDbEllipse
 10
152.4874060654307
 20
97.68445914230539
 30
0.0
 11
-1.49860000000001
 21
-2.595651340222716
 31
0.0
210
0.0
220
0.0
230
1.0
 40
0.5773502691896297
 41
-0.7853981633974416
 42
0.0
  0
LINE
  5
313
330
1F
100
AcDbEntity
  8
WIDOCZNA
100
AcDbLine
 10
189.5758638454463
 20
127.019793250851
 30
0.0
 11
152.4874060654307
 21
105.6067621677309
 31
0.0
  0
ELLIPSE
  5
314
330
1F
100
AcDbEntity
  8
WIDOCZNA
100
AcDbEllipse
 10
162.2487792323203
 20
107.8916725726386
 30
0.0
 11
2.125
 21
3.680607966083855
 31
0.0
210
0.0
220
0.0
230
1.0
 40
0.5773502691896266
 41
3.568599518961691
 42
5.856178441807683
  0
LINE
  5
315
330
1F
100
AcDbEntity
  8
WIDOCZNA
100
AcDbLine
 10
179.6706413439071
 20
129.4066809362728
 30
0.0
 11
185.4061813409194
 21
126.0952653750499
 31
0.0
  0
LINE
  5
316
330
1F
100
AcDbEntity
  8
WIDOCZNA
100
AcDbLine
 10
189.7464887117491
 20
127.933511137901
 30
0.0
 11
189.1323815308781
 21
128.2880660840881
 31
0.0
  0
ELLIPSE
  5
317
330
1F
100
AcDbEntity
  8
WIDOCZNA
100
AcDbEllipse
 10
151.6791830145345
 20
98.15108693830558
 30
0.0
 11
1.136650000000003
 21
1.968735550423162
 31
0.0
210
0.0
220
0.0
230
1.0
 40
0.5773502691896292
 41
2.356194490192343
 42
2.977244836153813
  0
ELLIPSE
  5
318
330
1F
100
AcDbEntity
  8
WIDOCZNA
100
AcDbEllipse
 10
168.3222557626875
 20
106.899952918716
 30
0.0
 11
1.000000000000028
 21
1.732050807568882
 31
0.0
210
0.0
220
0.0
230
1.0
 40
0.5773502691896074
 41
0.0
 42
2.356194490192344
  0
ELLIPSE
  5
319
330
1F
100
AcDbEntity
  8
WIDOCZNA
100
AcDbEllipse
 10
168.3222557626875
 20
106.899952918716
 30
0.0
 11
1.000000000000028
 21
1.732050807568882
 31
0.0
210
0.0
220
0.0
230
1.0
 40
0.5773502691896074
 41
3.141592653589808
 42
6.283185307179586
  0
ELLIPSE
  5
31A
330
1F
100
AcDbEntity
  8
WIDOCZNA
100
AcDbEllipse
 10
168.3222557626875
 20
106.899952918716
 30
0.0
 11
1.000000000000028
 21
1.732050807568882
 31
0.0
210
0.0
220
0.0
230
1.0
 40
0.5773502691896074
 41
2.356194490192344
 42
3.141592653589808
  0
LINE
  5
31B
330
1F
100
AcDbEntity
  8
WIDOCZNA
100
AcDbLine
 10
147.4674428937531
 20
104.2328025461748
 30
0.0
 11
148.9616151744864
 21
105.0954633146719
 31
0.0
  0
LINE
  5
31C
330
1F
100
AcDbEntity
  8
WIDOCZNA
100
AcDbLine
 10
190.051817419863
 20
126.7450013265398
 30
0.0
 11
152.9633596398474
 21
105.3319702434197
 31
0.0
  0
LINE
  5
31D
330
1F
100
AcDbEntity
  8
WIDOCZNA
100
AcDbLine
 10
139.6905410929072
 20
100.5516277110622
 30
0.0
 11
147.4674428937531
 21
96.06163136288248
 31
0.0
  0
ELLIPSE
  5
31E
330
1F
100
AcDbEntity
  8
WIDOCZNA
100
AcDbEllipse
 10
141.2800464263364
 20
109.6405002264882
 30
0.0
 11
1.65100000000001
 21
0.0
 31
0.0
210
0.0
220
0.0
230
1.0
 40
0.5773502691896275
 41
5.497787145927041
 42
7.068583470577034
  0
ELLIPSE
  5
31F
330
1F
100
AcDbEntity
  8
WIDOCZNA
100
AcDbEllipse
 10
141.2800464263364
 20
109.6405002264882
 30
0.0
 11
1.65100000000001
 21
0.0
 31
0.0
210
0.0
220
0.0
230
1.0
 40
0.5773502691896275
 41
3.926990814842338
 42
5.497787145927041
  0
ELLIPSE
  5
320
330
1F
100
AcDbEntity
  8
WIDOCZNA
100
AcDbEllipse
 10
141.2800464263364
 20
109.6405002264882
 30
0.0
 11
1.65100000000001
 21
0.0
 31
0.0
210
0.0
220
0.0
230
1.0
 40
0.5773502691896275
 41
0.7853981633974475
 42
3.926990814842338
  0
ELLIPSE
  5
321
330
1F
100
AcDbEntity
  8
WIDOCZNA
100
AcDbEllipse
 10
178.9995719486967
 20
115.5303239673329
 30
0.0
 11
2.125
 21
3.680607966083855
 31
0.0
210
0.0
220
0.0
230
1.0
 40
0.5773502691896266
 41
0.0
 42
2.356194490192347
  0
ELLIPSE
  5
322
330
1F
100
AcDbEntity
  8
WIDOCZNA
100
AcDbEllipse
 10
178.9995719486967
 20
115.5303239673329
 30
0.0
 11
2.125
 21
3.680607966083855
 31
0.0
210
0.0
220
0.0
230
1.0
 40
0.5773502691896266
 41
3.141592653589796
 42
6.283185307179586
  0
ELLIPSE
  5
323
330
1F
100
AcDbEntity
  8
WIDOCZNA
100
AcDbEllipse
 10
178.9995719486967
 20
115.5303239673329
 30
0.0
 11
2.125
 21
3.680607966083855
 31
0.0
210
0.0
220
0.0
230
1.0
 40
0.5773502691896266
 41
2.356194490192347
 42
3.141592653589796
  0
LINE
  5
324
330
1F
100
AcDbEntity
  8
WIDOCZNA
100
AcDbLine
 10
189.1323815308781
 20
128.2880660840881
 30
0.0
 11
190.6265538116114
 21
129.1507268525852
 31
0.0
  0
ELLIPSE
  5
325
330
1F
100
AcDbEntity
  8
WIDOCZNA
100
AcDbEllipse
 10
151.6791830145345
 20
103.6261864113745
 30
0.0
 11
1.49860000000001
 21
2.595651340222716
 31
0.0
210
0.0
220
0.0
230
1.0
 40
0.5773502691896192
 41
0.7853981633974582
 42
2.356194490192348
  0
LINE
  5
326
330
1F
100
AcDbEntity
  8
WIDOCZNA
100
AcDbLine
 10
149.2752539890292
 20
96.29655007231712
 30
0.0
 11
148.5747940115857
 21
96.70096082885063
 31
0.0
  0
ELLIPSE
  5
327
330
1F
100
AcDbEntity
  8
WIDOCZNA
100
AcDbEllipse
 10
151.6791830145345
 20
103.6261864113745
 30
0.0
 11
-1.136650000000003
 21
-1.968735550423176
 31
0.0
210
0.0
220
0.0
230
1.0
 40
0.577350269189626
 41
-2.356194490192347
 42
-0.7853981633974483
  0
ELLIPSE
  5
328
330
1F
100
AcDbEntity
  8
WIDOCZNA
100
AcDbEllipse
 10
169.7441068985412
 20
109.753282343994
 30
0.0
 11
1.0
 21
1.732050807568882
 31
0.0
210
0.0
220
0.0
230
0.9999999999999999
 40
0.5773502691896237
 41
4.217591931391309
 42
5.207186029378076
  0
ELLIPSE
  5
329
330
1F
100
AcDbEntity
  8
WIDOCZNA
100
AcDbEllipse
 10
155.7357586779536
 20
102.0989551130922
 30
0.0
 11
2.125
 21
3.680607966083869
 31
0.0
210
0.0
220
0.0
230
1.0
 40
0.5773502691896248
 41
0.0
 42
2.356194490192344
  0
ELLIPSE
  5
32A
330
1F
100
AcDbEntity
  8
WIDOCZNA
100
AcDbEllipse
 10
155.7357586779536
 20
102.0989551130922
 30
0.0
 11
2.125
 21
3.680607966083869
 31
0.0
210
0.0
220
0.0
230
1.0
 40
0.5773502691896248
 41
3.14159265358979
 42
6.283185307179586
  0
ELLIPSE
  5
32B
330
1F
100
AcDbEntity
  8
WIDOCZNA
100
AcDbEllipse
 10
155.7357586779536
 20
102.0989551130922
 30
0.0
 11
2.125
 21
3.680607966083869
 31
0.0
210
0.0
220
0.0
230
1.0
 40
0.5773502691896248
 41
2.356194490192344
 42
3.14159265358979
  0
ELLIPSE
  5
32C
330
1F
100
AcDbEntity
  8
WIDOCZNA
100
AcDbEllipse
 10
151.6791830145345
 20
98.15108693830558
 30
0.0
 11
-1.498599999999982
 21
-2.595651340222716
 31
0.0
210
0.0
220
0.0
230
0.9999999999999998
 40
0.5773502691896302
 41
0.0
 42
0.2730392756856477
  0
ELLIPSE
  5
32D
330
1F
100
AcDbEntity
  8
WIDOCZNA
100
AcDbEllipse
 10
151.6791830145345
 20
98.15108693830558
 30
0.0
 11
-1.498599999999982
 21
-2.595651340222716
 31
0.0
210
0.0
220
0.0
230
0.9999999999999998
 40
0.5773502691896302
 41
-0.7853981633974504
 42
0.0
  0
ELLIPSE
  5
32E
330
1F
100
AcDbEntity
  8
WIDOCZNA
100
AcDbEllipse
 10
166.5621255629579
 20
107.9161645633386
 30
0.0
 11
1.0
 21
1.732050807568868
 31
0.0
210
0.0
220
0.0
230
0.9999999999999998
 40
0.5773502691896273
 41
4.21759193139129
 42
5.207186029378073
  0
ELLIPSE
  5
32F
330
1F
100
AcDbEntity
  8
WIDOCZNA
100
AcDbEllipse
 10
181.2601466773363
 20
132.7230218686312
 30
0.0
 11
1.650999999999982
 21
0.0
 31
0.0
210
0.0
220
0.0
230
1.0
 40
0.5773502691896374
 41
5.497787145927071
 42
7.068583470577046
  0
ELLIPSE
  5
330
330
1F
100
AcDbEntity
  8
WIDOCZNA
100
AcDbEllipse
 10
181.2601466773363
 20
132.7230218686312
 30
0.0
 11
1.650999999999982
 21
0.0
 31
0.0
210
0.0
220
0.0
230
1.0
 40
0.5773502691896374
 41
3.926990814842329
 42
5.497787145927071
  0
ELLIPSE
  5
331
330
1F
100
AcDbEntity
  8
WIDOCZNA
100
AcDbEllipse
 10
181.2601466773363
 20
132.7230218686312
 30
0.0
 11
1.650999999999982
 21
0.0
 31
0.0
210
0.0
220
0.0
230
1.0
 40
0.5773502691896374
 41
0.7853981633974602
 42
3.926990814842329
  0
ELLIPSE
  5
332
330
1F
100
AcDbEntity
  8
WIDOCZNA
100
AcDbEllipse
 10
181.2601466773363
 20
132.1972878851376
 30
0.0
 11
1.007110000000011
 21
0.0
 31
0.0
210
0.0
220
0.0
230
1.0
 40
0.5773502691896181
 41
0.785398163397492
 42
3.141592653589793
  0
ELLIPSE
  5
333
330
1F
100
AcDbEntity
  8
WIDOCZNA
100
AcDbEllipse
 10
181.2601466773363
 20
132.1972878851376
 30
0.0
 11
1.007110000000011
 21
0.0
 31
0.0
210
0.0
220
0.0
230
1.0
 40
0.5773502691896181
 41
3.141592653589793
 42
3.6434611373193
  0
ELLIPSE
  5
334
330
1F
100
AcDbEntity
  8
WIDOCZNA
100
AcDbEllipse
 10
181.2601466773363
 20
132.1972878851376
 30
0.0
 11
1.007110000000011
 21
0.0
 31
0.0
210
0.0
220
0.0
230
1.0
 40
0.5773502691896181
 41
5.781316823450065
 42
6.283185307179586
  0
ELLIPSE
  5
335
330
1F
100
AcDbEntity
  8
WIDOCZNA
100
AcDbEllipse
 10
181.2601466773363
 20
132.1972878851376
 30
0.0
 11
1.007110000000011
 21
0.0
 31
0.0
210
0.0
220
0.0
230
1.0
 40
0.5773502691896181
 41
0.0
 42
0.785398163397492
  0
LINE
  5
336
330
1F
100
AcDbEntity
  8
WIDOCZNA
100
AcDbLine
 10
150.8440191952751
 20
101.6611649148848
 30
0.0
 11
150.8440191952751
 21
96.18606544181587
 31
0.0
  0
ELLIPSE
  5
337
330
1F
100
AcDbEntity
  8
WIDOCZNA
100
AcDbEllipse
 10
183.1360269903128
 20
114.1789530584517
 30
0.0
 11
0.375
 21
0.649519052838329
 31
0.0
210
0.0
220
0.0
230
1.0
 40
0.5773502691896226
 41
0.0
 42
2.356194490192333
  0
ELLIPSE
  5
338
330
1F
100
AcDbEntity
  8
WIDOCZNA
100
AcDbEllipse
 10
183.1360269903128
 20
114.1789530584517
 30
0.0
 11
0.375
 21
0.649519052838329
 31
0.0
210
0.0
220
0.0
230
1.0
 40
0.5773502691896226
 41
3.141592653589794
 42
6.283185307179586
  0
ELLIPSE
  5
339
330
1F
100
AcDbEntity
  8
WIDOCZNA
100
AcDbEllipse
 10
183.1360269903128
 20
114.1789530584517
 30
0.0
 11
0.375
 21
0.649519052838329
 31
0.0
210
0.0
220
0.0
230
1.0
 40
0.5773502691896226
 41
2.356194490192333
 42
3.141592653589794
  0
ELLIPSE
  5
33A
330
1F
100
AcDbEntity
  8
WIDOCZNA
100
AcDbEllipse
 10
153.9756284782241
 20
103.1151667577149
 30
0.0
 11
2.125
 21
3.680607966083855
 31
0.0
210
0.0
220
0.0
230
1.0
 40
0.5773502691896266
 41
3.568599518961691
 42
5.856178441807683
  0
ELLIPSE
  5
33B
330
1F
100
AcDbEntity
  8
WIDOCZNA
100
AcDbEllipse
 10
188.2916872201334
 20
125.3140094188058
 30
0.0
 11
1.49860000000001
 21
2.59565134022273
 31
0.0
210
0.0
220
0.0
230
1.0
 40
0.5773502691896275
 41
0.0
 42
0.7853981633974482
  0
LINE
  5
33C
330
1F
100
AcDbEntity
  8
WIDOCZNA
100
AcDbLine
 10
192.1711578644353
 20
120.0463000772925
 30
0.0
 11
192.1711578644353
 21
125.5213995503615
 31
0.0
  0
ELLIPSE
  5
33D
330
1F
100
AcDbEntity
  8
WIDOCZNA
100
AcDbEllipse
 10
141.2800464263364
 20
109.6405002264882
 30
0.0
 11
2.247900000000016
 21
0.0
 31
0.0
210
0.0
220
0.0
230
1.0
 40
0.5773502691896242
 41
3.141592653589793
 42
3.926990816987245
  0
ELLIPSE
  5
33E
330
1F
100
AcDbEntity
  8
WIDOCZNA
100
AcDbEllipse
 10
141.2800464263364
 20
109.6405002264882
 30
0.0
 11
2.247900000000016
 21
0.0
 31
0.0
210
0.0
220
0.0
230
1.0
 40
0.5773502691896242
 41
0.7853981633974436
 42
3.141592653589793
  0
ELLIPSE
  5
33F
330
1F
100
AcDbEntity
  8
WIDOCZNA
100
AcDbEllipse
 10
152.9633596398474
 20
102.8847666910631
 30
0.0
 11
-1.498599999999982
 21
-2.595651340222716
 31
0.0
210
0.0
220
0.0
230
0.9999999999999998
 40
0.5773502691896302
 41
-2.356194490192353
 42
-0.7853981633974447
  0
ELLIPSE
  5
340
330
1F
100
AcDbEntity
  8
WIDOCZNA
100
AcDbEllipse
 10
177.2394417489672
 20
116.5465356119555
 30
0.0
 11
2.125
 21
3.680607966083869
 31
0.0
210
0.0
220
0.0
230
1.0
 40
0.5773502691896248
 41
3.568599518961689
 42
5.856178441807687
  0
ELLIPSE
  5
341
330
1F
100
AcDbEntity
  8
WIDOCZNA
100
AcDbEllipse
 10
174.6862184338541
 20
110.5741884800268
 30
0.0
 11
1.0
 21
1.732050807568882
 31
0.0
210
0.0
220
0.0
230
0.9999999999999999
 40
0.5773502691896237
 41
0.0
 42
2.356194490192344
  0
ELLIPSE
  5
342
330
1F
100
AcDbEntity
  8
WIDOCZNA
100
AcDbEllipse
 10
174.6862184338541
 20
110.5741884800268
 30
0.0
 11
1.0
 21
1.732050807568882
 31
0.0
210
0.0
220
0.0
230
0.9999999999999999
 40
0.5773502691896237
 41
3.141592653589787
 42
6.283185307179586
  0
ELLIPSE
  5
343
330
1F
100
AcDbEntity
  8
WIDOCZNA
100
AcDbEllipse
 10
174.6862184338541
 20
110.5741884800268
 30
0.0
 11
1.0
 21
1.732050807568882
 31
0.0
210
0.0
220
0.0
230
0.9999999999999999
 40
0.5773502691896237
 41
2.356194490192344
 42
3.141592653589787
  0
ELLIPSE
  5
344
330
1F
100
AcDbEntity
  8
WIDOCZNA
100
AcDbEllipse
 10
151.2032294401178
 20
103.9009783356858
 30
0.0
 11
1.498599999999982
 21
2.595651340222716
 31
0.0
210
0.0
220
0.0
230
0.9999999999999998
 40
0.5773502691896302
 41
0.7853981633974392
 42
1.599611470162068
  0
LINE
  5
345
330
1F
100
AcDbEntity
  8
WIDOCZNA
100
AcDbLine
 10
150.0717171688631
 20
97.22301609959408
 30
0.0
 11
150.0717171688631
 21
102.698115572663
 31
0.0
  0
ELLIPSE
  5
346
330
1F
100
AcDbEntity
  8
WIDOCZNA
100
AcDbEllipse
 10
187.2727227027929
 20
120.3068297822567
 30
0.0
 11
2.125
 21
3.680607966083869
 31
0.0
210
0.0
220
0.0
230
1.0
 40
0.5773502691896248
 41
0.0
 42
2.356194490192344
  0
ELLIPSE
  5
347
330
1F
100
AcDbEntity
  8
WIDOCZNA
100
AcDbEllipse
 10
187.2727227027929
 20
120.3068297822567
 30
0.0
 11
2.125
 21
3.680607966083869
 31
0.0
210
0.0
220
0.0
230
1.0
 40
0.5773502691896248
 41
3.14159265358979
 42
6.283185307179586
  0
ELLIPSE
  5
348
330
1F
100
AcDbEntity
  8
WIDOCZNA
100
AcDbEllipse
 10
187.2727227027929
 20
120.3068297822567
 30
0.0
 11
2.125
 21
3.680607966083869
 31
0.0
210
0.0
220
0.0
230
1.0
 40
0.5773502691896248
 41
2.356194490192344
 42
3.14159265358979
  0
ELLIPSE
  5
349
330
1F
100
AcDbEntity
  8
WIDOCZNA
100
AcDbEllipse
 10
151.2032294401178
 20
98.42587886261681
 30
0.0
 11
-1.49860000000001
 21
-2.59565134022273
 31
0.0
210
0.0
220
0.0
230
1.0
 40
0.5773502691896168
 41
-0.357175906134373
 42
0.0
  0
LINE
  5
34A
330
1F
100
AcDbEntity
  8
WIDOCZNA
100
AcDbLine
 10
190.6265538116114
 20
129.1507268525852
 30
0.0
 11
190.6265538116114
 21
127.3044993863519
 31
0.0
  0
ELLIPSE
  5
34B
330
1F
100
AcDbEntity
  8
WIDOCZNA
100
AcDbEllipse
 10
159.9075689879184
 20
100.7679965779094
 30
0.0
 11
0.375
 21
0.649519052838329
 31
0.0
210
0.0
220
0.0
230
1.0
 40
0.5773502691896226
 41
0.0
 42
2.356194490192333
  0
ELLIPSE
  5
34C
330
1F
100
AcDbEntity
  8
WIDOCZNA
100
AcDbEllipse
 10
159.9075689879184
 20
100.7679965779094
 30
0.0
 11
0.375
 21
0.649519052838329
 31
0.0
210
0.0
220
0.0
230
1.0
 40
0.5773502691896226
 41
3.141592653589777
 42
6.283185307179586
  0
ELLIPSE
  5
34D
330
1F
100
AcDbEntity
  8
WIDOCZNA
100
AcDbEllipse
 10
159.9075689879184
 20
100.7679965779094
 30
0.0
 11
0.375
 21
0.649519052838329
 31
0.0
210
0.0
220
0.0
230
1.0
 40
0.5773502691896226
 41
2.356194490192333
 42
3.141592653589777
  0
LINE
  5
34E
330
1F
100
AcDbEntity
  8
WIDOCZNA
100
AcDbLine
 10
147.4674428937531
 20
96.06163136288248
 30
0.0
 11
147.4674428937531
 21
104.2328025461748
 31
0.0
  0
LINE
  5
34F
330
1F
100
AcDbEntity
  8
WIDOCZNA
100
AcDbLine
 10
148.3834290181021
 20
97.60668784297202
 30
0.0
 11
148.3834290181021
 21
103.081787316041
 31
0.0
  0
ELLIPSE
  5
350
330
1F
100
AcDbEntity
  8
WIDOCZNA
100
AcDbEllipse
 10
150.5027694626744
 20
104.3053890922193
 30
0.0
 11
-1.498599999999982
 21
-2.595651340222716
 31
0.0
210
0.0
220
0.0
230
0.9999999999999998
 40
0.5773502691896302
 41
-1.54198118342773
 42
-0.7853981633974504
  0
LINE
  5
351
330
1F
100
AcDbEntity
  8
WIDOCZNA
100
AcDbLine
 10
139.0321464263364
 20
101.4693290431959
 30
0.0
 11
139.0321464263364
 21
109.6405002264882
 31
0.0
  0
LINE
  5
352
330
1F
100
AcDbEntity
  8
WIDOCZNA
100
AcDbLine
 10
150.1805830145345
 20
95.55543559808287
 30
0.0
 11
149.7046294401178
 21
95.8302275223941
 31
0.0
  0
LINE
  5
353
330
1F
100
AcDbEntity
  8
WIDOCZNA
100
AcDbLine
 10
179.0122466773363
 20
124.5518506853388
 30
0.0
 11
179.0122466773363
 21
132.7230218686312
 31
0.0
  0
LINE
  5
354
330
1F
100
AcDbEntity
  8
WIDOCZNA
100
AcDbLine
 10
151.4647596398474
 20
94.81401587777144
 30
0.0
 11
150.9888060654307
 21
95.08880780208267
 31
0.0
  0
LINE
  5
355
330
1F
100
AcDbEntity
  8
WIDOCZNA
100
AcDbLine
 10
190.2662407945501
 20
127.6348688347173
 30
0.0
 11
189.7902872201335
 21
127.9096607590286
 31
0.0
  0
LINE
  5
356
330
1F
100
AcDbEntity
  8
WIDOCZNA
100
AcDbLine
 10
191.550417419863
 20
126.8934491144059
 30
0.0
 11
191.0744638454463
 21
127.1682410387171
 31
0.0
  0
LINE
  5
357
330
1F
100
AcDbEntity
  8
STYCZNE_KRAWÊDZIE
100
AcDbLine
 10
139.6905410929072
 20
100.5516277110622
 30
0.0
 11
139.6905410929072
 21
108.7227988943545
 31
0.0
  0
LINE
  5
358
330
1F
100
AcDbEntity
  8
STYCZNE_KRAWÊDZIE
100
AcDbLine
 10
141.9921807367372
 20
109.5259171788037
 30
0.0
 11
141.9921807367372
 21
108.7805262493722
 31
0.0
  0
LINE
  5
359
330
1F
100
AcDbEntity
  8
STYCZNE_KRAWÊDZIE
100
AcDbLine
 10
179.6706413439071
 20
129.4066809362728
 30
0.0
 11
179.6706413439071
 21
131.8053205364974
 31
0.0
  0
LINE
  5
35A
330
1F
100
AcDbEntity
  8
STYCZNE_KRAWÊDZIE
100
AcDbLine
 10
148.3834290181021
 20
103.081787316041
 30
0.0
 11
149.5598425699622
 21
102.4025846351962
 31
0.0
  0
LINE
  5
35B
330
1F
100
AcDbEntity
  8
STYCZNE_KRAWÊDZIE
100
AcDbLine
 10
149.5598425699622
 20
96.9274851621273
 30
0.0
 11
148.3834290181021
 21
97.60668784297202
 31
0.0
  0
LINE
  5
35C
330
1F
100
AcDbEntity
  8
STYCZNE_KRAWÊDZIE
100
AcDbLine
 10
181.9722809879414
 20
132.6084388208287
 30
0.0
 11
182.4275799728709
 21
133.397039796305
 31
0.0
  0
LINE
  5
35D
330
1F
100
AcDbEntity
  8
STYCZNE_KRAWÊDZIE
100
AcDbLine
 10
152.9633596398474
 20
105.3319702434197
 30
0.0
 11
152.4874060654307
 21
105.6067621677309
 31
0.0
  0
LINE
  5
35E
330
1F
100
AcDbEntity
  8
STYCZNE_KRAWÊDZIE
100
AcDbLine
 10
151.6791830145345
 20
106.0733899637311
 30
0.0
 11
151.2032294401178
 21
106.3481818880423
 31
0.0
  0
LINE
  5
35F
330
1F
100
AcDbEntity
  8
STYCZNE_KRAWÊDZIE
100
AcDbLine
 10
189.5758638454463
 20
127.019793250851
 30
0.0
 11
190.051817419863
 21
126.7450013265398
 31
0.0
  0
LINE
  5
360
330
1F
100
AcDbEntity
  8
STYCZNE_KRAWÊDZIE
100
AcDbLine
 10
151.6791830145345
 20
105.4823280887975
 30
0.0
 11
152.0263009161204
 21
105.2819194748764
 31
0.0
  0
LINE
  5
361
330
1F
100
AcDbEntity
  8
STYCZNE_KRAWÊDZIE
100
AcDbLine
 10
188.7676407945501
 20
126.8953591719176
 30
0.0
 11
189.0639892465454
 21
126.7242623133842
 31
0.0
  0
LINE
  5
362
330
1F
100
AcDbEntity
  8
STYCZNE_KRAWÊDZIE
100
AcDbLine
 10
150.3680656208584
 20
101.9359568391961
 30
0.0
 11
150.8440191952751
 21
101.6611649148848
 31
0.0
  0
LINE
  5
363
330
1F
100
AcDbEntity
  8
STYCZNE_KRAWÊDZIE
100
AcDbLine
 10
179.6706413439071
 20
123.6341493532051
 30
0.0
 11
179.6706413439071
 21
126.0713261876754
 31
0.0
  0
LINE
  5
364
330
1F
100
AcDbEntity
  8
STYCZNE_KRAWÊDZIE
100
AcDbLine
 10
188.2916872201334
 20
127.7612129711624
 30
0.0
 11
188.7676407945501
 21
127.4864210468512
 31
0.0
  0
LINE
  5
365
330
1F
100
AcDbEntity
  8
STYCZNE_KRAWÊDZIE
100
AcDbLine
 10
150.0717171688631
 20
102.698115572663
 30
0.0
 11
150.418835070449
 21
102.4977069587419
 31
0.0
  0
LINE
  5
366
330
1F
100
AcDbEntity
  8
STYCZNE_KRAWÊDZIE
100
AcDbLine
 10
150.0717171688631
 20
97.22301609959408
 30
0.0
 11
150.3680656208584
 21
97.05191924106067
 31
0.0
  0
LINE
  5
367
330
1F
100
AcDbEntity
  8
STYCZNE_KRAWÊDZIE
100
AcDbLine
 10
150.8440191952751
 20
96.18606544181587
 30
0.0
 11
150.3680656208584
 21
96.4608573661271
 31
0.0
  0
LINE
  5
368
330
1F
100
AcDbEntity
  8
STYCZNE_KRAWÊDZIE
100
AcDbLine
 10
141.9921807369415
 20
109.5259171786857
 30
0.0
 11
142.447479721871
 21
110.314518154162
 31
0.0
  0
LINE
  5
369
330
1F
100
AcDbEntity
  8
STYCZNE_KRAWÊDZIE
100
AcDbLine
 10
181.9722809877371
 20
132.6084388209467
 30
0.0
 11
181.9722809877371
 21
131.8630478915152
 31
0.0
  0
ENDSEC
  0
SECTION
  2
OBJECTS
  0
DICTIONARY
  5
C
330
0
100
AcDbDictionary
  3
ACAD_GROUP
350
D
  3
ACAD_LAYOUT
350
1A
  3
ACAD_MATERIAL
350
3B
  3
ACAD_MLEADERSTYLE
350
38C
  3
ACAD_MLINESTYLE
350
17
  3
ACAD_PLOTSETTINGS
350
19
  3
ACAD_SCALELIST
350
59
  3
ACAD_VISUALSTYLE
350
2A
  3
ACDBHEADERROUNDTRIPXREC
350
36A
  3
ACDBVARIABLEDICTIONARY
350
38A
  0
DICTIONARY
  5
D
102
{ACAD_REACTORS
330
C
102
}
330
C
100
AcDbDictionary
  0
DICTIONARY
  5
1A
102
{ACAD_REACTORS
330
C
102
}
330
C
100
AcDbDictionary
  0
DICTIONARY
  5
3B
102
{ACAD_REACTORS
330
C
102
}
330
C
100
AcDbDictionary
  3
BYBLOCK
350
3D
  3
BYLAYER
350
3C
  3
GLOBAL
350
3E
  0
DICTIONARY
  5
38C
102
{ACAD_REACTORS
330
C
102
}
330
C
100
AcDbDictionary
  0
DICTIONARY
  5
17
102
{ACAD_REACTORS
330
C
102
}
330
C
100
AcDbDictionary
  3
STANDARD
350
18
  0
DICTIONARY
  5
19
102
{ACAD_REACTORS
330
C
102
}
330
C
100
AcDbDictionary
  0
DICTIONARY
  5
59
102
{ACAD_REACTORS
330
C
102
}
330
C
100
AcDbDictionary
  3
A0
350
5A
  3
A1
350
5B
  3
A2
350
5C
  3
A3
350
5D
  3
A4
350
5E
  3
A5
350
5F
  3
A6
350
60
  3
A7
350
61
  3
A8
350
62
  3
A9
350
63
  3
B0
350
64
  3
B1
350
65
  3
B2
350
66
  3
B3
350
67
  3
B4
350
68
  3
B5
350
69
  3
B6
350
6A
  3
B7
350
6B
  3
B8
350
6C
  3
B9
350
6D
  3
C0
350
6E
  3
C1
350
6F
  3
C2
350
70
  3
C3
350
71
  3
C4
350
72
  3
C5
350
73
  3
C6
350
74
  3
C7
350
75
  3
C8
350
76
  3
C9
350
77
  3
D0
350
78
  3
D1
350
79
  3
D2
350
7A
  0
DICTIONARY
  5
2A
102
{ACAD_REACTORS
330
C
102
}
330
C
100
AcDbDictionary
  3
2DWIREFRAME
350
2F
  3
3D_HIDDEN
350
31
  3
3DWIREFRAME
350
30
  3
BASIC
350
32
  3
BRIGHTEN
350
36
  3
COLORCHANGE
350
3A
  3
CONCEPTUAL
350
34
  3
DIM
350
35
  3
FACEPATTERN
350
39
  3
FLAT
350
2B
  3
FLATWITHEDGES
350
2C
  3
GOURAUD
350
2D
  3
GOURAUDWITHEDGES
350
2E
  3
LINEPATTERN
350
38
  3
REALISTIC
350
33
  3
THICKEN
350
37
  0
DICTIONARY
  5
36A
102
{ACAD_REACTORS
330
C
102
}
330
C
100
AcDbDictionary
  3
CEPSNTYPE
350
373
  3
DIMSTYLEDATA
350
389
  3
FINGERPRINTGUID
350
374
  3
HYPERLINKBASE
350
36D
  3
INSUNITS
350
372
  3
LAYOUTDICT
350
36F
  3
LWETCUNION
350
371
  3
PLOTSETDICT
350
370
  3
PSVPSCALE
350
376
  3
PUCSBASE
350
379
  3
PUCSORGBACK
350
37F
  3
PUCSORGBOTTOM
350
37B
  3
PUCSORGFRONT
350
37E
  3
PUCSORGLEFT
350
37C
  3
PUCSORGRIGHT
350
37D
  3
PUCSORGTOP
350
37A
  3
PUCSORTHOREF
350
377
  3
PUCSORTHOVIEW
350
378
  3
STYLESHEET
350
36E
  3
TSTACKALIGN
350
36B
  3
TSTACKSIZE
350
36C
  3
UCSBASE
350
382
  3
UCSORGBACK
350
388
  3
UCSORGBOTTOM
350
384
  3
UCSORGFRONT
350
387
  3
UCSORGLEFT
350
385
  3
UCSORGRIGHT
350
386
  3
UCSORGTOP
350
383
  3
UCSORTHOREF
350
380
  3
UCSORTHOVIEW
350
381
  3
VERSIONGUID
350
375
  0
DICTIONARY
  5
38A
102
{ACAD_REACTORS
330
C
102
}
330
C
100
AcDbDictionary
  3
CANNOSCALE
350
38F
  3
DIMASSOC
350
390
  3
HIDETEXT
350
391
  3
PSOLHEIGHT
350
38E
  3
PSOLWIDTH
350
38D
  0
MATERIAL
  5
3D
102
{ACAD_REACTORS
330
3B
102
}
102
{ACAD_XDICTIONARY
360
394
102
}
330
3B
100
AcDbMaterial
  1
ByBlock
  0
MATERIAL
  5
3C
102
{ACAD_REACTORS
330
3B
102
}
102
{ACAD_XDICTIONARY
360
392
102
}
330
3B
100
AcDbMaterial
  1
ByLayer
  0
MATERIAL
  5
3E
102
{ACAD_REACTORS
330
3B
102
}
102
{ACAD_XDICTIONARY
360
396
102
}
330
3B
100
AcDbMaterial
  1
Global
  0
MLINESTYLE
  5
18
102
{ACAD_REACTORS
330
17
102
}
330
17
100
AcDbMlineStyle
  2
Standard
 70
     0
  3

 62
   256
 51
90.0
 52
90.0
 71
     2
 49
0.5
 62
   256
  6
BYLAYER
 49
-0.5
 62
   256
  6
BYLAYER
  0
ACAD_PROXY_OBJECT
  5
5A
102
{ACAD_REACTORS
330
59
102
}
330
59
100
AcDbProxyObject
 90
      499
 91
      503
 93
       41
310
903313A31580
  0
ACAD_PROXY_OBJECT
  5
5B
102
{ACAD_REACTORS
330
59
102
}
330
59
100
AcDbProxyObject
 90
      499
 91
      503
 93
      105
310
903313A324000000000000004000
  0
ACAD_PROXY_OBJECT
  5
5C
102
{ACAD_REACTORS
330
59
102
}
330
59
100
AcDbProxyObject
 90
      499
 91
      503
 93
      105
310
903313A344000000000000104000
  0
ACAD_PROXY_OBJECT
  5
5D
102
{ACAD_REACTORS
330
59
102
}
330
59
100
AcDbProxyObject
 90
      499
 91
      503
 93
      105
310
903313A354000000000000144000
  0
ACAD_PROXY_OBJECT
  5
5E
102
{ACAD_REACTORS
330
59
102
}
330
59
100
AcDbProxyObject
 90
      499
 91
      503
 93
      105
310
903313A384000000000000204000
  0
ACAD_PROXY_OBJECT
  5
5F
102
{ACAD_REACTORS
330
59
102
}
330
59
100
AcDbProxyObject
 90
      499
 91
      503
 93
      113
310
904313A31304000000000000244000
  0
ACAD_PROXY_OBJECT
  5
60
102
{ACAD_REACTORS
330
59
102
}
330
59
100
AcDbProxyObject
 90
      499
 91
      503
 93
      113
310
904313A31364000000000000304000
  0
ACAD_PROXY_OBJECT
  5
61
102
{ACAD_REACTORS
330
59
102
}
330
59
100
AcDbProxyObject
 90
      499
 91
      503
 93
      113
310
904313A32304000000000000344000
  0
ACAD_PROXY_OBJECT
  5
62
102
{ACAD_REACTORS
330
59
102
}
330
59
100
AcDbProxyObject
 90
      499
 91
      503
 93
      113
310
904313A333040000000000003E4000
  0
ACAD_PROXY_OBJECT
  5
63
102
{ACAD_REACTORS
330
59
102
}
330
59
100
AcDbProxyObject
 90
      499
 91
      503
 93
      113
310
904313A34304000000000000444000
  0
ACAD_PROXY_OBJECT
  5
64
102
{ACAD_REACTORS
330
59
102
}
330
59
100
AcDbProxyObject
 90
      499
 91
      503
 93
      113
310
904313A35304000000000000494000
  0
ACAD_PROXY_OBJECT
  5
65
102
{ACAD_REACTORS
330
59
102
}
330
59
100
AcDbProxyObject
 90
      499
 91
      503
 93
      121
310
905313A3130304000000000000594000
  0
ACAD_PROXY_OBJECT
  5
66
102
{ACAD_REACTORS
330
59
102
}
330
59
100
AcDbProxyObject
 90
      499
 91
      503
 93
      105
310
903323A310000000000000010100
  0
ACAD_PROXY_OBJECT
  5
67
102
{ACAD_REACTORS
330
59
102
}
330
59
100
AcDbProxyObject
 90
      499
 91
      503
 93
      105
310
903343A310000000000000410100
  0
ACAD_PROXY_OBJECT
  5
68
102
{ACAD_REACTORS
330
59
102
}
330
59
100
AcDbProxyObject
 90
      499
 91
      503
 93
      105
310
903383A310000000000000810100
  0
ACAD_PROXY_OBJECT
  5
69
102
{ACAD_REACTORS
330
59
102
}
330
59
100
AcDbProxyObject
 90
      499
 91
      503
 93
      113
310
90431303A310000000000000910100
  0
ACAD_PROXY_OBJECT
  5
6A
102
{ACAD_REACTORS
330
59
102
}
330
59
100
AcDbProxyObject
 90
      499
 91
      503
 93
      121
310
9053130303A310000000000001650100
  0
ACAD_PROXY_OBJECT
  5
6B
102
{ACAD_REACTORS
330
59
102
}
330
59
100
AcDbProxyObject
 90
      499
 91
      503
 93
      257
310
90E312F31323822203D2031272D3022000000000000200FC000000000000284000
  0
ACAD_PROXY_OBJECT
  5
6C
102
{ACAD_REACTORS
330
59
102
}
330
59
100
AcDbProxyObject
 90
      499
 91
      503
 93
      249
310
90D312F363422203D2031272D3022000000000000240FC000000000000284000
  0
ACAD_PROXY_OBJECT
  5
6D
102
{ACAD_REACTORS
330
59
102
}
330
59
100
AcDbProxyObject
 90
      499
 91
      503
 93
      249
310
90D312F333222203D2031272D3022000000000000280FC000000000000284000
  0
ACAD_PROXY_OBJECT
  5
6E
102
{ACAD_REACTORS
330
59
102
}
330
59
100
AcDbProxyObject
 90
      499
 91
      503
 93
      249
310
90D312F313622203D2031272D30220000000000002C0FC000000000000284000
  0
ACAD_PROXY_OBJECT
  5
6F
102
{ACAD_REACTORS
330
59
102
}
330
59
100
AcDbProxyObject
 90
      499
 91
      503
 93
      249
310
90D332F333222203D2031272D30220000000000002E0FC000000000000284000
  0
ACAD_PROXY_OBJECT
  5
70
102
{ACAD_REACTORS
330
59
102
}
330
59
100
AcDbProxyObject
 90
      499
 91
      503
 93
      241
310
90C312F3822203D2031272D3022000000000000300FC000000000000284000
  0
ACAD_PROXY_OBJECT
  5
71
102
{ACAD_REACTORS
330
59
102
}
330
59
100
AcDbProxyObject
 90
      499
 91
      503
 93
      249
310
90D332F313622203D2031272D3022000000000000320FC000000000000284000
  0
ACAD_PROXY_OBJECT
  5
72
102
{ACAD_REACTORS
330
59
102
}
330
59
100
AcDbProxyObject
 90
      499
 91
      503
 93
      241
310
90C312F3422203D2031272D3022000000000000340FC000000000000284000
  0
ACAD_PROXY_OBJECT
  5
73
102
{ACAD_REACTORS
330
59
102
}
330
59
100
AcDbProxyObject
 90
      499
 91
      503
 93
      241
310
90C332F3822203D2031272D3022000000000000360FC000000000000284000
  0
ACAD_PROXY_OBJECT
  5
74
102
{ACAD_REACTORS
330
59
102
}
330
59
100
AcDbProxyObject
 90
      499
 91
      503
 93
      241
310
90C312F3222203D2031272D3022000000000000380FC000000000000284000
  0
ACAD_PROXY_OBJECT
  5
75
102
{ACAD_REACTORS
330
59
102
}
330
59
100
AcDbProxyObject
 90
      499
 91
      503
 93
      241
310
90C332F3422203D2031272D30220000000000003A0FC000000000000284000
  0
ACAD_PROXY_OBJECT
  5
76
102
{ACAD_REACTORS
330
59
102
}
330
59
100
AcDbProxyObject
 90
      499
 91
      503
 93
      161
310
90A3122203D2031272D30224000000000000284000
  0
ACAD_PROXY_OBJECT
  5
77
102
{ACAD_REACTORS
330
59
102
}
330
59
100
AcDbProxyObject
 90
      499
 91
      503
 93
      257
310
90E312D312F3222203D2031272D30220000000000003E0FC000000000000284000
  0
ACAD_PROXY_OBJECT
  5
78
102
{ACAD_REACTORS
330
59
102
}
330
59
100
AcDbProxyObject
 90
      499
 91
      503
 93
      225
310
90A3322203D2031272D302200000000000002100000000000000284000
  0
ACAD_PROXY_OBJECT
  5
79
102
{ACAD_REACTORS
330
59
102
}
330
59
100
AcDbProxyObject
 90
      499
 91
      503
 93
      225
310
90A3622203D2031272D302200000000000006100000000000000284000
  0
ACAD_PROXY_OBJECT
  5
7A
102
{ACAD_REACTORS
330
59
102
}
330
59
100
AcDbProxyObject
 90
      499
 91
      503
 93
      249
310
90D31272D3022203D2031272D30220000000000000A100000000000000284000
  0
ACAD_PROXY_OBJECT
  5
2F
102
{ACAD_REACTORS
330
2A
102
}
330
2A
100
AcDbProxyObject
 90
      499
 91
      501
 93
      436
310
42CC9915DA5C99599C985B595049028333333333333E3BF0000000000000FB0107901411070040501600405405064090741402480A0340
1001
ACAD
1000
AcDbSavedByObjectVersion
1070
     0
  0
ACAD_PROXY_OBJECT
  5
31
102
{ACAD_REACTORS
330
2A
102
}
330
2A
100
AcDbProxyObject
 90
      499
 91
      501
 93
      500
310
424CD108121A5919195B90640502408333333333333E3BF0000000000000FB01079024090700405020000000000001110200405405064090740C02480A0340
1001
ACAD
1000
AcDbSavedByObjectVersion
1070
     0
  0
ACAD_PROXY_OBJECT
  5
30
102
{ACAD_REACTORS
330
2A
102
}
330
2A
100
AcDbProxyObject
 90
      499
 91
      501
 93
      436
310
42CCD915DA5C99599C985B595059028333333333333E3BF0000000000000FB0107901411070040501600405405064090741402480A0340
1001
ACAD
1000
AcDbSavedByObjectVersion
1070
     0
  0
ACAD_PROXY_OBJECT
  5
32
102
{ACAD_REACTORS
330
2A
102
}
330
2A
100
AcDbProxyObject
 90
      499
 91
      501
 93
      388
310
4150985CDA58D07406404333333333333E3BF0000000000000FB0107A41107004050150841D405064090741402480A0350
1001
ACAD
1000
AcDbSavedByObjectVersion
1070
     0
  0
ACAD_PROXY_OBJECT
  5
36
102
{ACAD_REACTORS
330
2A
102
}
330
2A
100
AcDbProxyObject
 90
      499
 91
      501
 93
      428
310
42109C9A59DA1D195B90C409028333333333333E3BF0000000000000FB010790141107004050150841D405064090741402480A029950
1001
ACAD
1000
AcDbSavedByObjectVersion
1070
     0
  0
ACAD_PROXY_OBJECT
  5
3A
102
{ACAD_REACTORS
330
2A
102
}
330
2A
100
AcDbProxyObject
 90
      499
 91
      501
 93
      452
310
42D0DBDB1BDC90DA185B99D95104090240C333333333333E3BF0000000000000FB0108901411070040501508421405064090741402480A0350
1001
ACAD
1000
AcDbSavedByObjectVersion
1070
     0
  0
ACAD_PROXY_OBJECT
  5
34
102
{ACAD_REACTORS
330
2A
102
}
330
2A
100
AcDbProxyObject
 90
      499
 91
      501
 93
      500
310
4290DBDB98D95C1D1D585B10940D028333333333333E3BF0000000000000FB0107902409070040501000000000000111010841D405064090740C02480A0340
1001
ACAD
1000
AcDbSavedByObjectVersion
1070
     0
  0
ACAD_PROXY_OBJECT
  5
35
102
{ACAD_REACTORS
330
2A
102
}
330
2A
100
AcDbProxyObject
 90
      499
 91
      501
 93
      412
310
40D11A5B50B409028333333333333E3BF0000000000000FB010790141107004050150841D405064090741402480A02677FFFFFD0
1001
ACAD
1000
AcDbSavedByObjectVersion
1070
     0
  0
ACAD_PROXY_OBJECT
  5
39
102
{ACAD_REACTORS
330
2A
102
}
330
2A
100
AcDbProxyObject
 90
      499
 91
      501
 93
      444
310
42D19858D95C185D1D195C9B90F409028333333333333E3BF0000000000000FB010790141107004050150841D405064090741402480A0350
1001
ACAD
1000
AcDbSavedByObjectVersion
1070
     0
  0
ACAD_PROXY_OBJECT
  5
2B
102
{ACAD_REACTORS
330
2A
102
}
330
2A
100
AcDbProxyObject
 90
      499
 91
      501
 93
      388
310
41119B185D240901404333333333333E3BF0000000000000F9010740A41107004050150841D405064090741402480A1B50
1001
ACAD
1000
AcDbSavedByObjectVersion
1070
     0
  0
ACAD_PROXY_OBJECT
  5
2C
102
{ACAD_REACTORS
330
2A
102
}
330
2A
100
AcDbProxyObject
 90
      499
 91
      501
 93
      476
310
43519B185D15DA5D1A115919D95CD0140901404333333333333E3BF0000000000000F9010740901411070040501600405405064090741402480A1B50
1001
ACAD
1000
AcDbSavedByObjectVersion
1070
     0
  0
ACAD_PROXY_OBJECT
  5
2D
102
{ACAD_REACTORS
330
2A
102
}
330
2A
100
AcDbProxyObject
 90
      499
 91
      501
 93
      412
310
41D1DBDD5C985D5910240902404333333333333E3BF0000000000000F9010740A411070040501641D405064090741402480A1B50
1001
ACAD
1000
AcDbSavedByObjectVersion
1070
     0
  0
ACAD_PROXY_OBJECT
  5
2E
102
{ACAD_REACTORS
330
2A
102
}
330
2A
100
AcDbProxyObject
 90
      499
 91
      501
 93
      500
310
4411DBDD5C985D5915DA5D1A115919D95CD0340902404333333333333E3BF0000000000000F9010740901411070040501600405405064090741402480A1B50
1001
ACAD
1000
AcDbSavedByObjectVersion
1070
     0
  0
ACAD_PROXY_OBJECT
  5
38
102
{ACAD_REACTORS
330
2A
102
}
330
2A
100
AcDbProxyObject
 90
      499
 91
      501
 93
      444
310
42D31A5B995C185D1D195C9B90E409028333333333333E3BF0000000000000FB010790141107004050750841D405064090741402483A0350
1001
ACAD
1000
AcDbSavedByObjectVersion
1070
     0
  0
ACAD_PROXY_OBJECT
  5
33
102
{ACAD_REACTORS
330
2A
102
}
330
2A
100
AcDbProxyObject
 90
      499
 91
      501
 93
      420
310
425499585B1A5CDD1A58D08409028333333333333E3BF0000000000000FB01079019070040501508421405064090741402480A1B40
1001
ACAD
1000
AcDbSavedByObjectVersion
1070
     0
  0
ACAD_PROXY_OBJECT
  5
37
102
{ACAD_REACTORS
330
2A
102
}
330
2A
100
AcDbProxyObject
 90
      499
 91
      501
 93
      412
310
41D51A1A58DAD95B90D409028333333333333E3BF0000000000000FB010790141107004050150C41D405064090741402480A0350
1001
ACAD
1000
AcDbSavedByObjectVersion
1070
     0
  0
XRECORD
  5
373
102
{ACAD_REACTORS
330
36A
102
}
330
36A
100
AcDbXrecord
 90
        0
  0
XRECORD
  5
389
102
{ACAD_REACTORS
330
36A
102
}
330
36A
100
AcDbXrecord
1000
DSTYLE
1002
{
1070
    41
 40
3.0
1070
   340
340
11
1070
   140
 40
1.22550817624347
1002
}
  0
XRECORD
  5
374
102
{ACAD_REACTORS
330
36A
102
}
330
36A
100
AcDbXrecord
  1
{763710A0-B632-409E-801B-D97B87C854DB}
  0
XRECORD
  5
36D
102
{ACAD_REACTORS
330
36A
102
}
330
36A
100
AcDbXrecord
  1

  0
XRECORD
  5
372
102
{ACAD_REACTORS
330
36A
102
}
330
36A
100
AcDbXrecord
 90
        4
  0
XRECORD
  5
36F
102
{ACAD_REACTORS
330
36A
102
}
330
36A
100
AcDbXrecord
340
1A
  0
XRECORD
  5
371
102
{ACAD_REACTORS
330
36A
102
}
330
36A
100
AcDbXrecord
 90
    10781
  0
XRECORD
  5
370
102
{ACAD_REACTORS
330
36A
102
}
330
36A
100
AcDbXrecord
340
19
  0
XRECORD
  5
376
102
{ACAD_REACTORS
330
36A
102
}
330
36A
100
AcDbXrecord
 40
0.0
  0
XRECORD
  5
379
102
{ACAD_REACTORS
330
36A
102
}
330
36A
100
AcDbXrecord
340
0
  0
XRECORD
  5
37F
102
{ACAD_REACTORS
330
36A
102
}
330
36A
100
AcDbXrecord
 10
0.0
 20
0.0
 30
0.0
  0
XRECORD
  5
37B
102
{ACAD_REACTORS
330
36A
102
}
330
36A
100
AcDbXrecord
 10
0.0
 20
0.0
 30
0.0
  0
XRECORD
  5
37E
102
{ACAD_REACTORS
330
36A
102
}
330
36A
100
AcDbXrecord
 10
0.0
 20
0.0
 30
0.0
  0
XRECORD
  5
37C
102
{ACAD_REACTORS
330
36A
102
}
330
36A
100
AcDbXrecord
 10
0.0
 20
0.0
 30
0.0
  0
XRECORD
  5
37D
102
{ACAD_REACTORS
330
36A
102
}
330
36A
100
AcDbXrecord
 10
0.0
 20
0.0
 30
0.0
  0
XRECORD
  5
37A
102
{ACAD_REACTORS
330
36A
102
}
330
36A
100
AcDbXrecord
 10
0.0
 20
0.0
 30
0.0
  0
XRECORD
  5
377
102
{ACAD_REACTORS
330
36A
102
}
330
36A
100
AcDbXrecord
340
0
  0
XRECORD
  5
378
102
{ACAD_REACTORS
330
36A
102
}
330
36A
100
AcDbXrecord
 70
     0
  0
XRECORD
  5
36E
102
{ACAD_REACTORS
330
36A
102
}
330
36A
100
AcDbXrecord
  1

  0
XRECORD
  5
36B
102
{ACAD_REACTORS
330
36A
102
}
330
36A
100
AcDbXrecord
 90
        1
  0
XRECORD
  5
36C
102
{ACAD_REACTORS
330
36A
102
}
330
36A
100
AcDbXrecord
 90
       70
  0
XRECORD
  5
382
102
{ACAD_REACTORS
330
36A
102
}
330
36A
100
AcDbXrecord
340
0
  0
XRECORD
  5
388
102
{ACAD_REACTORS
330
36A
102
}
330
36A
100
AcDbXrecord
 10
0.0
 20
0.0
 30
0.0
  0
XRECORD
  5
384
102
{ACAD_REACTORS
330
36A
102
}
330
36A
100
AcDbXrecord
 10
0.0
 20
0.0
 30
0.0
  0
XRECORD
  5
387
102
{ACAD_REACTORS
330
36A
102
}
330
36A
100
AcDbXrecord
 10
0.0
 20
0.0
 30
0.0
  0
XRECORD
  5
385
102
{ACAD_REACTORS
330
36A
102
}
330
36A
100
AcDbXrecord
 10
0.0
 20
0.0
 30
0.0
  0
XRECORD
  5
386
102
{ACAD_REACTORS
330
36A
102
}
330
36A
100
AcDbXrecord
 10
0.0
 20
0.0
 30
0.0
  0
XRECORD
  5
383
102
{ACAD_REACTORS
330
36A
102
}
330
36A
100
AcDbXrecord
 10
0.0
 20
0.0
 30
0.0
  0
XRECORD
  5
380
102
{ACAD_REACTORS
330
36A
102
}
330
36A
100
AcDbXrecord
340
0
  0
XRECORD
  5
381
102
{ACAD_REACTORS
330
36A
102
}
330
36A
100
AcDbXrecord
 70
     0
  0
XRECORD
  5
375
102
{ACAD_REACTORS
330
36A
102
}
330
36A
100
AcDbXrecord
  1
{FAEB1C32-E019-11D5-929B-00C0DF256EC4}
  0
DICTIONARYVAR
  5
38F
102
{ACAD_REACTORS
330
38A
102
}
330
38A
100
DictionaryVariables
280
     0
  1
1:1
  0
DICTIONARYVAR
  5
390
102
{ACAD_REACTORS
330
38A
102
}
330
38A
100
DictionaryVariables
280
     0
  1
2
  0
DICTIONARYVAR
  5
391
102
{ACAD_REACTORS
330
38A
102
}
330
38A
100
DictionaryVariables
280
     0
  1
1
  0
DICTIONARYVAR
  5
38E
102
{ACAD_REACTORS
330
38A
102
}
330
38A
100
DictionaryVariables
280
     0
  1
80.000000
  0
DICTIONARYVAR
  5
38D
102
{ACAD_REACTORS
330
38A
102
}
330
38A
100
DictionaryVariables
280
     0
  1
5.000000
  0
DICTIONARY
  5
394
330
3D
100
AcDbDictionary
280
     1
  3
ACAD_XREC_ROUNDTRIP
360
395
  0
DICTIONARY
  5
392
330
3C
100
AcDbDictionary
280
     1
  3
ACAD_XREC_ROUNDTRIP
360
393
  0
DICTIONARY
  5
396
330
3E
100
AcDbDictionary
280
     1
  3
ACAD_XREC_ROUNDTRIP
360
397
  0
XRECORD
  5
395
102
{ACAD_REACTORS
330
394
102
}
330
394
100
AcDbXrecord
102
MATERIAL
148
0.0
149
0.0
149
0.0
 93
        0
 94
      127
282
     0
 72
     1
 77
     1
171
     1
175
     1
179
     1
273
     0
  0
XRECORD
  5
393
102
{ACAD_REACTORS
330
392
102
}
330
392
100
AcDbXrecord
102
MATERIAL
148
0.0
149
0.0
149
0.0
 93
        0
 94
      127
282
     0
 72
     1
 77
     1
171
     1
175
     1
179
     1
273
     0
  0
XRECORD
  5
397
102
{ACAD_REACTORS
330
396
102
}
330
396
100
AcDbXrecord
102
MATERIAL
148
0.0
149
0.0
149
0.0
 93
        0
 94
      127
282
     0
 72
     1
 77
     1
171
     1
175
     1
179
     1
273
     0
  0
ENDSEC
  0
EOF
